# Blender 4.5.9 LTS
# www.blender.org
mtllib finger.mtl
o node0
v 0.002999 0.010897 0.044645
v 0.000360 0.010900 0.047968
v 0.002339 0.010885 0.046955
v 0.002346 0.010887 0.043179
v 0.001026 0.010895 0.042150
v 0.002000 0.010897 0.044086
v 0.000827 0.010891 0.047019
v 0.002051 0.010870 0.045824
v 0.000985 0.010888 0.043066
v -0.001819 0.009438 0.043879
v -0.000011 0.009430 0.047117
v -0.000698 0.009432 0.043016
v -0.001465 0.009429 0.046552
v -0.002086 0.009431 0.045269
v -0.000156 0.009388 0.043234
v 0.001298 0.009391 0.043788
v 0.000156 0.009388 0.046766
v 0.001741 0.009389 0.045586
v -0.002887 0.009435 0.043995
v -0.001785 0.009434 0.042496
v 0.000521 0.009434 0.048030
v -0.001792 0.009434 0.047551
v 0.000015 0.009438 0.041942
v -0.002975 0.009437 0.045703
v -0.008931 0.009314 0.036090
v 0.008931 0.009314 0.036090
v -0.000860 0.001913 0.043565
v -0.001740 0.009389 0.044414
v -0.001526 0.001913 0.045918
v -0.001297 0.009391 0.046212
v -0.000970 0.010885 0.042168
v 0.004843 -0.000017 0.053717
v 0.008757 -0.000030 0.047272
v 0.008759 -0.000029 0.042728
v -0.002268 -0.000036 0.053746
v -0.008709 -0.000010 0.049939
v -0.008758 -0.000029 0.047272
v -0.002274 -0.000037 0.036250
v -0.002244 -0.000075 0.042756
v -0.008759 -0.000030 0.042724
v 0.002263 -0.000084 0.047263
v 0.002269 -0.000036 0.053746
v 0.000000 0.001559 0.053804
v 0.000000 0.001489 0.045000
v 0.000000 0.001561 0.036196
v 0.002270 -0.000034 0.036249
v 0.002248 -0.000076 0.042752
v -0.002262 -0.000084 0.047263
v -0.005692 0.000011 0.053604
v 0.006869 0.009352 0.053103
v -0.007861 0.009355 0.052191
v 0.003445 0.009387 0.047057
v 0.008786 0.009348 0.050571
v 0.003924 0.009390 0.045734
v -0.000730 0.009392 0.041080
v 0.003038 0.009434 0.044653
v 0.000734 0.009390 0.041077
v 0.002057 0.009387 0.041555
v 0.004730 0.009351 0.053900
v -0.000733 0.009390 0.048923
v -0.002056 0.009387 0.048445
v 0.007075 -0.000019 0.052769
v 0.008675 -0.000007 0.050319
v 0.007493 0.009395 0.044251
v 0.007331 0.001442 0.044080
v 0.004115 0.001434 0.044041
v 0.000914 0.001440 0.040925
v 0.002675 0.001428 0.041713
v -0.000916 0.001442 0.037673
v -0.004073 0.001442 0.044090
v -0.003945 0.009400 0.044254
v -0.002707 0.009384 0.041939
v -0.003045 0.001420 0.041957
v -0.007492 0.009394 0.037502
v -0.000909 0.001442 0.040927
v -0.004972 0.009393 0.052438
v -0.007141 0.001431 0.050442
v -0.007258 0.009388 0.050689
v -0.007492 0.009395 0.045749
v -0.004115 0.001433 0.045959
v -0.000913 0.001440 0.049075
v -0.002675 0.001427 0.048287
v -0.000916 0.001443 0.052328
v -0.005090 0.001432 0.052228
v 0.007365 0.009394 0.050327
v 0.004925 0.001437 0.052263
v 0.005344 0.009386 0.052356
v 0.000916 0.001444 0.052327
v 0.000750 0.009395 0.052492
v 0.000959 0.001433 0.049115
v 0.004076 0.001440 0.045913
v 0.003287 0.001427 0.047676
v 0.007310 0.001436 0.049581
v 0.006608 0.001413 0.051169
v -0.001967 0.010890 0.044077
v -0.002455 0.010896 0.043269
v -0.000723 0.010895 0.042878
v 0.002155 0.009418 0.044564
v 0.000722 0.009434 0.042990
v 0.001448 0.009429 0.046568
v 0.000861 0.001913 0.046435
v 0.001526 0.001912 0.044082
v -0.007818 -0.000040 0.051918
v -0.008772 0.000028 0.036264
v -0.008893 0.009342 0.049900
v 0.008763 0.000011 0.036266
v -0.005340 0.009355 0.053819
v -0.007332 0.001443 0.044080
v -0.007497 0.009395 0.044247
v -0.007333 0.001443 0.037672
v -0.000756 0.009394 0.037502
v 0.002546 0.009437 0.046798
v 0.002078 0.009434 0.042675
v 0.007333 0.001442 0.037673
v 0.007498 0.009394 0.037507
v 0.000916 0.001442 0.037673
v 0.003923 0.009390 0.044267
v 0.000754 0.009395 0.037503
v 0.003376 0.009391 0.042815
v -0.007332 0.001444 0.045920
v -0.003923 0.009390 0.045733
v -0.000754 0.009395 0.052497
v -0.003375 0.009391 0.047185
v 0.007332 0.001443 0.045920
v 0.000734 0.009390 0.048923
v 0.007497 0.009395 0.045754
v 0.002186 0.009391 0.048375
v -0.002153 0.010887 0.045420
v -0.001070 0.010884 0.046981
v -0.003009 0.010894 0.045279
v -0.001871 0.010907 0.047411
v -0.008804 0.001559 0.045000
v 0.008809 0.001565 0.045000
vn 0.9590 0.0821 0.2711
vn 0.9707 -0.0203 -0.2394
vn 0.3562 0.0258 -0.9340
vn 0.2115 0.0631 -0.9753
vn 0.5970 -0.0208 0.8020
vn 0.8966 0.0864 -0.4343
vn 0.8203 -0.0545 -0.5694
vn 0.0186 0.0948 0.9953
vn 0.3569 0.1741 -0.9178
vn 0.6077 0.0856 0.7896
vn 0.6939 -0.0274 0.7195
vn 0.9793 0.0740 0.1886
vn 0.9901 0.0311 0.1371
vn -0.9979 -0.0384 -0.0517
vn -0.9530 0.1509 -0.2626
vn -0.2413 0.0789 0.9672
vn -0.2029 0.0191 0.9790
vn -0.8043 -0.0565 -0.5915
vn -0.5881 0.1500 -0.7948
vn -0.2938 -0.0514 -0.9545
vn -0.0095 0.1474 -0.9890
vn -0.8421 0.0059 0.5393
vn -0.8765 0.1155 0.4673
vn 0.0076 -0.9999 0.0073
vn 0.0031 -1.0000 0.0091
vn 0.0109 -0.9999 0.0023
vn 0.0083 -0.9999 0.0077
vn 0.0073 -1.0000 -0.0061
vn 0.0070 -1.0000 -0.0064
vn -0.0142 -0.9999 0.0073
vn 0.0084 -0.9998 0.0195
vn -0.0148 -0.9999 -0.0082
vn -0.0084 -0.9999 0.0072
vn -0.0068 -1.0000 -0.0058
vn -0.0099 -0.9999 -0.0090
vn 0.9996 0.0055 0.0269
vn 0.9997 -0.0124 0.0216
vn 0.9999 -0.0042 0.0100
vn 0.9997 -0.0228 -0.0062
vn 0.9998 -0.0181 0.0005
vn -0.9998 -0.0032 0.0181
vn -0.9997 -0.0196 0.0129
vn -0.9998 -0.0217 -0.0047
vn -0.9999 -0.0171 0.0019
vn -0.9999 -0.0132 0.0027
vn -0.5751 -0.8180 0.0065
vn -0.5750 -0.8181 0.0065
vn -0.5749 -0.8182 -0.0072
vn -0.5759 -0.8175 -0.0067
vn 0.5750 -0.8181 0.0065
vn 0.5751 -0.8180 0.0065
vn 0.5761 -0.8174 -0.0067
vn 0.5748 -0.8183 -0.0074
vn -0.0025 -0.0188 -0.9998
vn -0.0076 -0.0224 -0.9997
vn 0.0074 -0.0222 -0.9997
vn 0.0028 -0.0189 -0.9998
vn -0.0000 -0.0137 -0.9999
vn -0.0080 -0.0075 0.9999
vn -0.0292 -0.0220 0.9993
vn -0.0412 0.0223 0.9989
vn 0.0114 -0.0200 0.9997
vn 0.0116 -0.0194 0.9997
vn -0.0398 0.9988 -0.0285
vn -0.0375 0.9989 -0.0283
vn 0.0362 0.9993 -0.0000
vn 0.0192 0.9993 0.0334
vn -0.0111 0.9998 0.0172
vn 0.0002 0.9984 -0.0563
vn -0.0191 0.9996 0.0221
vn 0.0558 0.9984 -0.0001
vn 0.0456 0.9990 -0.0019
vn -0.0000 0.9984 -0.0573
vn -0.0004 0.9985 -0.0543
vn -0.0550 0.9985 -0.0002
vn -0.0453 0.9990 -0.0019
vn -0.0322 0.9994 0.0087
vn 0.0442 0.9983 0.0391
vn 0.0136 0.9998 0.0174
vn -0.0293 0.9996 0.0028
vn -0.0008 0.9996 0.0269
vn 0.0286 0.9994 0.0201
vn -0.0198 0.9981 -0.0576
vn 0.0496 0.9986 0.0203
vn -0.0198 0.9992 -0.0360
vn 0.0399 0.9992 0.0078
vn -0.0001 0.9996 0.0294
vn -0.0373 0.9993 0.0001
vn 0.0490 0.9988 0.0003
vn 0.0012 0.9985 -0.0541
vn 0.0168 0.9989 -0.0428
vn 0.0172 0.9990 -0.0409
vn 0.0421 0.9990 -0.0155
vn 0.0001 0.9995 0.0306
vn -0.0002 1.0000 -0.0012
vn 0.0013 1.0000 -0.0000
vn 0.0353 0.9992 -0.0168
vn -0.0365 0.9985 0.0415
vn 0.0381 0.9983 -0.0431
vn -0.0001 0.9984 -0.0561
vn -0.0014 1.0000 0.0003
vn -0.0321 0.9992 0.0223
vn 0.0318 0.9995 0.0012
vn -0.0195 0.9987 0.0465
vn -0.0484 0.9987 0.0179
vn 0.0027 0.9997 0.0234
vn -0.0082 0.9993 0.0377
vn 0.0013 1.0000 0.0014
vn 0.0003 1.0000 -0.0014
vn -0.0004 1.0000 0.0007
vn -0.0016 1.0000 0.0068
vn -0.0487 0.9988 0.0075
vn 0.0003 0.9988 0.0495
vn -0.0013 1.0000 0.0001
vn -0.0335 0.9994 -0.0027
vn 0.0093 0.9996 0.0260
vn 0.0166 0.9988 0.0456
vn 0.7972 -0.0039 0.6037
vn 0.8372 -0.0247 0.5464
vn 0.3908 -0.0242 0.9202
vn 0.3492 -0.0141 0.9369
vn -0.6208 -0.0256 0.7836
vn -0.5425 0.0011 0.8401
vn -0.9117 -0.0162 0.4105
vn -0.9116 -0.0161 0.4107
vn -0.9998 0.0203 -0.0003
vn -0.9998 0.0207 -0.0008
vn 0.0121 0.0286 -0.9995
vn -0.0045 0.0215 -0.9998
vn 0.3399 0.0257 -0.9401
vn 0.4087 0.0136 -0.9126
vn 0.6902 0.0392 -0.7226
vn 0.8504 -0.0020 -0.5261
vn 0.9351 0.0326 -0.3528
vn 0.9997 0.0226 0.0009
vn 0.9998 0.0205 0.0057
vn -0.0000 0.0209 0.9998
vn -0.0006 0.0214 0.9998
vn 0.0069 1.0000 0.0006
vn -0.0000 1.0000 0.0036
vn -0.0025 1.0000 -0.0009
vn -0.0030 1.0000 0.0001
vn -0.0000 0.0214 0.9998
vn -0.0001 0.0215 0.9998
vn -0.9997 0.0225 0.0020
vn -0.9998 0.0203 0.0071
vn -0.8812 0.0364 -0.4713
vn -0.9005 0.0235 -0.4342
vn -0.3985 0.0267 -0.9168
vn -0.4344 0.0165 -0.9006
vn 0.0019 0.0210 -0.9998
vn 0.0031 0.0205 -0.9998
vn 0.9998 0.0207 -0.0001
vn 0.9998 0.0201 0.0006
vn 0.0001 1.0000 0.0053
vn 0.0054 1.0000 0.0001
vn -0.0104 0.9999 0.0001
vn 0.0002 0.9999 -0.0104
vn 0.6565 0.0331 -0.7536
vn 0.6075 0.0119 -0.7942
vn 0.9990 0.0161 -0.0423
vn 0.9987 0.0190 -0.0472
vn 0.0045 0.0215 0.9998
vn -0.0121 0.0286 0.9995
vn -0.3397 0.0257 0.9402
vn -0.4085 0.0136 0.9127
vn -0.6902 0.0393 0.7226
vn -0.8505 -0.0020 0.5259
vn -0.9351 0.0326 0.3528
vn -0.9998 0.0206 -0.0058
vn -0.9997 0.0226 -0.0010
vn 0.0238 0.0259 -0.9994
vn 0.0141 0.0210 -0.9997
vn 0.0031 1.0000 0.0026
vn 0.0019 1.0000 0.0018
vn 0.0005 1.0000 -0.0012
vn -0.0055 1.0000 -0.0049
vn -0.9140 0.0441 -0.4033
vn -0.5443 0.0385 -0.8380
vn -0.7085 -0.0073 -0.7057
vn -0.0297 0.0202 -0.9994
vn -0.0158 0.0124 -0.9998
vn 0.9998 0.0209 -0.0045
vn 0.9995 0.0286 0.0135
vn 0.9401 0.0257 0.3399
vn 0.9127 0.0136 0.4085
vn 0.7226 0.0393 0.6902
vn 0.5259 -0.0020 0.8505
vn 0.3529 0.0326 0.9351
vn -0.0021 0.0226 0.9997
vn -0.0057 0.0210 0.9998
vn -1.0000 0.0075 -0.0061
vn -0.9994 0.0202 -0.0289
vn 0.0013 1.0000 -0.0028
vn 0.0015 1.0000 -0.0031
vn -0.0049 1.0000 0.0055
vn -0.0008 1.0000 0.0020
vn -0.0075 0.9999 0.0111
vn 0.0107 0.9999 -0.0062
vn 0.0023 1.0000 0.0066
vn 0.0080 1.0000 0.0032
vn -0.0021 0.9999 -0.0130
vn 0.0083 1.0000 0.0035
vn -0.0050 0.9999 -0.0120
vn 0.0031 1.0000 0.0074
vn 0.0108 0.9999 -0.0117
vn -0.0152 0.9999 0.0065
vn 0.0115 0.9999 -0.0069
vn 0.0218 0.9997 -0.0132
vn 0.0049 0.9999 -0.0094
vn -0.0040 0.9999 -0.0106
vn 0.0113 0.9994 -0.0327
vn -0.0092 0.9998 0.0160
vn -0.0349 0.9994 -0.0047
vn 0.0182 0.9998 0.0003
vn 0.0004 0.9999 -0.0137
vn 0.9743 0.0273 0.2234
vn 0.9558 0.1073 0.2738
vn 0.3331 -0.0975 -0.9378
vn 0.5196 -0.0181 0.8542
vn 0.6077 0.1577 -0.7783
vn 0.4544 0.0875 0.8865
vn 0.9131 -0.0274 -0.4069
vn 0.8992 0.0217 -0.4369
vn -0.7316 0.1390 0.6674
vn 0.0204 -0.0785 -0.9967
vn -0.7062 0.0908 0.7021
vn -0.3489 0.1380 -0.9270
vn -0.1099 -0.0325 0.9934
vn -0.6971 -0.0761 -0.7129
vn -0.9202 0.2171 -0.3257
vn -0.9950 -0.0954 0.0281
vn -0.9590 0.0821 -0.2711
vn -0.9707 -0.0203 0.2394
vn -0.3562 0.0258 0.9340
vn -0.2114 0.0631 0.9754
vn -0.5970 -0.0208 -0.8020
vn 0.2476 0.9675 0.0521
vn -0.2216 0.9521 0.2108
vn 0.0022 0.9819 0.1895
vn 0.0362 0.9949 -0.0946
vn -0.0397 0.9978 -0.0532
vn 0.1493 0.9881 -0.0380
vn 0.0574 0.9980 -0.0264
vn 0.0395 0.9943 -0.0994
vn 0.0677 0.9944 0.0811
vn 0.0516 0.9963 0.0692
vn -0.5419 0.8174 -0.1955
vn -0.0532 0.9883 -0.1429
vn -0.0429 0.9990 0.0118
vn -0.0304 0.9967 0.0753
vn 0.0003 1.0000 -0.0002
vn -0.0003 1.0000 0.0001
vn -0.0065 -0.8175 0.5759
vn -0.0084 -0.8199 0.5724
vn -0.0077 -0.8197 -0.5727
vn -0.0065 -0.8181 -0.5750
vn 0.0076 -0.8186 -0.5743
vn 0.0071 -0.8178 -0.5754
vn 0.0071 -0.8173 0.5761
vn 0.0081 -0.8188 0.5740
vt 0.150000 0.300000
vt 0.350000 0.300000
vt 0.350000 0.700000
s off
usemtl material_0
f 27/1/1 28/2/1 29/3/1
f 28/1/2 30/2/2 29/3/2
f 30/1/3 17/2/3 29/3/3
f 29/1/4 17/2/4 101/3/4
f 15/1/5 28/2/5 27/3/5
f 14/1/6 128/2/6 13/3/6
f 128/1/7 129/2/7 13/3/7
f 99/1/8 97/2/8 12/3/8
f 13/1/9 129/2/9 11/3/9
f 12/1/10 97/2/10 10/3/10
f 97/1/11 95/2/11 10/3/11
f 10/1/12 95/2/12 14/3/12
f 95/1/13 128/2/13 14/3/13
f 19/1/14 24/2/14 130/3/14
f 19/1/15 130/2/15 96/3/15
f 22/1/16 2/2/16 131/3/16
f 22/1/17 21/2/17 2/3/17
f 20/1/18 19/2/18 96/3/18
f 20/1/19 96/2/19 31/3/19
f 23/1/20 20/2/20 31/3/20
f 23/1/21 31/2/21 5/3/21
f 24/1/22 22/2/22 131/3/22
f 24/1/23 131/2/23 130/3/23
f 41/1/24 32/2/24 42/3/24
f 41/1/25 62/2/25 32/3/25
f 63/1/26 62/2/26 41/3/26
f 33/1/27 63/2/27 41/3/27
f 106/1/28 34/2/28 47/3/28
f 106/1/29 47/2/29 46/3/29
f 48/1/30 35/2/30 49/3/30
f 48/1/31 49/2/31 103/3/31
f 48/1/32 103/2/32 36/3/32
f 48/1/33 36/2/33 37/3/33
f 38/1/34 39/2/34 40/3/34
f 38/1/35 40/2/35 104/3/35
f 133/1/36 63/2/36 33/3/36
f 133/1/37 53/2/37 63/3/37
f 26/1/38 53/2/38 133/3/38
f 34/1/39 26/2/39 133/3/39
f 106/1/40 26/2/40 34/3/40
f 132/1/41 37/2/41 36/3/41
f 105/1/42 132/2/42 36/3/42
f 25/1/43 40/2/43 132/3/43
f 25/1/44 104/2/44 40/3/44
f 25/1/45 132/2/45 105/3/45
f 41/1/46 42/2/46 43/3/46
f 44/1/47 41/2/47 43/3/47
f 45/1/48 46/2/48 47/3/48
f 45/1/49 47/2/49 44/3/49
f 48/1/50 44/2/50 43/3/50
f 48/1/51 43/2/51 35/3/51
f 45/1/52 44/2/52 39/3/52
f 38/1/53 45/2/53 39/3/53
f 25/1/54 38/2/54 104/3/54
f 45/1/55 38/2/55 25/3/55
f 26/1/56 46/2/56 45/3/56
f 26/1/57 106/2/57 46/3/57
f 26/1/58 45/2/58 25/3/58
f 43/1/59 59/2/59 107/3/59
f 43/1/60 107/2/60 49/3/60
f 43/1/61 49/2/61 35/3/61
f 32/1/62 43/2/62 42/3/62
f 32/1/63 59/2/63 43/3/63
f 19/1/64 72/2/64 71/3/64
f 19/1/65 20/2/65 72/3/65
f 53/1/66 64/2/66 126/3/66
f 127/1/67 112/2/67 21/3/67
f 107/1/68 78/2/68 51/3/68
f 115/1/69 26/2/69 118/3/69
f 107/1/70 76/2/70 78/3/70
f 64/1/71 26/2/71 115/3/71
f 53/1/72 26/2/72 64/3/72
f 26/1/73 25/2/73 118/3/73
f 118/1/74 25/2/74 111/3/74
f 74/1/75 25/2/75 109/3/75
f 109/1/76 25/2/76 105/3/76
f 51/1/77 78/2/77 105/3/77
f 127/1/78 52/2/78 112/3/78
f 50/1/79 85/2/79 87/3/79
f 78/1/80 79/2/80 105/3/80
f 107/1/81 122/2/81 76/3/81
f 50/1/82 53/2/82 85/3/82
f 23/1/83 72/2/83 20/3/83
f 52/1/84 54/2/84 112/3/84
f 23/1/85 55/2/85 72/3/85
f 112/1/86 54/2/86 56/3/86
f 107/1/87 89/2/87 122/3/87
f 79/1/88 109/2/88 105/3/88
f 54/1/89 117/2/89 56/3/89
f 23/1/90 57/2/90 55/3/90
f 113/1/91 58/2/91 23/3/91
f 23/1/92 58/2/92 57/3/92
f 117/1/93 119/2/93 56/3/93
f 107/1/94 59/2/94 89/3/94
f 89/1/95 60/2/95 122/3/95
f 79/1/96 121/2/96 109/3/96
f 56/1/97 119/2/97 113/3/97
f 61/1/98 22/2/98 123/3/98
f 113/1/99 119/2/99 58/3/99
f 74/1/100 111/2/100 25/3/100
f 54/1/101 126/2/101 117/3/101
f 22/1/102 24/2/102 123/3/102
f 53/1/103 126/2/103 85/3/103
f 60/1/104 22/2/104 61/3/104
f 123/1/105 24/2/105 121/3/105
f 59/1/106 87/2/106 89/3/106
f 60/1/107 21/2/107 22/3/107
f 57/1/108 118/2/108 55/3/108
f 89/1/109 125/2/109 60/3/109
f 55/1/110 118/2/110 111/3/110
f 121/1/111 71/2/111 109/3/111
f 121/1/112 24/2/112 71/3/112
f 125/1/113 21/2/113 60/3/113
f 126/1/114 64/2/114 117/3/114
f 24/1/115 19/2/115 71/3/115
f 50/1/116 87/2/116 59/3/116
f 127/1/117 21/2/117 125/3/117
f 53/1/118 50/2/118 62/3/118
f 53/1/119 62/2/119 63/3/119
f 50/1/120 32/2/120 62/3/120
f 50/1/121 59/2/121 32/3/121
f 51/1/122 103/2/122 49/3/122
f 107/1/123 51/2/123 49/3/123
f 105/1/124 36/2/124 103/3/124
f 51/1/125 105/2/125 103/3/125
f 64/1/126 114/2/126 65/3/126
f 115/1/127 114/2/127 64/3/127
f 117/1/128 65/2/128 66/3/128
f 64/1/129 65/2/129 117/3/129
f 67/1/130 57/2/130 58/3/130
f 68/1/131 67/2/131 58/3/131
f 68/1/132 58/2/132 119/3/132
f 66/1/133 68/2/133 119/3/133
f 66/1/134 119/2/134 117/3/134
f 116/1/135 57/2/135 67/3/135
f 116/1/136 118/2/136 57/3/136
f 114/1/137 115/2/137 116/3/137
f 116/1/138 115/2/138 118/3/138
f 68/1/139 116/2/139 67/3/139
f 114/1/140 116/2/140 68/3/140
f 65/1/141 68/2/141 66/3/141
f 65/1/142 114/2/142 68/3/142
f 110/1/143 111/2/143 74/3/143
f 69/1/144 111/2/144 110/3/144
f 55/1/145 69/2/145 75/3/145
f 111/1/146 69/2/146 55/3/146
f 73/1/147 71/2/147 72/3/147
f 73/1/148 70/2/148 71/3/148
f 75/1/149 72/2/149 55/3/149
f 75/1/150 73/2/150 72/3/150
f 71/1/151 108/2/151 109/3/151
f 71/1/152 70/2/152 108/3/152
f 110/1/153 109/2/153 108/3/153
f 110/1/154 74/2/154 109/3/154
f 73/1/155 69/2/155 110/3/155
f 73/1/156 110/2/156 108/3/156
f 75/1/157 69/2/157 73/3/157
f 70/1/158 73/2/158 108/3/158
f 77/1/159 78/2/159 84/3/159
f 78/1/160 76/2/160 84/3/160
f 120/1/161 78/2/161 77/3/161
f 120/1/162 79/2/162 78/3/162
f 120/1/163 121/2/163 79/3/163
f 80/1/164 121/2/164 120/3/164
f 81/1/165 60/2/165 61/3/165
f 82/1/166 81/2/166 61/3/166
f 82/1/167 61/2/167 123/3/167
f 80/1/168 82/2/168 123/3/168
f 80/1/169 123/2/169 121/3/169
f 60/1/170 83/2/170 122/3/170
f 60/1/171 81/2/171 83/3/171
f 76/1/172 83/2/172 84/3/172
f 122/1/173 83/2/173 76/3/173
f 80/1/174 120/2/174 77/3/174
f 82/1/175 80/2/175 77/3/175
f 84/1/176 82/2/176 77/3/176
f 84/1/177 81/2/177 82/3/177
f 83/1/141 81/2/141 84/3/141
f 94/1/178 85/2/178 93/3/178
f 86/1/179 87/2/179 94/3/179
f 87/1/180 85/2/180 94/3/180
f 87/1/181 88/2/181 89/3/181
f 87/1/182 86/2/182 88/3/182
f 88/1/183 125/2/183 89/3/183
f 90/1/184 125/2/184 88/3/184
f 91/1/185 54/2/185 52/3/185
f 92/1/186 91/2/186 52/3/186
f 92/1/187 52/2/187 127/3/187
f 90/1/188 92/2/188 127/3/188
f 90/1/189 127/2/189 125/3/189
f 124/1/190 54/2/190 91/3/190
f 124/1/191 126/2/191 54/3/191
f 85/1/192 124/2/192 93/3/192
f 126/1/193 124/2/193 85/3/193
f 86/1/194 92/2/194 90/3/194
f 86/1/195 90/2/195 88/3/195
f 93/1/196 91/2/196 92/3/196
f 93/1/197 124/2/197 91/3/197
f 94/1/198 93/2/198 92/3/198
f 94/1/199 92/2/199 86/3/199
f 97/1/200 96/2/200 95/3/200
f 95/1/201 96/2/201 130/3/201
f 97/1/202 31/2/202 96/3/202
f 128/1/203 95/2/203 130/3/203
f 97/1/204 5/2/204 31/3/204
f 9/1/205 5/2/205 97/3/205
f 128/1/206 130/2/206 131/3/206
f 6/1/207 5/2/207 9/3/207
f 4/1/208 5/2/208 6/3/208
f 129/1/209 128/2/209 131/3/209
f 1/1/210 4/2/210 6/3/210
f 2/1/211 7/2/211 129/3/211
f 2/1/212 129/2/212 131/3/212
f 1/1/213 6/2/213 8/3/213
f 3/1/214 1/2/214 8/3/214
f 2/1/215 8/2/215 7/3/215
f 3/1/216 8/2/216 2/3/216
f 112/1/217 56/2/217 1/3/217
f 112/1/218 1/2/218 3/3/218
f 113/1/219 23/2/219 5/3/219
f 21/1/220 112/2/220 3/3/220
f 113/1/221 5/2/221 4/3/221
f 21/1/222 3/2/222 2/3/222
f 113/1/223 4/2/223 1/3/223
f 56/1/224 113/2/224 1/3/224
f 98/1/225 6/2/225 99/3/225
f 129/1/226 7/2/226 11/3/226
f 6/1/227 9/2/227 99/3/227
f 11/1/228 7/2/228 100/3/228
f 9/1/229 97/2/229 99/3/229
f 7/1/230 8/2/230 100/3/230
f 100/1/231 8/2/231 98/3/231
f 8/1/232 6/2/232 98/3/232
f 101/1/233 18/2/233 102/3/233
f 18/1/234 16/2/234 102/3/234
f 16/1/235 15/2/235 102/3/235
f 102/1/236 15/2/236 27/3/236
f 17/1/237 18/2/237 101/3/237
f 28/1/238 10/2/238 14/3/238
f 16/1/239 98/2/239 99/3/239
f 15/1/240 99/2/240 12/3/240
f 11/1/241 30/2/241 13/3/241
f 100/1/242 18/2/242 17/3/242
f 30/1/243 28/2/243 13/3/243
f 13/1/244 28/2/244 14/3/244
f 11/1/245 17/2/245 30/3/245
f 28/1/246 12/2/246 10/3/246
f 28/1/247 15/2/247 12/3/247
f 100/1/248 98/2/248 18/3/248
f 11/1/249 100/2/249 17/3/249
f 18/1/250 98/2/250 16/3/250
f 16/1/251 99/2/251 15/3/251
f 101/1/252 102/2/252 27/3/252
f 101/1/253 27/2/253 29/3/253
f 39/1/254 44/2/254 132/3/254
f 39/1/255 132/2/255 40/3/255
f 48/1/256 37/2/256 132/3/256
f 44/1/257 48/2/257 132/3/257
f 133/1/258 33/2/258 41/3/258
f 133/1/259 41/2/259 44/3/259
f 133/1/260 44/2/260 47/3/260
f 34/1/261 133/2/261 47/3/261
o node1
v -0.000900 0.009423 0.048367
v -0.003461 0.009426 0.045455
v 0.003367 0.009420 0.045796
v 0.002354 0.009420 0.047536
v 0.001210 0.009422 0.048205
v -0.002569 0.009414 0.047296
v -0.010405 0.018387 0.003964
v 0.010303 0.019675 0.004000
v -0.010307 0.019704 0.004000
v -0.010328 0.017411 0.006312
v 0.010338 0.017411 0.006348
v -0.010350 0.002563 0.001800
v -0.010464 0.008072 0.001741
v -0.010366 0.002524 0.000133
v -0.010338 0.008029 0.003838
v -0.010498 0.010668 0.003808
v -0.010375 0.011577 0.017773
v -0.010379 0.012792 0.018852
v -0.010402 0.017414 0.004770
v -0.010333 0.016215 0.018827
v -0.010501 0.017036 0.017714
v -0.010464 0.020754 0.001741
v -0.010256 0.020798 0.003920
v -0.010391 0.026304 0.000164
v -0.010350 0.026263 0.001800
v -0.005033 0.005965 0.003875
v 0.006784 0.007870 0.003922
v 0.010339 0.008029 0.003838
v -0.006688 0.007826 0.003913
v -0.004875 0.002588 0.003875
v 0.004875 0.002538 0.003825
v 0.004882 0.006314 0.003998
v 0.010350 0.002563 0.001800
v 0.004862 0.002482 0.001761
v 0.010378 0.002535 0.000153
v -0.004861 0.002482 0.001761
v 0.010389 0.026280 0.000133
v 0.004901 0.026345 0.001761
v 0.010350 0.026263 0.001800
v -0.004838 0.026298 0.003838
v 0.004839 0.026252 0.003885
v -0.004913 0.026315 0.001779
v -0.004740 0.023087 0.003992
v 0.004737 0.023113 0.003990
v 0.010398 0.011407 0.004752
v -0.010403 0.011445 0.004799
v 0.010383 0.012612 0.018800
v 0.010269 0.020763 0.003932
v 0.010459 0.020803 0.001745
v 0.010465 0.008072 0.001741
v 0.010498 0.010654 0.003799
v 0.010409 0.011617 0.017719
v 0.010499 0.017232 0.004730
v 0.010328 0.016056 0.018873
v 0.010402 0.018212 0.003998
v 0.010502 0.017036 0.017714
v 0.007073 0.021006 0.001900
v 0.005207 0.022541 0.001900
v 0.005031 0.023349 0.003701
v 0.005556 0.022134 0.003700
v 0.006974 0.021021 0.003699
v 0.005151 0.006139 0.001900
v 0.006993 0.007813 0.001900
v 0.005121 0.005962 0.003694
v -0.005206 0.022541 0.001900
v -0.007105 0.020991 0.001900
v -0.006963 0.021030 0.003689
v -0.005556 0.022134 0.003700
v -0.005031 0.023340 0.003703
v -0.005051 0.005645 0.001900
v -0.005778 0.006963 0.001900
v -0.007155 0.007844 0.001900
v 0.010213 0.010281 0.004018
v -0.010210 0.010258 0.004015
v 0.010206 0.017442 0.005110
v 0.010198 0.017334 0.017770
v -0.010194 0.017350 0.017681
v -0.006566 0.020819 0.003997
v 0.006603 0.020795 0.003997
v -0.010293 0.023166 0.004009
v -0.010389 0.025220 0.019188
v 0.010400 0.025253 0.019037
v -0.008802 0.015652 0.035926
v 0.008804 0.015668 0.035909
v -0.008749 0.014412 0.036005
v 0.008747 0.014412 0.036004
v -0.005330 0.014302 0.053810
v -0.007802 0.014238 0.052291
v 0.006547 0.014291 0.053246
v 0.004800 0.014331 0.053832
v 0.008538 0.014414 0.050534
v -0.008657 0.014413 0.049832
v -0.007084 0.009504 0.052821
v -0.008779 0.009461 0.050118
v -0.005468 0.009491 0.053747
v -0.008745 0.009414 0.036004
v -0.003062 0.009426 0.043491
v 0.005491 0.009412 0.053558
v 0.007738 0.009533 0.052245
v 0.008802 0.009508 0.050203
v 0.008749 0.009414 0.036005
v -0.009015 0.008044 0.035742
v 0.009010 0.008125 0.035845
v -0.010193 0.017399 0.019251
v 0.008962 0.008021 0.035579
v 0.010188 0.017393 0.019253
v -0.010362 0.025305 0.006144
v 0.010382 0.025262 0.006119
v 0.010294 0.023166 0.004009
v -0.010479 0.017678 0.019324
v -0.009055 0.015468 0.035708
v -0.009049 0.009712 0.035735
v -0.009055 0.014105 0.035728
v 0.008973 0.014113 0.049681
v 0.009050 0.009716 0.035736
v 0.009056 0.015468 0.035708
v 0.009056 0.014109 0.035727
v 0.010480 0.017678 0.019324
v -0.008395 0.009713 0.051461
v -0.008945 0.014110 0.049960
v 0.008197 0.014115 0.051853
v 0.005532 0.009717 0.053858
v -0.001954 0.009418 0.042156
v 0.003168 0.009425 0.043772
v -0.000002 0.012805 0.044994
v 0.000144 0.009433 0.041511
v 0.001943 0.009422 0.042194
v -0.009823 0.017502 0.011108
v -0.008970 0.017535 0.009498
v -0.008382 0.020413 0.008978
v -0.006987 0.020413 0.015642
v -0.007581 0.017713 0.015459
v -0.007903 0.017713 0.008742
v -0.008937 0.020413 0.014486
v -0.006166 0.017719 0.008207
v -0.006000 0.020413 0.008208
v -0.009010 0.017713 0.014274
v -0.009712 0.017718 0.012743
v -0.009829 0.020413 0.011614
v -0.008164 0.017414 0.015489
v -0.002160 0.017714 0.011790
v -0.001917 0.017415 0.012880
v -0.009805 0.017414 0.013576
v -0.002761 0.017713 0.013936
v -0.003453 0.017413 0.015198
v -0.003756 0.017713 0.015033
v -0.005419 0.017719 0.015752
v -0.005659 0.017414 0.016112
v -0.002534 0.017414 0.009761
v -0.007442 0.017414 0.008156
v -0.004800 0.017414 0.008044
v -0.004241 0.017708 0.008647
v -0.002989 0.017713 0.009726
v -0.003062 0.020413 0.014486
v -0.003617 0.020413 0.008978
v -0.005245 0.020413 0.015716
v -0.002171 0.020413 0.011614
v 0.002472 0.017538 0.010274
v 0.003618 0.020413 0.008978
v 0.005013 0.020413 0.015642
v 0.004419 0.017713 0.015459
v 0.004097 0.017713 0.008742
v 0.003063 0.020413 0.014486
v 0.005834 0.017719 0.008207
v 0.006000 0.020413 0.008208
v 0.002990 0.017713 0.014274
v 0.002158 0.017603 0.012482
v 0.002171 0.020413 0.011614
v 0.002779 0.017415 0.014644
v 0.009840 0.017714 0.011790
v 0.009967 0.017414 0.010864
v 0.009844 0.017414 0.013442
v 0.009239 0.017713 0.013936
v 0.008363 0.017594 0.015050
v 0.006581 0.017719 0.015752
v 0.005934 0.017415 0.016176
v 0.006599 0.017413 0.007966
v 0.008496 0.017414 0.008740
v 0.004167 0.017415 0.008277
v 0.007759 0.017708 0.008647
v 0.009011 0.017713 0.009726
v 0.008938 0.020413 0.014486
v 0.008383 0.020413 0.008978
v 0.006755 0.020413 0.015716
v 0.009829 0.020413 0.011614
vn -0.6173 -0.6997 -0.3596
vn -0.3576 -0.7070 -0.6101
vn -0.0556 -0.6977 -0.7142
vn 0.3884 -0.7004 -0.5988
vn 0.6413 -0.6995 -0.3154
vn -0.0000 -0.0272 0.9996
vn -0.0016 -0.0017 1.0000
vn -0.0014 1.0000 0.0021
vn -0.0000 0.9997 0.0253
vn -0.9997 -0.0207 0.0105
vn -0.9965 -0.0596 0.0588
vn -0.9995 -0.0228 0.0219
vn -0.9997 -0.0230 0.0024
vn -1.0000 0.0001 -0.0076
vn -0.9871 0.0144 0.1593
vn -0.9998 0.0116 0.0178
vn -0.9955 0.0006 0.0945
vn -0.9999 -0.0000 -0.0161
vn -0.9992 0.0112 0.0384
vn -0.9936 0.0632 0.0936
vn -0.9989 -0.0000 -0.0467
vn -0.9983 -0.0009 -0.0576
vn -0.9995 0.0205 0.0255
vn 0.0269 -0.0777 0.9966
vn -0.0001 -0.0394 0.9992
vn -0.0005 -0.0427 0.9991
vn -0.0247 -0.0776 0.9967
vn -0.0124 -0.0006 0.9999
vn 0.0049 -0.0458 0.9989
vn -0.0008 0.0499 0.9988
vn -0.0113 -0.0305 0.9995
vn 0.0146 -0.9997 0.0172
vn -0.0000 -0.9996 0.0270
vn -0.0049 -0.9987 0.0500
vn -0.0145 -0.9996 0.0235
vn 0.0006 -0.9995 -0.0309
vn -0.0000 -0.9997 -0.0257
vn 0.0150 0.9998 0.0104
vn 0.0046 0.9990 0.0443
vn -0.0031 1.0000 0.0085
vn -0.0094 0.9996 0.0253
vn 0.0011 0.9993 -0.0366
vn -0.0031 1.0000 0.0037
vn -0.0045 0.0475 0.9989
vn 0.0001 0.0335 0.9994
vn 0.0009 -0.0008 -1.0000
vn -0.0015 0.0013 -1.0000
vn 0.0020 -0.9999 0.0162
vn -0.0018 -0.9999 0.0102
vn -0.0022 0.0072 1.0000
vn 0.0023 -0.0213 0.9998
vn 0.9947 0.0542 0.0874
vn 0.9992 0.0005 -0.0412
vn 0.9986 -0.0005 -0.0528
vn 0.9996 -0.0206 0.0173
vn 0.9995 0.0196 0.0235
vn 0.9965 -0.0596 0.0587
vn 0.9999 -0.0173 -0.0005
vn 0.9999 -0.0171 -0.0006
vn 0.9991 -0.0170 0.0400
vn 0.9873 0.0123 0.1584
vn 0.9929 -0.0168 0.1178
vn 0.9937 0.0156 -0.1108
vn 0.9999 0.0005 -0.0167
vn 0.9992 0.0117 0.0387
vn 0.0452 -0.0092 0.9989
vn 0.0103 0.0126 0.9999
vn -0.0067 0.0361 0.9993
vn 0.9141 0.3957 -0.0881
vn 0.6351 0.7719 0.0286
vn 0.6167 0.7851 0.0578
vn 0.9974 0.0639 0.0319
vn 0.9948 0.0822 0.0603
vn 0.0597 0.9982 -0.0048
vn 0.0761 0.9968 0.0246
vn -0.0065 -0.0373 0.9993
vn 0.0450 0.0097 0.9989
vn 0.0110 -0.0120 0.9999
vn 0.6700 -0.7369 0.0901
vn 0.7560 -0.6526 -0.0516
vn 0.0737 -0.9972 -0.0162
vn 0.0452 -0.9984 0.0330
vn 0.9974 -0.0713 0.0097
vn 0.9969 -0.0788 -0.0044
vn -0.0465 -0.0097 0.9989
vn 0.0036 0.0318 0.9995
vn -0.0103 0.0126 0.9999
vn -0.6320 0.7742 0.0333
vn -0.6165 0.7852 0.0579
vn -0.9135 0.3972 -0.0877
vn -0.0714 0.9973 -0.0158
vn -0.0698 0.9975 -0.0132
vn -0.9973 0.0635 0.0369
vn -0.9950 0.0791 0.0611
vn 0.0064 -0.0434 0.9990
vn -0.0000 -0.0000 1.0000
vn -0.0121 -0.0116 0.9999
vn -0.0473 0.0097 0.9988
vn -0.8725 -0.4810 0.0859
vn -0.7467 -0.6630 -0.0535
vn -0.5349 -0.8368 0.1167
vn -0.9988 -0.0469 0.0167
vn -0.9982 -0.0598 -0.0034
vn -0.0681 -0.9975 -0.0166
vn -0.0556 -0.9984 0.0040
vn 0.0009 -0.5466 0.8374
vn 0.0005 -0.5510 0.8345
vn 0.0041 0.6375 0.7704
vn -0.0105 0.8229 0.5681
vn -0.0025 0.7107 0.7035
vn 0.0033 0.6536 0.7568
vn -0.0039 -0.6640 0.7477
vn 0.0032 -0.7358 0.6771
vn -0.0167 0.8152 0.5790
vn -0.3737 0.4680 0.8008
vn -0.7725 0.6222 0.1272
vn -0.5668 0.2445 0.7867
vn -0.6982 0.0129 0.7158
vn -0.9592 0.0643 0.2754
vn -0.7147 0.6993 0.0122
vn -0.4389 0.8983 0.0229
vn -0.5722 0.6165 0.5409
vn 0.7010 0.0011 0.7132
vn 0.5716 0.2472 0.7824
vn 0.7760 0.6251 0.0842
vn 0.3657 0.4646 0.8065
vn 0.0179 0.7870 0.6167
vn -0.8352 -0.3911 0.3865
vn 0.8709 0.0580 0.4880
vn -0.6090 -0.0278 0.7927
vn 0.8206 0.3921 0.4157
vn 0.5498 0.8344 -0.0372
vn 0.7022 0.7118 0.0133
vn 0.7825 0.6226 0.0092
vn 0.6340 0.5412 0.5524
vn 0.8253 -0.3976 0.4011
vn 0.6291 -0.0265 0.7769
vn 0.7685 -0.0307 0.6391
vn 0.3894 -0.4363 0.8111
vn -0.0031 -0.0001 -1.0000
vn 0.0207 0.0378 -0.9991
vn -0.0003 0.8681 0.4963
vn 0.0022 0.8694 0.4941
vn 0.0008 0.0753 0.9972
vn -0.0000 0.0637 0.9980
vn -0.0873 0.9911 0.1008
vn -0.0030 0.9995 0.0305
vn -0.0010 0.9997 0.0240
vn -0.0000 1.0000 -0.0002
vn -0.0000 1.0000 -0.0001
vn 0.0508 0.9953 0.0826
vn -0.0021 0.0053 1.0000
vn -0.0098 -0.0128 0.9999
vn -0.0003 -0.9999 0.0161
vn -0.0120 -0.9999 0.0065
vn -0.0016 -0.9999 0.0112
vn -0.0086 -1.0000 -0.0022
vn -0.0071 -1.0000 0.0066
vn -0.0037 -1.0000 0.0033
vn 0.0019 -1.0000 0.0002
vn -0.0008 -1.0000 -0.0011
vn -0.0017 -1.0000 -0.0004
vn -0.0030 -1.0000 0.0039
vn 0.0407 -0.9989 -0.0225
vn 0.0071 -0.9998 0.0159
vn 0.0056 -1.0000 -0.0056
vn 0.0111 -0.9999 0.0064
vn -0.0047 -1.0000 -0.0019
vn 0.0002 -1.0000 0.0016
vn 0.0109 -0.9999 0.0066
vn -0.0046 -1.0000 -0.0037
vn -0.0000 -1.0000 0.0035
vn -0.0000 -0.1230 0.9924
vn -0.0048 -0.1872 0.9823
vn -0.0056 -0.8699 -0.4931
vn -0.0002 -0.8673 -0.4979
vn -0.0009 -0.9995 0.0313
vn -0.0003 -0.9992 0.0394
vn 0.9928 -0.1196 0.0113
vn -0.9564 -0.2919 0.0098
vn -0.0015 1.0000 0.0065
vn 0.0021 1.0000 0.0006
vn -0.0175 0.0323 -0.9993
vn 0.0034 -0.0003 -1.0000
vn 1.0000 -0.0057 -0.0015
vn 0.9999 0.0100 -0.0112
vn 0.9990 0.0027 -0.0444
vn 0.9998 -0.0062 -0.0209
vn -1.0000 -0.0043 -0.0021
vn -0.9999 0.0117 -0.0118
vn -0.9993 0.0041 -0.0363
vn -0.9999 -0.0045 -0.0138
vn -0.9960 0.0135 0.0884
vn -0.9963 -0.0050 0.0859
vn 0.1563 -0.0012 -0.9877
vn -0.8825 -0.0069 -0.4702
vn -0.9992 -0.0351 0.0181
vn -1.0000 -0.0014 0.0077
vn 1.0000 -0.0014 0.0060
vn 0.9992 -0.0352 0.0166
vn 0.9862 -0.0360 -0.1616
vn 0.9268 -0.0052 -0.3755
vn 0.8828 -0.0022 -0.4697
vn 0.9960 0.0138 0.0884
vn 0.9963 -0.0140 0.0847
vn -0.0010 -0.7099 -0.7043
vn 0.0012 -0.7198 -0.6942
vn -0.0043 0.7094 -0.7048
vn -0.0020 0.6938 -0.7201
vn 0.0006 0.7030 -0.7112
vn 0.0078 0.7066 -0.7076
vn -0.5237 0.0038 0.8519
vn -0.4968 0.0219 0.8676
vn -0.7222 -0.0321 0.6909
vn -0.8979 0.0372 0.4385
vn -0.9598 -0.0248 0.2795
vn 0.9417 0.0032 0.3365
vn 0.8855 -0.0492 0.4621
vn 0.6451 0.0007 0.7641
vn 0.5888 -0.0226 0.8080
vn 0.3185 0.0559 0.9463
vn 0.6455 0.0361 0.7629
vn 0.7021 -0.6390 -0.3141
vn 0.7093 -0.7049 0.0020
vn 0.4014 -0.6693 0.6252
vn 0.0073 -0.7019 0.7123
vn -0.4307 -0.8567 0.2837
vn 0.6988 -0.7153 0.0071
vn -0.6998 -0.7143 0.0007
vn 0.9143 0.0034 -0.4050
vn -0.6694 -0.0104 0.7428
vn -0.7016 -0.6401 -0.3131
vn 0.7415 0.5508 0.3831
vn -0.6961 -0.7179 0.0067
vn 0.6727 0.0104 0.7398
vn 0.6373 0.0292 0.7700
vn -0.8729 0.0047 -0.4879
vn 0.5791 0.8152 0.0082
vn 0.7010 0.7131 0.0039
vn 0.8712 0.3798 0.3110
vn 0.3404 0.8942 0.2906
vn -0.6369 0.7211 0.2727
vn -0.7100 0.7042 0.0047
vn -0.7233 0.6905 0.0053
vn -0.7359 0.5554 0.3873
vn -0.6753 0.0110 0.7374
vn -0.6596 0.0194 0.7513
vn -0.7152 -0.6956 0.0688
vn -0.5688 -0.6933 0.4424
vn 0.7013 -0.6985 0.1423
vn 0.5474 -0.6999 0.4589
vn 0.2154 -0.6971 0.6839
vn -0.2573 -0.6997 0.6665
vn 0.0021 -0.9315 0.3638
vn 0.8815 -0.0793 0.4655
vn 0.8730 -0.0918 0.4790
vn 0.0429 -0.0160 -0.9990
vn 0.1344 0.0376 -0.9902
vn 0.5741 0.0306 0.8182
vn 0.5090 -0.0537 -0.8591
vn 0.3076 -0.0193 0.9513
vn 0.2946 -0.0310 0.9551
vn 0.6375 0.0432 -0.7692
vn 0.9089 0.0081 -0.4170
vn 0.9517 -0.0828 -0.2955
vn 0.9975 0.0139 -0.0694
vn 0.3854 -0.7972 -0.4647
vn 0.6791 -0.4461 -0.5829
vn -0.4735 -0.8707 -0.1332
vn 0.5196 -0.8197 -0.2411
vn -0.4938 -0.7455 -0.4476
vn -0.7730 -0.3741 -0.5124
vn 0.9405 -0.3393 -0.0190
vn -0.2958 -0.6722 -0.6787
vn -0.3007 -0.6192 -0.7254
vn 0.0851 -0.7874 -0.6106
vn 0.2100 -0.4943 -0.8435
vn -0.0003 1.0000 0.0002
vn -0.0000 1.0000 0.0001
vn 0.0002 1.0000 -0.0001
vn -0.0015 1.0000 -0.0001
vn -0.0418 0.9985 0.0360
vn -0.0057 0.9997 0.0223
vn -0.0023 0.9998 0.0195
vn 0.0665 0.9977 -0.0149
vn -0.4831 -0.6704 0.5632
vn -0.5432 -0.4369 0.7170
vn -0.5466 -0.8079 0.2202
vn -0.9770 -0.0903 0.1932
vn 0.5603 -0.4717 0.6809
vn 0.1733 -0.8155 0.5522
vn 0.0399 -0.3244 0.9451
vn -0.1252 -0.8410 0.5263
vn -0.9616 -0.0523 -0.2694
vn -0.7397 0.0542 -0.6707
vn -0.3073 -0.0455 0.9505
vn -0.2228 0.0134 0.9748
vn -0.4904 -0.0503 -0.8700
vn -0.3967 0.0135 -0.9179
vn -0.6520 0.0578 0.7560
vn -0.8745 -0.0705 0.4798
vn -0.9278 0.0207 0.3726
vn -0.9548 -0.0230 -0.2965
vn -0.0000 -1.0000 -0.0000
vn 0.8691 -0.1314 0.4768
vn 0.6814 0.0573 0.7297
vn 0.9068 0.0085 -0.4214
vn 0.9506 -0.0956 -0.2952
vn 0.9895 0.0384 0.1395
vn 0.3697 -0.8153 -0.4458
vn -0.9627 -0.2666 -0.0459
vn -0.5336 -0.8323 -0.1500
vn 0.6228 -0.7435 -0.2434
vn -0.6888 -0.4257 -0.5868
vn -0.3595 -0.4061 -0.8401
vn 0.0713 -0.8588 -0.5072
vn 0.4362 0.0548 -0.8982
vn -0.0003 1.0000 0.0001
vn 0.0003 1.0000 -0.0001
vn -0.2044 0.9340 -0.2929
vn 0.0970 0.9951 0.0212
vn 0.0007 1.0000 0.0002
vn -0.0001 1.0000 -0.0002
vn 0.2618 0.9651 0.0088
vn -0.3163 -0.5461 0.7757
vn -0.3803 -0.8111 0.4445
vn -0.7461 -0.4199 0.5168
vn -0.5038 -0.8396 0.2030
vn 0.5497 -0.6635 0.5075
vn 0.1725 -0.8175 0.5495
vn 0.1149 -0.4207 0.8999
vn -0.1377 -0.8015 0.5819
vn -0.7877 0.0375 -0.6150
vn -0.4897 -0.0740 -0.8688
vn -0.3658 0.0113 -0.9306
vt 0.650000 0.300000
vt 0.850000 0.300000
vt 0.850000 0.700000
usemtl material_0
f 137/4/262 258/5/262 136/6/262
f 138/4/263 258/5/263 137/6/263
f 138/4/264 134/5/264 258/6/264
f 134/4/265 139/5/265 258/6/265
f 135/4/266 258/5/266 139/6/266
f 140/4/267 141/5/267 142/6/267
f 140/4/268 188/5/268 141/6/268
f 143/4/269 208/5/269 152/6/269
f 143/4/270 144/5/270 208/6/270
f 145/4/271 146/5/271 147/6/271
f 148/4/272 149/5/272 146/6/272
f 151/4/273 154/5/273 150/6/273
f 150/4/274 154/5/274 179/6/274
f 179/4/275 154/5/275 152/6/275
f 151/4/276 153/5/276 154/6/276
f 152/4/277 140/5/277 149/6/277
f 179/4/278 152/5/278 149/6/278
f 149/4/279 155/5/279 146/6/279
f 140/4/280 155/5/280 149/6/280
f 140/4/281 156/5/281 155/6/281
f 155/4/282 157/5/282 146/6/282
f 146/4/283 157/5/283 147/6/283
f 155/4/284 158/5/284 157/6/284
f 206/4/285 160/5/285 161/6/285
f 206/4/286 207/5/286 160/6/286
f 160/4/287 207/5/287 162/6/287
f 207/4/288 148/5/288 162/6/288
f 159/4/289 163/5/289 165/6/289
f 165/4/290 163/5/290 164/6/290
f 160/4/291 162/5/291 165/6/291
f 162/4/292 159/5/292 165/6/292
f 166/4/293 167/5/293 168/6/293
f 164/4/294 169/5/294 167/6/294
f 163/4/295 169/5/295 164/6/295
f 145/4/296 147/5/296 169/6/296
f 147/4/297 168/5/297 167/6/297
f 147/4/298 167/5/298 169/6/298
f 170/4/299 171/5/299 172/6/299
f 171/4/300 173/5/300 174/6/300
f 175/4/301 173/5/301 171/6/301
f 157/4/302 158/5/302 175/6/302
f 170/4/303 157/5/303 171/6/303
f 171/4/304 157/5/304 175/6/304
f 176/4/305 174/5/305 173/6/305
f 176/4/306 177/5/306 174/6/306
f 147/4/307 170/5/307 168/6/307
f 147/4/308 157/5/308 170/6/308
f 185/4/309 150/5/309 178/6/309
f 150/4/310 179/5/310 178/6/310
f 153/4/311 151/5/311 187/6/311
f 187/4/312 151/5/312 180/6/312
f 181/4/313 188/5/313 182/6/313
f 170/4/314 182/5/314 183/6/314
f 170/4/315 183/5/315 168/6/315
f 183/4/316 166/5/316 168/6/316
f 172/4/317 182/5/317 170/6/317
f 184/4/318 161/5/318 183/6/318
f 189/4/319 178/5/319 186/6/319
f 189/4/320 185/5/320 178/6/320
f 189/4/321 180/5/321 185/6/321
f 187/4/322 180/5/322 189/6/322
f 186/4/323 178/5/323 184/6/323
f 188/4/324 186/5/324 184/6/324
f 182/4/325 184/5/325 183/6/325
f 182/4/326 188/5/326 184/6/326
f 172/4/327 190/5/327 182/6/327
f 191/4/328 190/5/328 172/6/328
f 171/4/329 191/5/329 172/6/329
f 192/4/330 193/5/330 191/6/330
f 191/4/331 194/5/331 190/6/331
f 193/4/332 194/5/332 191/6/332
f 174/4/333 192/5/333 171/6/333
f 171/4/334 192/5/334 191/6/334
f 194/4/335 182/5/335 190/6/335
f 194/4/336 181/5/336 182/6/336
f 195/4/337 167/5/337 166/6/337
f 196/4/338 166/5/338 183/6/338
f 196/4/339 195/5/339 166/6/339
f 196/4/340 160/5/340 195/6/340
f 160/4/341 197/5/341 195/6/341
f 161/4/342 196/5/342 183/6/342
f 161/4/343 160/5/343 196/6/343
f 197/4/344 164/5/344 195/6/344
f 195/4/345 164/5/345 167/6/345
f 158/4/346 155/5/346 199/6/346
f 158/4/347 198/5/347 175/6/347
f 158/4/348 199/5/348 198/6/348
f 199/4/349 200/5/349 198/6/349
f 200/4/350 201/5/350 198/6/350
f 201/4/351 202/5/351 198/6/351
f 156/4/352 200/5/352 199/6/352
f 156/4/353 199/5/353 155/6/353
f 202/4/354 173/5/354 175/6/354
f 202/4/355 175/5/355 198/6/355
f 145/4/356 169/5/356 203/6/356
f 205/4/357 203/5/357 204/6/357
f 205/4/358 145/5/358 203/6/358
f 146/4/359 145/5/359 205/6/359
f 203/4/360 159/5/360 204/6/360
f 159/4/361 162/5/361 204/6/361
f 204/4/362 162/5/362 205/6/362
f 163/4/363 159/5/363 203/6/363
f 163/4/364 203/5/364 169/6/364
f 205/4/365 148/5/365 146/6/365
f 162/4/366 148/5/366 205/6/366
f 178/4/367 179/5/367 206/6/367
f 179/4/368 207/5/368 206/6/368
f 140/4/369 152/5/369 188/6/369
f 188/4/370 152/5/370 208/6/370
f 209/4/371 210/5/371 153/6/371
f 187/4/372 209/5/372 153/6/372
f 180/4/373 151/5/373 150/6/373
f 185/4/374 180/5/374 150/6/374
f 200/4/375 156/5/375 211/6/375
f 200/4/376 211/5/376 201/6/376
f 211/4/377 176/5/377 201/6/377
f 201/4/378 176/5/378 202/6/378
f 173/4/379 202/5/379 176/6/379
f 142/4/380 156/5/380 140/6/380
f 210/4/381 143/5/381 154/6/381
f 143/4/382 152/5/382 154/6/382
f 153/4/383 210/5/383 154/6/383
f 174/4/384 177/5/384 192/6/384
f 192/4/385 177/5/385 193/6/385
f 177/4/386 212/5/386 193/6/386
f 193/4/387 212/5/387 194/6/387
f 212/4/388 181/5/388 194/6/388
f 179/4/389 149/5/389 207/6/389
f 188/4/390 181/5/390 141/6/390
f 148/4/391 207/5/391 149/6/391
f 208/4/392 186/5/392 188/6/392
f 144/4/393 186/5/393 208/6/393
f 189/4/394 144/5/394 209/6/394
f 189/4/395 186/5/395 144/6/395
f 209/4/396 187/5/396 189/6/396
f 206/4/397 184/5/397 178/6/397
f 161/4/398 184/5/398 206/6/398
f 165/4/399 164/5/399 197/6/399
f 160/4/400 165/5/400 197/6/400
f 211/4/401 213/5/401 176/6/401
f 211/4/402 156/5/402 213/6/402
f 216/4/403 217/5/403 214/6/403
f 217/4/404 215/5/404 214/6/404
f 216/4/405 219/5/405 217/6/405
f 218/4/406 219/5/406 216/6/406
f 220/4/407 225/5/407 221/6/407
f 223/4/408 225/5/408 220/6/408
f 224/4/409 225/5/409 223/6/409
f 219/4/410 218/5/410 224/6/410
f 224/4/411 218/5/411 225/6/411
f 224/4/412 223/5/412 222/6/412
f 220/4/413 255/5/413 223/6/413
f 228/4/414 255/5/414 220/6/414
f 227/4/415 139/5/415 226/6/415
f 226/4/416 139/5/416 228/6/416
f 139/4/417 134/5/417 228/6/417
f 227/4/418 135/5/418 139/6/418
f 228/4/419 134/5/419 231/6/419
f 227/4/420 229/5/420 135/6/420
f 229/4/421 230/5/421 135/6/421
f 134/4/422 138/5/422 231/6/422
f 138/4/423 137/5/423 231/6/423
f 229/4/424 256/5/424 230/6/424
f 231/4/425 137/5/425 232/6/425
f 137/4/426 233/5/426 232/6/426
f 229/4/427 259/5/427 256/6/427
f 136/4/428 233/5/428 137/6/428
f 257/4/429 234/5/429 136/6/429
f 260/4/430 234/5/430 257/6/430
f 136/4/431 234/5/431 233/6/431
f 259/4/432 234/5/432 260/6/432
f 229/4/433 234/5/433 259/6/433
f 229/4/434 236/5/434 234/6/434
f 235/4/435 236/5/435 229/6/435
f 237/4/436 238/5/436 235/6/436
f 239/4/437 238/5/437 237/6/437
f 210/4/438 209/5/438 237/6/438
f 209/4/439 239/5/439 237/6/439
f 144/4/440 239/5/440 209/6/440
f 237/4/441 143/5/441 210/6/441
f 214/4/442 215/5/442 240/6/442
f 215/4/443 241/5/443 240/6/443
f 181/4/444 212/5/444 242/6/444
f 242/4/445 212/5/445 177/6/445
f 144/4/446 241/5/446 215/6/446
f 144/4/447 215/5/447 251/6/447
f 141/4/448 242/5/448 241/6/448
f 141/4/449 241/5/449 144/6/449
f 240/4/450 143/5/450 214/6/450
f 214/4/451 143/5/451 243/6/451
f 213/4/452 142/5/452 240/6/452
f 240/4/453 142/5/453 143/6/453
f 243/4/454 244/5/454 214/6/454
f 243/4/455 235/5/455 244/6/455
f 246/4/456 235/5/456 245/6/456
f 246/4/457 244/5/457 235/6/457
f 245/4/458 227/5/458 253/6/458
f 245/4/459 253/5/459 246/6/459
f 247/4/460 248/5/460 250/6/460
f 233/4/461 248/5/461 247/6/461
f 238/4/462 248/5/462 236/6/462
f 249/4/463 250/5/463 238/6/463
f 238/4/464 250/5/464 248/6/464
f 249/4/465 251/5/465 215/6/465
f 238/4/466 251/5/466 249/6/466
f 141/4/467 143/5/467 142/6/467
f 144/4/468 143/5/468 141/6/468
f 242/4/469 177/5/469 241/6/469
f 176/4/470 240/5/470 177/6/470
f 177/4/471 240/5/471 241/6/471
f 176/4/472 213/5/472 240/6/472
f 228/4/473 220/5/473 221/6/473
f 226/4/474 228/5/474 221/6/474
f 252/4/475 226/5/475 221/6/475
f 252/4/476 221/5/476 253/6/476
f 227/4/477 252/5/477 253/6/477
f 233/4/478 247/5/478 254/6/478
f 232/4/479 233/5/479 254/6/479
f 232/4/480 254/5/480 222/6/480
f 255/4/481 232/5/481 222/6/481
f 255/4/482 222/5/482 223/6/482
f 234/4/483 236/5/483 248/6/483
f 238/4/484 239/5/484 251/6/484
f 233/4/485 234/5/485 248/6/485
f 232/4/486 255/5/486 231/6/486
f 255/4/487 228/5/487 231/6/487
f 252/4/488 227/5/488 226/6/488
f 239/4/489 144/5/489 251/6/489
f 229/4/490 227/5/490 245/6/490
f 141/4/491 181/5/491 242/6/491
f 235/4/492 229/5/492 245/6/492
f 237/4/493 235/5/493 243/6/493
f 215/4/494 217/5/494 249/6/494
f 243/4/495 143/5/495 237/6/495
f 249/4/496 219/5/496 250/6/496
f 217/4/497 219/5/497 249/6/497
f 142/4/498 213/5/498 156/6/498
f 219/4/499 224/5/499 247/6/499
f 219/4/500 247/5/500 250/6/500
f 254/4/501 247/5/501 224/6/501
f 254/4/502 224/5/502 222/6/502
f 253/4/503 221/5/503 225/6/503
f 225/4/504 218/5/504 246/6/504
f 225/4/505 246/5/505 253/6/505
f 216/4/506 214/5/506 244/6/506
f 218/4/507 244/5/507 246/6/507
f 218/4/508 216/5/508 244/6/508
f 136/4/509 258/5/509 257/6/509
f 260/4/510 257/5/510 258/6/510
f 230/4/511 258/5/511 135/6/511
f 230/4/512 256/5/512 258/6/512
f 256/4/513 259/5/513 258/6/513
f 259/4/514 260/5/514 258/6/514
f 236/4/515 235/5/515 238/6/515
f 261/4/516 262/5/516 272/6/516
f 272/4/517 262/5/517 263/6/517
f 289/4/518 280/5/518 264/6/518
f 280/4/519 265/5/519 264/6/519
f 262/4/520 266/5/520 263/6/520
f 264/4/521 265/5/521 267/6/521
f 263/4/522 268/5/522 269/6/522
f 266/4/523 268/5/523 263/6/523
f 265/4/524 270/5/524 267/6/524
f 270/4/525 271/5/525 267/6/525
f 267/4/526 271/5/526 272/6/526
f 271/4/527 261/5/527 272/6/527
f 265/4/528 273/5/528 270/6/528
f 273/4/529 276/5/529 270/6/529
f 274/4/530 275/5/530 277/6/530
f 270/4/531 276/5/531 271/6/531
f 277/4/532 278/5/532 279/6/532
f 275/4/533 278/5/533 277/6/533
f 276/4/534 261/5/534 271/6/534
f 279/4/535 278/5/535 280/6/535
f 278/4/536 281/5/536 280/6/536
f 280/4/537 281/5/537 265/6/537
f 281/4/538 273/5/538 265/6/538
f 283/4/539 278/5/539 284/6/539
f 284/4/540 278/5/540 282/6/540
f 281/4/541 278/5/541 283/6/541
f 282/4/542 278/5/542 275/6/542
f 276/4/543 273/5/543 261/6/543
f 273/4/544 281/5/544 261/6/544
f 261/4/545 281/5/545 262/6/545
f 262/4/546 281/5/546 283/6/546
f 285/4/547 282/5/547 286/6/547
f 284/4/548 282/5/548 285/6/548
f 286/4/549 282/5/549 274/6/549
f 282/4/550 275/5/550 274/6/550
f 262/4/551 283/5/551 266/6/551
f 266/4/552 283/5/552 268/6/552
f 283/4/553 284/5/553 268/6/553
f 268/4/554 284/5/554 285/6/554
f 274/4/555 277/5/555 287/6/555
f 277/4/556 279/5/556 287/6/556
f 269/4/557 285/5/557 288/6/557
f 268/4/558 285/5/558 269/6/558
f 287/4/559 279/5/559 289/6/559
f 279/4/560 280/5/560 289/6/560
f 285/4/561 286/5/561 288/6/561
f 288/4/562 286/5/562 290/6/562
f 286/4/563 274/5/563 290/6/563
f 290/4/564 274/5/564 287/6/564
f 287/4/565 289/5/565 264/6/565
f 287/4/565 264/5/565 267/6/565
f 287/4/565 267/5/565 272/6/565
f 288/4/565 287/5/565 272/6/565
f 288/4/565 272/5/565 263/6/565
f 288/4/565 290/5/565 287/6/565
f 288/4/565 263/5/565 269/6/565
f 301/4/566 291/5/566 292/6/566
f 317/4/518 308/5/518 293/6/518
f 308/4/519 294/5/519 293/6/519
f 291/4/567 295/5/567 292/6/567
f 293/4/521 294/5/521 296/6/521
f 292/4/522 297/5/522 298/6/522
f 295/4/523 297/5/523 292/6/523
f 294/4/524 299/5/524 296/6/524
f 299/4/568 300/5/568 296/6/568
f 296/4/569 300/5/569 301/6/569
f 300/4/570 291/5/570 301/6/570
f 294/4/571 302/5/571 299/6/571
f 304/4/572 305/5/572 303/6/572
f 303/4/573 305/5/573 306/6/573
f 299/4/574 302/5/574 300/6/574
f 305/4/575 307/5/575 306/6/575
f 307/4/576 309/5/576 308/6/576
f 308/4/577 309/5/577 294/6/577
f 309/4/578 302/5/578 294/6/578
f 311/4/579 305/5/579 304/6/579
f 309/4/580 305/5/580 311/6/580
f 309/4/581 307/5/581 305/6/581
f 291/4/582 302/5/582 312/6/582
f 312/4/583 302/5/583 310/6/583
f 310/4/584 309/5/584 311/6/584
f 302/4/410 309/5/410 310/6/410
f 300/4/585 302/5/585 291/6/585
f 310/4/586 311/5/586 313/6/586
f 313/4/587 311/5/587 314/6/587
f 311/4/588 304/5/588 314/6/588
f 314/4/589 304/5/589 303/6/589
f 291/4/590 312/5/590 295/6/590
f 295/4/591 312/5/591 297/6/591
f 312/4/592 310/5/592 297/6/592
f 297/4/593 310/5/593 313/6/593
f 303/4/555 306/5/555 315/6/555
f 306/4/594 307/5/594 315/6/594
f 298/4/557 313/5/557 316/6/557
f 297/4/558 313/5/558 298/6/558
f 315/4/595 307/5/595 317/6/595
f 307/4/596 308/5/596 317/6/596
f 313/4/561 314/5/561 316/6/561
f 316/4/562 314/5/562 318/6/562
f 314/4/563 303/5/563 318/6/563
f 318/4/564 303/5/564 315/6/564
f 292/4/565 296/5/565 301/6/565
f 316/4/565 317/5/565 293/6/565
f 316/4/565 315/5/565 317/6/565
f 316/4/565 318/5/565 315/6/565
f 316/4/565 293/5/565 298/6/565
f 298/4/565 293/5/565 296/6/565
f 298/4/565 296/5/565 292/6/565
