####
#
# OBJ File Generated by Meshlab
#
####
# Object wristcam_bracket.obj
#
# Vertices: 694
# Faces: 1414
#
####
vn -0.3243144 0.9263501 -0.1915613
v -0.0263366 0.0057582 -0.0168006
vn 0.0000000 1.0000000 0.0000000
v -0.0244420 0.0057582 -0.0193569
vn -0.7025710 0.4592329 -0.5435984
v -0.0240963 0.0057582 -0.0199596
vn -0.7030631 0.6969750 0.1411674
v 0.0032238 0.0057582 0.0239688
vn -0.6790430 0.7338463 0.0192436
v 0.0032705 0.0057582 0.0245181
vn 0.1436040 0.9280729 0.3435966
v 0.0113758 0.0057582 0.0283635
vn -0.5680265 0.7752019 0.2764200
v 0.0146002 0.0057582 -0.0070723
vn -0.8342260 0.4951545 0.2426706
v 0.0155042 0.0057582 -0.0045136
vn 0.0000000 1.0000000 0.0000000
v 0.0160580 0.0057582 -0.0193569
vn -0.9391456 0.3286351 -0.1000226
v 0.0159629 0.0057582 0.0008750
vn 0.0000000 1.0000000 0.0000000
v 0.0160580 0.0057582 0.0183931
vn -0.9838499 0.1784532 0.0139206
v 0.0160205 0.0057582 -0.0004819
vn -0.9533817 0.2680527 0.1386042
v 0.0159629 0.0057582 -0.0018388
vn -0.4955703 0.7083142 0.5026938
v 0.0115718 0.0057582 -0.0115529
vn -0.6105925 0.6595134 0.4384277
v 0.0132767 0.0057582 -0.0094415
vn 0.0000000 1.0000000 0.0000000
v 0.0145205 0.0057582 -0.0193569
vn -0.0883896 0.4474613 0.8899246
v 0.0020528 0.0057582 -0.0163523
vn 0.0000000 1.0000000 0.0000000
v 0.0081455 0.0057582 -0.0193569
vn 0.0429050 0.7951696 0.6048673
v -0.0006586 0.0057582 -0.0164675
vn 0.0000000 1.0000000 0.0000000
v -0.0041045 0.0057582 -0.0193569
vn 0.2179413 0.4046839 0.8881062
v -0.0033504 0.0057582 -0.0161228
vn -0.2287385 0.5081496 0.8303388
v 0.0047057 0.0057582 -0.0157806
vn -0.2306929 0.8396147 0.4917599
v 0.0072238 0.0057582 -0.0147687
vn -0.3963213 0.7205910 0.5689272
v 0.0095346 0.0057582 -0.0133459
vn 0.1822087 0.8896490 0.4187179
v -0.0059452 0.0057582 -0.0153281
vn 0.0000000 1.0000000 0.0000000
v -0.0160170 0.0057582 -0.0193569
vn 0.3632612 0.7489744 0.5541468
v -0.0083684 0.0057582 -0.0141064
vn 0.3312561 0.7489765 -0.5738498
v -0.0083684 0.0057582 0.0131426
vn 0.4156328 0.7596595 -0.5001668
v -0.0105503 0.0057582 0.0115289
vn 0.0000000 1.0000000 0.0000000
v -0.0160170 0.0057582 0.0183931
vn 0.5084026 0.7432384 -0.4348833
v -0.0124281 0.0057582 0.0095696
vn 0.6194217 0.6926944 -0.3694471
v -0.0139477 0.0057582 0.0073212
vn 0.7568445 0.5848347 -0.2918129
v -0.0150655 0.0057582 0.0048483
vn 0.7721680 0.5848352 0.2484437
v -0.0150655 0.0057582 -0.0058121
vn 0.6393721 0.6926926 0.3337369
v -0.0139477 0.0057582 -0.0082850
vn 0.9104849 0.3709197 -0.1828548
v -0.0157494 0.0057582 0.0022221
vn 0.9688435 0.2461447 -0.0274816
v -0.0159795 0.0057582 -0.0004819
vn 0.9193895 0.3709201 0.1309245
v -0.0157494 0.0057582 -0.0031859
vn 0.5322385 0.7432423 0.4053557
v -0.0124281 0.0057582 -0.0105334
vn 0.4433264 0.7596575 0.4757966
v -0.0105503 0.0057582 -0.0124927
vn -0.2754565 0.5081494 -0.8160318
v 0.0047057 0.0057582 0.0148168
vn -0.0913206 0.8082563 -0.5817064
v 0.0020528 0.0057582 0.0153885
vn 0.0000000 1.0000000 0.0000000
v 0.0081455 0.0057582 0.0183931
vn 0.0000000 1.0000000 0.0000000
v -0.0041045 0.0057582 0.0183931
vn 0.0130578 0.3747765 -0.9270232
v -0.0006586 0.0057582 0.0155037
vn 0.0958318 0.8517052 -0.5151840
v -0.0033504 0.0057582 0.0151590
vn 0.2450939 0.7066631 -0.6637441
v -0.0059452 0.0057582 0.0143643
vn -0.6769764 0.7192996 -0.1559200
v 0.0155042 0.0057582 0.0035497
vn -0.7683066 0.5535643 -0.3213589
v 0.0146002 0.0057582 0.0061085
vn 0.0000000 1.0000000 0.0000000
v 0.0145205 0.0057582 0.0183931
vn -0.6344708 0.6595128 -0.4031002
v 0.0132767 0.0057582 0.0084777
vn -0.5232674 0.7083170 -0.4737915
v 0.0115718 0.0057582 0.0105891
vn -0.3048894 0.8694690 -0.3886722
v 0.0095346 0.0057582 0.0123821
vn -0.4073636 0.5153431 -0.7539738
v 0.0072238 0.0057582 0.0138049
vn 0.0000000 1.0000000 0.0000000
v -0.0160170 0.0057582 -0.0475194
vn -0.5024506 0.8646060 0.0000000
v -0.0214795 0.0057582 -0.0475194
vn -0.8624697 0.4994396 -0.0818914
v -0.0214795 0.0057582 -0.0228146
vn -0.4748184 0.0489445 -0.8787218
v -0.0165631 0.0057582 -0.0476559
vn -0.3194083 0.0369149 -0.9468979
v -0.0167086 0.0057582 -0.0475975
vn -0.7657455 0.3332338 0.5500810
v -0.0162131 0.0057582 -0.0489999
vn -0.8689600 0.2571150 0.4228480
v -0.0161366 0.0057582 -0.0488629
vn 0.0000000 1.0000000 0.0000000
v -0.0160170 0.0057582 -0.0534444
vn -0.9739636 0.0331571 -0.2242665
v -0.0160843 0.0057582 -0.0482488
vn -0.9214991 0.0464044 -0.3855985
v -0.0161366 0.0057582 -0.0481009
vn -0.8427837 0.0547475 -0.5354608
v -0.0162131 0.0057582 -0.0479639
vn -0.1552995 0.0202778 -0.9876593
v -0.0168620 0.0057582 -0.0475644
vn 0.0139252 0.1339386 -0.9908918
v -0.0170188 0.0057582 -0.0475577
vn 0.1816209 0.1274967 -0.9750684
v -0.0171744 0.0057582 -0.0475777
vn 0.3381436 0.2141747 -0.9163995
v -0.0173244 0.0057582 -0.0476236
vn 0.0390469 0.9951958 0.0897810
v -0.0173244 0.0057582 -0.0493402
vn 0.2134742 0.4445088 0.8699660
v -0.0171744 0.0057582 -0.0493861
vn 0.0626645 0.4697340 0.8805812
v -0.0170188 0.0057582 -0.0494061
vn -0.0866853 0.4812685 0.8722765
v -0.0168620 0.0057582 -0.0493994
vn -0.2328666 0.4796516 0.8459950
v -0.0167086 0.0057582 -0.0493664
vn -0.3762036 0.4648741 0.8014755
v -0.0165631 0.0057582 -0.0493079
vn -0.9469477 0.1652707 0.2756370
v -0.0160843 0.0057582 -0.0487150
vn -0.9805516 0.1615147 0.1114972
v -0.0160578 0.0057582 -0.0485604
vn -0.9982858 0.0154022 -0.0564653
v -0.0160578 0.0057582 -0.0484035
vn -0.7398527 0.0580055 -0.6702636
v -0.0163117 0.0057582 -0.0478419
vn -0.6163356 0.0560522 -0.7854863
v -0.0164295 0.0057582 -0.0477382
vn 0.4787532 0.2876970 -0.8294732
v -0.0174645 0.0057582 -0.0476942
vn 0.5996405 0.3464537 -0.7213883
v -0.0175906 0.0057582 -0.0477875
vn 0.6996708 0.3903130 -0.5984285
v -0.0176992 0.0057582 -0.0479008
vn 0.7183113 0.5858657 0.3752204
v -0.0177870 0.0057582 -0.0489330
vn 0.6338067 0.6045247 0.4825340
v -0.0176992 0.0057582 -0.0490630
vn -0.8124973 0.5829650 0.0000000
v -0.0214795 0.0057582 -0.0534444
vn 0.5403209 0.6097925 0.5798331
v -0.0175906 0.0057582 -0.0491763
vn 0.4377187 0.6022373 0.6676171
v -0.0174645 0.0057582 -0.0492696
vn 0.7794022 0.4200447 -0.4648599
v -0.0177870 0.0057582 -0.0480308
vn 0.8394396 0.4363649 -0.3239241
v -0.0178517 0.0057582 -0.0481737
vn 0.8806275 0.4396420 -0.1766642
v -0.0178912 0.0057582 -0.0483256
vn -0.5144826 0.4361872 0.7382739
v -0.0164295 0.0057582 -0.0492256
vn -0.6455754 0.3927180 0.6549847
v -0.0163117 0.0057582 -0.0491219
vn 0.9023992 0.4301402 -0.0255958
v -0.0179045 0.0057582 -0.0484819
vn 0.1024767 0.9946285 0.0145832
v -0.0178912 0.0057582 -0.0486382
vn 0.7935811 0.5523169 0.2552940
v -0.0178517 0.0057582 -0.0487901
vn 0.3434097 0.8434296 -0.4131543
v -0.0175906 0.0057582 -0.0817875
vn 0.4358310 0.8192085 -0.3727585
v -0.0176992 0.0057582 -0.0819008
vn -0.6210869 0.7837418 0.0000000
v -0.0214795 0.0057582 -0.0695194
vn 0.0004744 0.9994326 -0.0336801
v -0.0170188 0.0057582 -0.0815577
vn 0.0931710 0.8608785 -0.5002074
v -0.0171744 0.0057582 -0.0815777
vn 0.0658022 0.3745204 0.9248809
v -0.0170188 0.0057582 -0.0834061
vn -0.0910884 0.3886362 0.9168777
v -0.0168620 0.0057582 -0.0833994
vn 0.0000000 0.9457377 -0.3249311
v -0.0160170 0.0057582 -0.0864819
vn -0.2443334 0.3903494 0.8876534
v -0.0167086 0.0057582 -0.0833664
vn -0.3930760 0.3797599 0.8374209
v -0.0165631 0.0057582 -0.0833079
vn -0.9923740 0.0496541 0.1128199
v -0.0160578 0.0057582 -0.0825603
vn -0.9117909 0.4074006 -0.0515960
v -0.0160578 0.0057582 -0.0824035
vn -0.2666409 0.8280272 -0.4932277
v -0.0165631 0.0057582 -0.0816559
vn -0.1720849 0.8428771 -0.5098481
v -0.0167086 0.0057582 -0.0815974
vn 0.0000000 1.0000000 0.0000000
v -0.0160170 0.0057582 -0.0695194
vn -0.0818727 0.8489945 -0.5220204
v -0.0168620 0.0057582 -0.0815644
vn 0.1752541 0.8623829 -0.4749544
v -0.0173244 0.0057582 -0.0816236
vn 0.2576838 0.8568923 -0.4464692
v -0.0174645 0.0057582 -0.0816942
vn 0.5655537 0.5583975 0.6069112
v -0.0175906 0.0057582 -0.0831763
vn 0.4607316 0.5421134 0.7027372
v -0.0174645 0.0057582 -0.0832696
vn -0.6436946 0.6432561 -0.4145830
v -0.0214795 0.0057582 -0.0864819
vn 0.0506860 0.9918909 0.1165478
v -0.0173244 0.0057582 -0.0833402
vn 0.2234581 0.3476892 0.9105925
v -0.0171744 0.0057582 -0.0833861
vn -0.5341675 0.3565246 0.7665216
v -0.0164295 0.0057582 -0.0832256
vn -0.6649622 0.3204175 0.6746540
v -0.0163117 0.0057582 -0.0831219
vn -0.7817638 0.2710434 0.5615879
v -0.0162131 0.0057582 -0.0829999
vn -0.8794259 0.2085263 0.4279333
v -0.0161366 0.0057582 -0.0828629
vn -0.9515118 0.1339907 0.2768968
v -0.0160843 0.0057582 -0.0827150
vn -0.8932296 0.3997994 -0.2056732
v -0.0160843 0.0057582 -0.0822488
vn -0.7538487 0.5763792 -0.3154349
v -0.0161366 0.0057582 -0.0821009
vn -0.6117648 0.6889582 -0.3886908
v -0.0162131 0.0057582 -0.0819639
vn -0.4826666 0.7588237 -0.4372866
v -0.0163117 0.0057582 -0.0818419
vn -0.3688848 0.8018224 -0.4701116
v -0.0164295 0.0057582 -0.0817382
vn 0.8091480 0.5268085 0.2602932
v -0.0178517 0.0057582 -0.0827901
vn 0.8645620 0.4872327 0.1230317
v -0.0178912 0.0057582 -0.0826382
vn 0.9023979 0.4301429 -0.0255965
v -0.0179045 0.0057582 -0.0824819
vn 0.7396438 0.5510448 0.3863637
v -0.0177870 0.0057582 -0.0829330
vn 0.6584636 0.5613539 0.5013059
v -0.0176992 0.0057582 -0.0830630
vn 0.5384009 0.7791432 -0.3210302
v -0.0177870 0.0057582 -0.0820308
vn 0.0345821 0.9993128 -0.0133416
v -0.0178517 0.0057582 -0.0821738
vn 0.9171726 0.3534269 -0.1840760
v -0.0178912 0.0057582 -0.0823256
vn 0.1895888 0.8366956 -0.5138059
v 0.0166756 0.0057582 -0.0816236
vn 0.2884871 0.8166646 -0.4998341
v 0.0165355 0.0057582 -0.0816942
vn 0.0000000 1.0000000 0.0000000
v 0.0160580 0.0057582 -0.0695194
vn 0.3976828 0.7828995 -0.4784525
v 0.0164094 0.0057582 -0.0817875
vn 0.6411102 0.3400600 0.6879948
v 0.0164094 0.0057582 -0.0831763
vn 0.5094365 0.3697427 0.7770231
v 0.0165355 0.0057582 -0.0832696
vn 0.0000000 0.6034895 -0.7973710
v 0.0160580 0.0057582 -0.0864819
vn 0.3678007 0.3866327 0.8457174
v 0.0166756 0.0057582 -0.0833402
vn 0.2193457 0.3910680 0.8938419
v 0.0168256 0.0057582 -0.0833861
vn -0.6098561 0.7503054 -0.2551811
v 0.0178634 0.0057582 -0.0821009
vn -0.5045428 0.8016708 -0.3205627
v 0.0177869 0.0057582 -0.0819639
vn 0.7365042 0.6764330 0.0000000
v 0.0215205 0.0057582 -0.0695194
vn -0.2313575 0.4899171 0.8405088
v 0.0172914 0.0057582 -0.0833664
vn 0.8870904 0.4389402 -0.1428365
v 0.0215205 0.0057582 -0.0864819
vn -0.0128271 0.9915466 0.1291161
v 0.0171380 0.0057582 -0.0833994
vn 0.0655513 0.3831713 0.9213484
v 0.0169812 0.0057582 -0.0834061
vn -0.3606645 0.5287139 0.7683637
v 0.0174369 0.0057582 -0.0833079
vn -0.4767326 0.5520183 0.6841066
v 0.0175705 0.0057582 -0.0832256
vn -0.5808676 0.5614880 0.5893420
v 0.0176883 0.0057582 -0.0831219
vn -0.6740382 0.5578717 0.4842021
v 0.0177869 0.0057582 -0.0829999
vn -0.7564002 0.5407304 0.3680617
v 0.0178634 0.0057582 -0.0828629
vn -0.8264180 0.5091115 0.2404970
v 0.0179157 0.0057582 -0.0827150
vn -0.8817462 0.4609485 0.1002500
v 0.0179422 0.0057582 -0.0825603
vn -0.0376463 0.9992889 -0.0021305
v 0.0179422 0.0057582 -0.0824035
vn -0.7270786 0.6658279 -0.1674215
v 0.0179157 0.0057582 -0.0822488
vn -0.4100459 0.8329775 -0.3714981
v 0.0176883 0.0057582 -0.0818419
vn -0.3239307 0.8512602 -0.4128257
v 0.0175705 0.0057582 -0.0817382
vn -0.2422686 0.8605082 -0.4481423
v 0.0174369 0.0057582 -0.0816559
vn -0.0107397 0.9994360 -0.0318189
v 0.0172914 0.0057582 -0.0815974
vn -0.0830831 0.8440817 -0.5297390
v 0.0171380 0.0057582 -0.0815644
vn 0.0074371 0.8492014 -0.5280169
v 0.0169812 0.0057582 -0.0815577
vn 0.0973762 0.8468860 -0.5227829
v 0.0168256 0.0057582 -0.0815777
vn 0.5210769 0.7279133 -0.4456692
v 0.0163008 0.0057582 -0.0819008
vn 0.6604811 0.6392692 -0.3938270
v 0.0162130 0.0057582 -0.0820308
vn 0.8093795 0.4973935 -0.3122571
v 0.0161483 0.0057582 -0.0821738
vn 0.9376585 0.1726700 0.3016315
v 0.0161483 0.0057582 -0.0827901
vn 0.8601385 0.2414142 0.4493117
v 0.0162130 0.0057582 -0.0829330
vn 0.7596664 0.2973364 0.5783581
v 0.0163008 0.0057582 -0.0830630
vn 0.9403926 0.2829183 -0.1887306
v 0.0161088 0.0057582 -0.0823256
vn 0.9367576 0.3489691 -0.0265693
v 0.0160955 0.0057582 -0.0824819
vn 0.9857562 0.0927814 0.1402723
v 0.0161088 0.0057582 -0.0826382
vn 0.5280771 0.8491965 0.0000000
v 0.0215205 0.0057582 -0.0534444
vn 0.0000000 1.0000000 0.0000000
v 0.0160580 0.0057582 -0.0534444
vn 0.0139596 0.1143495 -0.9933425
v 0.0169812 0.0057582 -0.0475577
vn 0.1830378 0.0291487 -0.9826736
v 0.0168256 0.0057582 -0.0475777
vn 0.0000000 1.0000000 0.0000000
v 0.0160580 0.0057582 -0.0475194
vn 0.8632053 0.5048532 0.0000000
v 0.0215205 0.0057582 -0.0475194
vn -0.9014850 0.4204947 0.1025139
v 0.0179422 0.0057582 -0.0485604
vn -0.8982492 0.4365395 -0.0508106
v 0.0179422 0.0057582 -0.0484035
vn -0.3148454 0.1723532 -0.9333631
v 0.0172914 0.0057582 -0.0475975
vn -0.1548329 0.0800274 -0.9846941
v 0.0171380 0.0057582 -0.0475644
vn -0.4599564 0.2527361 -0.8512136
v 0.0174369 0.0057582 -0.0476559
vn 0.0623802 0.4771926 0.8765820
v 0.0169812 0.0057582 -0.0494061
vn -0.0098305 0.9950468 0.0989208
v 0.0171380 0.0057582 -0.0493994
vn -0.6515905 0.5969374 0.4680766
v 0.0177869 0.0057582 -0.0489999
vn -0.0912809 0.9948341 0.0444177
v 0.0178634 0.0057582 -0.0488629
vn -0.8752999 0.4395746 -0.2015551
v 0.0179157 0.0057582 -0.0482488
vn -0.8329167 0.4298584 -0.3485279
v 0.0178634 0.0057582 -0.0481009
vn -0.7710305 0.4068688 -0.4898672
v 0.0177869 0.0057582 -0.0479639
vn 0.3458465 0.0435205 -0.9372813
v 0.0166756 0.0057582 -0.0476236
vn 0.4991860 0.0531296 -0.8648645
v 0.0165355 0.0057582 -0.0476942
vn 0.6381639 0.0576755 -0.7677372
v 0.0164094 0.0057582 -0.0477875
vn 0.9300987 0.2130492 0.2992096
v 0.0161483 0.0057582 -0.0487901
vn 0.8462843 0.2972758 0.4420747
v 0.0162130 0.0057582 -0.0489330
vn -0.6884578 0.3701508 -0.6237102
v 0.0176883 0.0057582 -0.0478419
vn -0.5850576 0.3189685 -0.7456318
v 0.0175705 0.0057582 -0.0477382
vn 0.7407686 0.3649645 0.5639706
v 0.0163008 0.0057582 -0.0490630
vn 0.6198488 0.4163232 0.6651786
v 0.0164094 0.0057582 -0.0491763
vn 0.4890046 0.4523282 0.7458376
v 0.0165355 0.0057582 -0.0492696
vn -0.2189841 0.5649203 0.7955571
v 0.0172914 0.0057582 -0.0493664
vn -0.3419795 0.5935106 0.7285570
v 0.0174369 0.0057582 -0.0493079
vn -0.8837350 0.3909472 0.2572407
v 0.0179157 0.0057582 -0.0487150
vn 0.7587111 0.0570122 -0.6489277
v 0.0163008 0.0057582 -0.0479008
vn 0.8577124 0.0512155 -0.5115725
v 0.0162130 0.0057582 -0.0480308
vn 0.9321877 0.0403790 -0.3597159
v 0.0161483 0.0057582 -0.0481737
vn 0.3511847 0.4739702 0.8074785
v 0.0166756 0.0057582 -0.0493402
vn 0.2087841 0.4821273 0.8508598
v 0.0168256 0.0057582 -0.0493861
vn -0.4540652 0.6076753 0.6515792
v 0.0175705 0.0057582 -0.0492256
vn -0.5569094 0.6087596 0.5650342
v 0.0176883 0.0057582 -0.0491219
vn 0.9801646 0.0248067 -0.1966266
v 0.0161088 0.0057582 -0.0483256
vn 0.9908313 0.1321507 -0.0281021
v 0.0160955 0.0057582 -0.0484819
vn 0.9835611 0.1140976 0.1399622
v 0.0161088 0.0057582 -0.0486382
vn 0.4021743 0.9147664 -0.0381864
v 0.0215205 0.0057582 -0.0228146
vn 0.6107386 0.6977612 0.3743363
v 0.0261074 0.0057582 0.0162654
vn 0.6071905 0.7455617 0.2746956
v 0.0279920 0.0057582 0.0128821
vn 0.5795891 0.7949644 0.1791874
v 0.0294400 0.0057582 0.0092902
vn 0.5348005 0.8396822 0.0944580
v 0.0304289 0.0057582 0.0055457
vn 0.4805002 0.8766673 0.0239594
v 0.0309431 0.0057582 0.0017072
vn 0.4230680 0.9055372 -0.0318726
v 0.0309748 0.0057582 -0.0021654
vn 0.3667922 0.9273208 -0.0744292
v 0.0305233 0.0057582 -0.0060118
vn 0.3140445 0.9434848 -0.1058891
v 0.0295958 0.0057582 -0.0097719
vn 0.2658156 0.9554237 -0.1284824
v 0.0282067 0.0057582 -0.0133870
vn 0.0937018 0.9937450 -0.0607537
v 0.0263776 0.0057582 -0.0168006
vn 0.5716878 0.6641383 -0.4817607
v 0.0241373 0.0057582 -0.0199596
vn 0.2013866 0.9144622 0.3510020
v 0.0148838 0.0057582 0.0267226
vn 0.4606518 0.6436794 0.6111276
v 0.0181598 0.0057582 0.0246571
vn 0.5350788 0.6405688 0.5507835
v 0.0211527 0.0057582 0.0221992
vn 0.5865170 0.6600943 0.4693329
v 0.0238157 0.0057582 0.0193873
vn -0.6512203 0.7532065 -0.0926943
v 0.0032238 0.0057582 0.0250674
vn -0.2681734 0.9594982 -0.0862913
v 0.0030849 0.0057582 0.0256008
vn 0.2173444 0.5832789 0.7826540
v 0.0076906 0.0057582 0.0295542
vn 0.1269531 0.4870463 0.8641000
v 0.0038857 0.0057582 0.0302762
vn -0.4922222 0.4403201 -0.7508899
v 0.0017245 0.0057582 0.0272856
vn -0.1958622 0.8712221 -0.4501224
v 0.0012323 0.0057582 0.0275337
vn 0.2420999 0.4114938 -0.8786697
v -0.0009312 0.0057582 0.0276256
vn -0.0925028 0.4564463 0.8849294
v -0.0038447 0.0057582 0.0302762
vn 0.0503875 0.8604377 -0.5070583
v -0.0003923 0.0057582 0.0277418
vn 0.0189989 0.4125808 0.9107229
v 0.0000205 0.0057582 0.0305181
vn -0.0664293 0.3435276 -0.9367902
v 0.0001584 0.0057582 0.0277652
vn 0.7108003 0.6124917 -0.3458565
v -0.0029410 0.0057582 0.0258568
vn 0.7773029 0.5870996 -0.2260849
v -0.0031246 0.0057582 0.0253370
vn -0.1079542 0.8798640 0.4628014
v -0.0076496 0.0057582 0.0295542
vn -0.2251121 0.3291335 -0.9170582
v 0.0007052 0.0057582 0.0276952
vn 0.8553981 0.3746001 0.3577273
v -0.0029410 0.0057582 0.0231794
vn 0.7611035 0.4323402 0.4835324
v -0.0026722 0.0057582 0.0226982
vn 0.6553704 0.4673306 0.5933733
v -0.0023259 0.0057582 0.0222693
vn 0.5407752 0.4819759 0.6893921
v -0.0019121 0.0057582 0.0219051
vn 0.4176532 0.4773764 0.7730961
v -0.0014427 0.0057582 0.0216161
vn 0.2850828 0.4531946 0.8445961
v -0.0009312 0.0057582 0.0214106
vn -0.1573102 0.5100895 0.8456136
v 0.0007052 0.0057582 0.0213410
vn -0.0029049 0.9784679 0.2063789
v 0.0001584 0.0057582 0.0212710
vn 0.1416958 0.4076383 0.9020828
v -0.0003923 0.0057582 0.0212944
vn -0.6967280 0.6182736 -0.3637415
v 0.0028578 0.0057582 0.0261031
vn -0.2989301 0.9267176 -0.2276735
v 0.0025491 0.0057582 0.0265598
vn -0.6138125 0.4351282 -0.6587091
v 0.0021677 0.0057582 0.0269578
vn 0.6375119 0.6197258 -0.4577319
v -0.0026722 0.0057582 0.0263380
vn -0.2800719 0.5885930 0.7583654
v 0.0012323 0.0057582 0.0215025
vn -0.3847108 0.6385509 0.6665211
v 0.0017245 0.0057582 0.0217506
vn -0.4762328 0.6669420 0.5730539
v 0.0021677 0.0057582 0.0220784
vn -0.5586374 0.6779395 0.4778309
v 0.0025491 0.0057582 0.0224764
vn -0.6350633 0.6731877 0.3788311
v 0.0028578 0.0057582 0.0229331
vn -0.1030475 0.9938824 0.0397383
v 0.0030849 0.0057582 0.0234354
vn 0.8359699 0.5404646 -0.0951440
v -0.0032178 0.0057582 0.0247937
vn 0.2345323 0.9720176 0.0132823
v -0.0032178 0.0057582 0.0242425
vn 0.9322034 0.2913672 0.2147140
v -0.0031246 0.0057582 0.0236992
vn 0.3822317 0.4356714 -0.8149168
v -0.0014427 0.0057582 0.0274201
vn 0.2327210 0.9133594 -0.3340891
v -0.0019121 0.0057582 0.0271311
vn 0.5564426 0.6097506 -0.5644252
v -0.0023259 0.0057582 0.0267669
vn -0.6552178 0.4949550 0.5707094
v -0.0237747 0.0057582 0.0193873
vn -0.5116397 0.6405672 0.5726243
v -0.0211117 0.0057582 0.0221992
vn -0.4347605 0.6436806 0.6298084
v -0.0181188 0.0057582 0.0246571
vn -0.1481269 0.9469824 0.2851013
v -0.0148428 0.0057582 0.0267226
vn -0.1846538 0.8464647 0.4994002
v -0.0113348 0.0057582 0.0283635
vn -0.4711805 0.8712897 -0.1372712
v -0.0295548 0.0057582 -0.0097719
vn -0.5814589 0.8082505 -0.0929337
v -0.0304823 0.0057582 -0.0060118
vn 0.0000000 1.0000000 0.0000000
v -0.0244420 0.0057582 0.0183931
vn -0.7021545 0.7116365 -0.0235089
v -0.0309338 0.0057582 -0.0021654
vn -0.8150717 0.5745077 0.0748269
v -0.0309021 0.0057582 0.0017072
vn -0.8924603 0.4061643 0.1963295
v -0.0303878 0.0057582 0.0055457
vn -0.3776230 0.9114177 -0.1634588
v -0.0281657 0.0057582 -0.0133870
vn -0.9152555 0.2375945 0.3253556
v -0.0293990 0.0057582 0.0092902
vn -0.8881981 0.1047817 0.4473532
v -0.0279510 0.0057582 0.0128821
vn -0.8297094 0.0289776 0.5574430
v -0.0260664 0.0057582 0.0162654
vn -0.7836201 0.6111441 -0.1115466
v 0.0032238 0.0057582 -0.0249327
vn -0.7218110 0.6519648 -0.2322299
v 0.0030849 0.0057582 -0.0243992
vn -0.6555166 0.6731856 -0.3422268
v 0.0028578 0.0057582 -0.0238969
vn -0.1206676 0.9373806 0.3267369
v 0.0012323 0.0057582 -0.0284975
vn -0.1775761 0.9347798 0.3076579
v 0.0017245 0.0057582 -0.0282494
vn 0.0000000 0.9824060 -0.1867580
v 0.0081455 0.0057582 -0.0474819
vn -0.5848135 0.6779391 -0.4454119
v 0.0025491 0.0057582 -0.0234402
vn -0.5079655 0.6669450 -0.5451198
v 0.0021677 0.0057582 -0.0230422
vn -0.4219132 0.6385368 -0.6436304
v 0.0017245 0.0057582 -0.0227144
vn -0.0665703 0.3379791 -0.9387963
v 0.0001584 0.0057582 -0.0222348
vn -0.0479506 0.9795629 -0.1953389
v 0.0007052 0.0057582 -0.0223048
vn -0.3225513 0.5886145 -0.7412784
v 0.0012323 0.0057582 -0.0224663
vn 0.2825315 0.9591246 0.0160007
v -0.0032178 0.0057582 -0.0257575
vn 0.7470095 0.6421626 0.1720583
v -0.0031246 0.0057582 -0.0263008
vn 0.0000000 0.9832655 -0.1821784
v -0.0041045 0.0057582 -0.0474819
vn 0.3325040 0.8937619 0.3010496
v -0.0023259 0.0057582 -0.0277307
vn 0.2505545 0.9138918 0.3194124
v -0.0019121 0.0057582 -0.0280949
vn 0.1807183 0.9248994 0.3345175
v -0.0014427 0.0057582 -0.0283839
vn 0.1174983 0.9300641 0.3481019
v -0.0009312 0.0057582 -0.0285894
vn 0.0567477 0.9307300 0.3612775
v -0.0003923 0.0057582 -0.0287056
vn -0.0004620 0.9994612 0.0328198
v 0.0001584 0.0057582 -0.0287290
vn -0.0643300 0.9360989 0.3458043
v 0.0007052 0.0057582 -0.0286590
vn 0.0902934 0.4076560 -0.9086605
v -0.0003923 0.0057582 -0.0222582
vn 0.2367887 0.4531840 -0.8593924
v -0.0009312 0.0057582 -0.0223744
vn 0.3731433 0.4773758 -0.7955353
v -0.0014427 0.0057582 -0.0225799
vn 0.5692546 0.7869408 0.2380620
v -0.0029410 0.0057582 -0.0268206
vn 0.4347285 0.8571656 0.2761853
v -0.0026722 0.0057582 -0.0273018
vn -0.2387458 0.9276145 0.2872835
v 0.0021677 0.0057582 -0.0279216
vn -0.3084778 0.9139045 0.2638561
v 0.0025491 0.0057582 -0.0275236
vn -0.3931086 0.8890869 0.2344999
v 0.0028578 0.0057582 -0.0270669
vn -0.0507443 0.9985200 0.0195686
v 0.0030849 0.0057582 -0.0265646
vn -0.8782381 0.4445245 0.1763404
v 0.0032238 0.0057582 -0.0260312
vn -0.8382143 0.5448233 0.0237559
v 0.0032705 0.0057582 -0.0254819
vn 0.5008084 0.4819792 -0.7189486
v -0.0019121 0.0057582 -0.0228689
vn 0.6206722 0.4673319 -0.6295769
v -0.0023259 0.0057582 -0.0232331
vn 0.7324691 0.4323267 -0.5259112
v -0.0026722 0.0057582 -0.0236620
vn 0.8337239 0.3746169 -0.4056681
v -0.0029410 0.0057582 -0.0241432
vn 0.9185481 0.2913612 -0.2671669
v -0.0031246 0.0057582 -0.0246630
vn 0.9771993 0.1808652 -0.1112178
v -0.0032178 0.0057582 -0.0252063
vn 0.0000000 1.0000000 0.0000000
v 0.0145205 0.0057582 -0.0475194
vn -0.0000001 0.4472168 0.8944256
v 0.0130205 0.0057582 -0.0475194
vn -0.0010430 0.9976987 -0.0677962
v 0.0130205 0.0057582 -0.0474819
vn 0.0000000 1.0000000 0.0000000
v 0.0130205 0.0057582 -0.0534444
vn 0.0000000 1.0000000 0.0000000
v 0.0145205 0.0057582 -0.0534444
vn 0.0000000 0.8944439 -0.4471803
v 0.0130205 0.0057582 -0.0574819
vn 0.0000000 1.0000000 0.0000000
v 0.0145205 0.0057582 -0.0695194
vn 0.0000000 0.9463974 0.3230048
v 0.0081455 0.0057582 -0.0574819
vn 0.0000000 1.0000000 0.0000000
v 0.0081455 0.0057582 -0.0695194
vn 0.0000000 1.0000000 0.0000000
v -0.0041045 0.0057582 -0.0695194
vn 0.0005580 0.9996607 -0.0260431
v -0.0049795 0.0057582 -0.0474819
vn 0.0000002 0.8944389 0.4471901
v -0.0049795 0.0057582 -0.0475194
vn 0.0000000 1.0000000 0.0000000
v -0.0049795 0.0057582 -0.0534444
vn 0.0000000 0.4472854 -0.8943913
v -0.0049795 0.0057582 -0.0574819
vn 0.0000000 0.9142808 0.4050811
v -0.0041045 0.0057582 -0.0574819
vn 0.0000000 0.9591965 -0.2827403
v -0.0041045 0.0057582 -0.0864819
vn 0.0000000 0.9591965 -0.2827404
v 0.0081455 0.0057582 -0.0864819
vn 0.0000000 0.9591965 -0.2827404
v 0.0145205 0.0057582 -0.0864819
vn -0.6792849 -0.4592310 -0.5724326
v -0.0240963 0.0007582 -0.0199596
vn 0.0000000 -1.0000000 0.0000000
v -0.0244420 0.0007582 -0.0193569
vn -0.3160460 -0.9263501 -0.2049156
v -0.0263366 0.0007582 -0.0168006
vn -0.4021741 -0.9147666 -0.0381864
v -0.0214795 0.0007582 -0.0228146
vn -0.8637542 -0.5039134 0.0000000
v -0.0214795 0.0007582 -0.0475194
vn 0.0000000 -1.0000000 0.0000000
v -0.0160170 0.0007582 -0.0475194
vn -0.2287389 -0.5081499 -0.8303387
v 0.0047057 0.0007582 0.0148168
vn -0.2306928 -0.8396149 -0.4917598
v 0.0072238 0.0007582 0.0138049
vn 0.0000000 -1.0000000 0.0000000
v 0.0081455 0.0007582 0.0183931
vn -0.9391476 -0.3286300 0.1000210
v 0.0159629 0.0007582 -0.0018388
vn -0.6769822 -0.7192943 0.1559194
v 0.0155042 0.0007582 -0.0045136
vn 0.0000000 -1.0000000 0.0000000
v 0.0160580 0.0007582 -0.0193569
vn 0.0000000 -1.0000000 0.0000000
v 0.0160580 0.0007582 0.0183931
vn -0.9533792 -0.2680598 -0.1386080
v 0.0159629 0.0007582 0.0008750
vn -0.9838499 -0.1784532 -0.0139206
v 0.0160205 0.0007582 -0.0004819
vn -0.4955701 -0.7083142 -0.5026940
v 0.0115718 0.0007582 0.0105891
vn -0.6105925 -0.6595134 -0.4384277
v 0.0132767 0.0007582 0.0084777
vn 0.0000000 -1.0000000 0.0000000
v 0.0145205 0.0007582 0.0183931
vn -0.5680309 -0.7751993 -0.2764183
v 0.0146002 0.0007582 0.0061085
vn -0.8342281 -0.4951522 -0.2426681
v 0.0155042 0.0007582 0.0035497
vn -0.3963212 -0.7205909 -0.5689272
v 0.0095346 0.0007582 0.0123821
vn 0.0000000 -1.0000000 0.0000000
v -0.0041045 0.0007582 0.0183931
vn 0.0429049 -0.7951696 -0.6048673
v -0.0006586 0.0007582 0.0155037
vn -0.0883896 -0.4474613 -0.8899245
v 0.0020528 0.0007582 0.0153885
vn 0.3312562 -0.7489764 0.5738499
v -0.0083684 0.0007582 -0.0141064
vn 0.4156329 -0.7596595 0.5001668
v -0.0105503 0.0007582 -0.0124927
vn 0.0000000 -1.0000000 0.0000000
v -0.0160170 0.0007582 -0.0193569
vn 0.5084028 -0.7432384 0.4348832
v -0.0124281 0.0007582 -0.0105334
vn 0.6393721 -0.6926927 -0.3337368
v -0.0139477 0.0007582 0.0073212
vn 0.5322386 -0.7432422 -0.4053556
v -0.0124281 0.0007582 0.0095696
vn 0.0000000 -1.0000000 0.0000000
v -0.0160170 0.0007582 0.0183931
vn 0.4433261 -0.7596576 -0.4757966
v -0.0105503 0.0007582 0.0115289
vn 0.3632612 -0.7489745 -0.5541467
v -0.0083684 0.0007582 0.0131426
vn 0.1822087 -0.8896490 -0.4187178
v -0.0059452 0.0007582 0.0143643
vn 0.2179416 -0.4046838 -0.8881061
v -0.0033504 0.0007582 0.0151590
vn 0.6194217 -0.6926945 0.3694472
v -0.0139477 0.0007582 -0.0082850
vn 0.7568446 -0.5848347 0.2918130
v -0.0150655 0.0007582 -0.0058121
vn 0.9104850 -0.3709196 0.1828547
v -0.0157494 0.0007582 -0.0031859
vn 0.9688435 -0.2461445 0.0274816
v -0.0159795 0.0007582 -0.0004819
vn 0.9193894 -0.3709203 -0.1309246
v -0.0157494 0.0007582 0.0022221
vn 0.7721680 -0.5848353 -0.2484437
v -0.0150655 0.0007582 0.0048483
vn -0.2754564 -0.5081492 0.8160320
v 0.0047057 0.0007582 -0.0157806
vn -0.0913204 -0.8082563 0.5817065
v 0.0020528 0.0007582 -0.0163523
vn 0.0000000 -1.0000000 0.0000000
v 0.0081455 0.0007582 -0.0193569
vn 0.0000000 -1.0000000 0.0000000
v -0.0041045 0.0007582 -0.0193569
vn 0.0130577 -0.3747765 0.9270232
v -0.0006586 0.0007582 -0.0164675
vn 0.0958318 -0.8517051 0.5151842
v -0.0033504 0.0007582 -0.0161228
vn 0.2450937 -0.7066630 0.6637443
v -0.0059452 0.0007582 -0.0153281
vn -0.7682981 -0.5535731 0.3213640
v 0.0146002 0.0007582 -0.0070723
vn 0.0000000 -1.0000000 0.0000000
v 0.0145205 0.0007582 -0.0193569
vn -0.6344708 -0.6595128 0.4031002
v 0.0132767 0.0007582 -0.0094415
vn -0.5232674 -0.7083170 0.4737913
v 0.0115718 0.0007582 -0.0115529
vn -0.3048896 -0.8694689 0.3886722
v 0.0095346 0.0007582 -0.0133459
vn -0.4073637 -0.5153430 0.7539738
v 0.0072238 0.0007582 -0.0147687
vn 0.5557235 -0.7790921 -0.2901500
v -0.0177870 0.0007582 -0.0820308
vn 0.4562672 -0.8192466 -0.3473545
v -0.0176992 0.0007582 -0.0819008
vn -0.6160343 -0.7877193 0.0000000
v -0.0214795 0.0007582 -0.0695194
vn 0.3662989 -0.8433871 -0.3930945
v -0.0175906 0.0007582 -0.0817875
vn -0.8867166 -0.4397143 -0.1427764
v -0.0214795 0.0007582 -0.0864819
vn 0.4200422 -0.5421012 0.7277986
v -0.0174645 0.0007582 -0.0832696
vn 0.5302609 -0.5584609 0.6379222
v -0.0175906 0.0007582 -0.0831763
vn 0.0371714 -0.9992949 -0.0052909
v -0.0178912 0.0007582 -0.0823256
vn 0.6670737 -0.7134010 -0.2146433
v -0.0178517 0.0007582 -0.0821738
vn 0.6289454 -0.5612944 0.5379371
v -0.0176992 0.0007582 -0.0830630
vn 0.7166847 -0.5510416 0.4274532
v -0.0177870 0.0007582 -0.0829330
vn 0.7929525 -0.5268799 0.3059804
v -0.0178517 0.0007582 -0.0827901
vn 0.8562530 -0.4871604 0.1717716
v -0.0178912 0.0007582 -0.0826382
vn 0.9023979 -0.4301429 0.0255965
v -0.0179045 0.0007582 -0.0824819
vn 0.2826257 -0.8569033 -0.4310912
v -0.0174645 0.0007582 -0.0816942
vn 0.2019147 -0.8623736 -0.4642653
v -0.0173244 0.0007582 -0.0816236
vn 0.0080121 -0.9994347 -0.0326513
v -0.0171744 0.0007582 -0.0815777
vn -0.4399350 -0.3796951 0.8138114
v -0.0165631 0.0007582 -0.0833079
vn -0.2944314 -0.3904117 0.8722895
v -0.0167086 0.0007582 -0.0833664
vn 0.0000000 -0.9658349 -0.2591581
v -0.0160170 0.0007582 -0.0864819
vn -0.1427340 -0.3886603 0.9102583
v -0.0168620 0.0007582 -0.0833994
vn 0.0376729 -0.8476145 -0.5292735
v -0.0170188 0.0007582 -0.0815577
vn 0.0000000 -1.0000000 0.0000000
v -0.0160170 0.0007582 -0.0695194
vn -0.0522485 -0.8489780 -0.5258389
v -0.0168620 0.0007582 -0.0815644
vn -0.1428346 -0.8428289 -0.5188812
v -0.0167086 0.0007582 -0.0815974
vn -0.2381985 -0.8280829 -0.5074843
v -0.0165631 0.0007582 -0.0816559
vn -0.3416528 -0.8018349 -0.4902389
v -0.0164295 0.0007582 -0.0817382
vn -0.4572313 -0.7587692 -0.4639060
v -0.0163117 0.0007582 -0.0818419
vn -0.5886187 -0.6889995 -0.4228567
v -0.0162131 0.0007582 -0.0819639
vn -0.7348241 -0.5763487 -0.3575693
v -0.0161366 0.0007582 -0.0821009
vn -0.8800712 -0.3998576 -0.2561028
v -0.0160843 0.0007582 -0.0822488
vn -0.9074562 -0.4072846 -0.1031625
v -0.0160578 0.0007582 -0.0824035
vn -0.9971704 -0.0496703 0.0564283
v -0.0160578 0.0007582 -0.0825603
vn 0.0130441 -0.3744766 0.9271446
v -0.0170188 0.0007582 -0.0834061
vn 0.0236200 -0.9916446 0.1268197
v -0.0171744 0.0007582 -0.0833861
vn 0.2975173 -0.5112979 0.8062617
v -0.0173244 0.0007582 -0.0833402
vn -0.9657139 -0.1339699 0.2223705
v -0.0160843 0.0007582 -0.0827150
vn -0.9022149 -0.2085420 0.3775162
v -0.0161366 0.0007582 -0.0828629
vn -0.8124605 -0.2710178 0.5161950
v -0.0162131 0.0007582 -0.0829999
vn -0.7020158 -0.3204626 0.6359856
v -0.0163117 0.0007582 -0.0831219
vn -0.5767442 -0.3565083 0.7350292
v -0.0164295 0.0007582 -0.0832256
vn 0.9023966 -0.4301457 0.0255961
v -0.0179045 0.0007582 -0.0484819
vn 0.8891869 -0.4396999 -0.1265339
v -0.0178912 0.0007582 -0.0483256
vn 0.8565671 -0.4363042 -0.2755566
v -0.0178517 0.0007582 -0.0481737
vn 0.8043712 -0.4200475 -0.4201750
v -0.0177870 0.0007582 -0.0480308
vn 0.5251186 -0.2877074 -0.8009213
v -0.0174645 0.0007582 -0.0476942
vn 0.3895723 -0.2141661 -0.8957490
v -0.0173244 0.0007582 -0.0476236
vn 0.7325267 -0.3903641 -0.5576922
v -0.0176992 0.0007582 -0.0479008
vn 0.6395308 -0.3464034 -0.6862981
v -0.0175906 0.0007582 -0.0477875
vn -0.2806094 -0.4797211 0.8313400
v -0.0167086 0.0007582 -0.0493664
vn -0.1358039 -0.4812958 0.8659744
v -0.0168620 0.0007582 -0.0493994
vn 0.0000000 -1.0000000 0.0000000
v -0.0160170 0.0007582 -0.0534444
vn 0.0124054 -0.4696846 0.8827471
v -0.0170188 0.0007582 -0.0494061
vn 0.0181239 -0.9950899 0.0973015
v -0.0171744 0.0007582 -0.0493861
vn 0.2817346 -0.5810799 0.7635260
v -0.0173244 0.0007582 -0.0493402
vn 0.3990746 -0.6022223 0.6914244
v -0.0174645 0.0007582 -0.0492696
vn -0.7146837 -0.6994479 0.0000000
v -0.0214795 0.0007582 -0.0534444
vn 0.5065977 -0.6098557 0.6094546
v -0.0175906 0.0007582 -0.0491763
vn 0.6053985 -0.6044654 0.5177975
v -0.0176992 0.0007582 -0.0490630
vn 0.2363674 -0.1275011 -0.9632621
v -0.0171744 0.0007582 -0.0475777
vn 0.0703434 -0.1339564 -0.9884875
v -0.0170188 0.0007582 -0.0475577
vn -0.0990750 -0.0202772 -0.9948733
v -0.0168620 0.0007582 -0.0475644
vn -0.2653985 -0.0369035 -0.9634323
v -0.0167086 0.0007582 -0.0475975
vn -0.4240603 -0.0489580 -0.9043097
v -0.0165631 0.0007582 -0.0476559
vn -0.5708399 -0.0560551 -0.8191457
v -0.0164295 0.0007582 -0.0477382
vn -0.8982216 -0.0464000 -0.4370871
v -0.0161366 0.0007582 -0.0481009
vn -0.9596407 -0.0331634 -0.2792670
v -0.0160843 0.0007582 -0.0482488
vn 0.6960146 -0.5858625 0.4151250
v -0.0177870 0.0007582 -0.0489330
vn 0.0954200 -0.9947559 0.0368208
v -0.0178517 0.0007582 -0.0487901
vn 0.8953886 -0.4074469 0.1796283
v -0.0178912 0.0007582 -0.0486382
vn -0.7007911 -0.0579965 -0.7110052
v -0.0163117 0.0007582 -0.0478419
vn -0.8109472 -0.0547531 -0.5825521
v -0.0162131 0.0007582 -0.0479639
vn -0.9934850 -0.0154004 -0.1129173
v -0.0160578 0.0007582 -0.0484035
vn -0.9852974 -0.1614987 0.0557431
v -0.0160578 0.0007582 -0.0485604
vn -0.9610755 -0.1652758 0.2213998
v -0.0160843 0.0007582 -0.0487150
vn -0.8914738 -0.2571377 0.3730345
v -0.0161366 0.0007582 -0.0488629
vn -0.7958163 -0.3332036 0.5056202
v -0.0162131 0.0007582 -0.0489999
vn -0.6815432 -0.3927701 0.6174386
v -0.0163117 0.0007582 -0.0491219
vn -0.5554920 -0.4361689 0.7079445
v -0.0164295 0.0007582 -0.0492256
vn -0.4210573 -0.4648015 0.7788906
v -0.0165631 0.0007582 -0.0493079
vn -0.9982399 -0.0322299 0.0497840
v -0.0309021 0.0007582 0.0017072
vn -0.5374629 -0.8423147 -0.0404907
v -0.0309338 0.0007582 -0.0021654
vn -0.9767290 -0.1274239 0.1725214
v -0.0303878 0.0007582 0.0055457
vn -0.9182678 -0.2760397 0.2838775
v -0.0293990 0.0007582 0.0092902
vn -0.5770777 -0.8082506 -0.1171000
v -0.0304823 0.0007582 -0.0060118
vn 0.0000000 -1.0000000 0.0000000
v -0.0244420 0.0007582 0.0183931
vn -0.4650449 -0.8712898 -0.1568034
v -0.0295548 0.0007582 -0.0097719
vn -0.3704743 -0.9114181 -0.1790693
v -0.0281657 0.0007582 -0.0133870
vn -0.3700199 -0.6687050 0.6449178
v -0.0148428 0.0007582 0.0267226
vn -0.4606517 -0.6436795 0.6111274
v -0.0181188 0.0007582 0.0246571
vn -0.5350788 -0.6405687 0.5507835
v -0.0211117 0.0007582 0.0221992
vn -0.6784438 -0.4949558 0.5428929
v -0.0237747 0.0007582 0.0193873
vn -0.7128754 -0.5485376 0.4369386
v -0.0260664 0.0007582 0.0162654
vn -0.8129619 -0.4514704 0.3677873
v -0.0279510 0.0007582 0.0128821
vn 0.0902954 -0.4076566 0.9086600
v -0.0003923 0.0007582 0.0212944
vn 0.2367878 -0.4531837 0.8593928
v -0.0009312 0.0007582 0.0214106
vn 0.1460005 -0.3387384 -0.9294838
v -0.0003923 0.0007582 0.0277418
vn -0.0190121 -0.4111829 0.9113545
v 0.0000205 0.0007582 0.0305181
vn 0.1592662 -0.8671764 -0.4718468
v -0.0009312 0.0007582 0.0276256
vn -0.1278297 -0.4760706 0.8700669
v -0.0038447 0.0007582 0.0302762
vn 0.4278273 -0.4356723 -0.7919303
v -0.0014427 0.0007582 0.0274201
vn 0.8784622 -0.4672346 0.0999801
v -0.0032178 0.0007582 0.0242425
vn 0.8400152 -0.5404732 -0.0475727
v -0.0032178 0.0007582 0.0247937
vn -0.1280612 -0.8780342 0.4611467
v -0.0076496 0.0007582 0.0295542
vn 0.7888539 -0.5871081 -0.1816965
v -0.0031246 0.0007582 0.0253370
vn 0.7292877 -0.6124720 -0.3049879
v -0.0029410 0.0007582 0.0258568
vn 0.0919960 -0.4658266 0.8800809
v 0.0038857 0.0007582 0.0302762
vn -0.4488249 -0.4403329 -0.7776009
v 0.0017245 0.0007582 0.0272856
vn -0.2533634 -0.9180737 -0.3048734
v 0.0021677 0.0007582 0.0269578
vn 0.3731417 -0.4773755 0.7955362
v -0.0014427 0.0007582 0.0216161
vn 0.5008084 -0.4819790 0.7189487
v -0.0019121 0.0007582 0.0219051
vn 0.6206722 -0.4673317 0.6295769
v -0.0023259 0.0007582 0.0222693
vn 0.7324694 -0.4323265 0.5259110
v -0.0026722 0.0007582 0.0226982
vn 0.8337241 -0.3746168 0.4056679
v -0.0029410 0.0007582 0.0231794
vn 0.2317350 -0.9704411 0.0674020
v -0.0031246 0.0007582 0.0236992
vn -0.1118074 -0.9570441 0.2675177
v -0.0113348 0.0007582 0.0283635
vn 0.1888028 -0.5560799 0.8094003
v 0.0076906 0.0007582 0.0295542
vn -0.6790430 -0.7338463 -0.0192436
v 0.0032705 0.0007582 0.0245181
vn -0.1084993 -0.9939766 0.0154437
v 0.0032238 0.0007582 0.0239688
vn 0.0977353 -0.9594681 0.2643272
v 0.0113758 0.0007582 0.0283635
vn 0.6624287 -0.6197407 -0.4208440
v -0.0026722 0.0007582 0.0263380
vn 0.2860822 -0.9225324 -0.2590191
v -0.0023259 0.0007582 0.0267669
vn 0.5541946 -0.4401452 -0.7064988
v -0.0019121 0.0007582 0.0271311
vn -0.0132178 -0.3435396 -0.9390452
v 0.0001584 0.0007582 0.0277652
vn -0.0922269 -0.8635479 -0.4957612
v 0.0007052 0.0007582 0.0276952
vn -0.3134139 -0.4261091 -0.8486476
v 0.0012323 0.0007582 0.0275337
vn -0.6448916 -0.7532250 -0.1294871
v 0.0032238 0.0007582 0.0250674
vn -0.7217882 -0.6519819 0.2322530
v 0.0030849 0.0007582 0.0234354
vn -0.6555167 -0.6731858 0.3422261
v 0.0028578 0.0007582 0.0229331
vn -0.5848145 -0.6779390 0.4454107
v 0.0025491 0.0007582 0.0224764
vn -0.5079654 -0.6669443 0.5451207
v 0.0021677 0.0007582 0.0220784
vn -0.4219117 -0.6385373 0.6436309
v 0.0017245 0.0007582 0.0217506
vn -0.5980802 -0.6169264 -0.5115682
v 0.0025491 0.0007582 0.0265598
vn -0.2547379 -0.9549960 -0.1519577
v 0.0028578 0.0007582 0.0261031
vn -0.6078483 -0.7586665 -0.2344049
v 0.0030849 0.0007582 0.0256008
vn -0.3225533 -0.5886142 0.7412778
v 0.0012323 0.0007582 0.0215025
vn -0.0479502 -0.9795629 0.1953390
v 0.0007052 0.0007582 0.0213410
vn -0.0665714 -0.3379788 0.9387963
v 0.0001584 0.0007582 0.0212710
vn 0.5116397 -0.6405671 0.5726244
v 0.0211527 0.0007582 0.0221992
vn 0.4347606 -0.6436805 0.6298084
v 0.0181598 0.0007582 0.0246571
vn 0.3004828 -0.7584395 0.5783422
v 0.0148838 0.0007582 0.0267226
vn 0.1030959 -0.9914678 -0.0797682
v 0.0241373 0.0007582 -0.0199596
vn 0.2281346 -0.9642596 -0.1347514
v 0.0263776 0.0007582 -0.0168006
vn 0.2709449 -0.9554234 -0.1172818
v 0.0282067 0.0007582 -0.0133870
vn 0.3181879 -0.9434847 -0.0926991
v 0.0295958 0.0007582 -0.0097719
vn 0.4790853 -0.8766662 0.0439736
v 0.0309431 0.0007582 0.0017072
vn 0.5303978 -0.8396802 0.1166852
v 0.0304289 0.0007582 0.0055457
vn 0.5716091 -0.7949669 0.2032015
v 0.0294400 0.0007582 0.0092902
vn 0.5952042 -0.7455618 0.2997827
v 0.0279920 0.0007582 0.0128821
vn 0.3695769 -0.9273208 -0.0590690
v 0.0305233 0.0007582 -0.0060118
vn 0.4240271 -0.9055383 -0.0141968
v 0.0309748 0.0007582 -0.0021654
vn 0.5945948 -0.6977623 0.3994807
v 0.0261074 0.0007582 0.0162654
vn 0.5664384 -0.6600936 0.4933803
v 0.0238157 0.0007582 0.0193873
vn 0.9511781 -0.0403721 -0.3059908
v 0.0161483 0.0007582 -0.0481737
vn 0.8851917 -0.0512160 -0.4623987
v 0.0162130 0.0007582 -0.0480308
vn 0.0000000 -1.0000000 0.0000000
v 0.0160580 0.0007582 -0.0475194
vn 0.2382093 -0.0291495 -0.9707763
v 0.0168256 0.0007582 -0.0475777
vn 0.3984505 -0.0435192 -0.9161568
v 0.0166756 0.0007582 -0.0476236
vn 0.5475283 -0.0531313 -0.8350987
v 0.0165355 0.0007582 -0.0476942
vn 0.7943569 -0.0570209 -0.6047691
v 0.0163008 0.0007582 -0.0479008
vn 0.6806049 -0.0576661 -0.7303778
v 0.0164094 0.0007582 -0.0477875
vn 0.0705178 -0.1143654 -0.9909328
v 0.0169812 0.0007582 -0.0475577
vn -0.0987772 -0.0800248 -0.9918867
v 0.0171380 0.0007582 -0.0475644
vn 0.5020230 -0.8648543 0.0000000
v 0.0215205 0.0007582 -0.0475194
vn -0.0314901 -0.9951407 0.0932925
v 0.0172914 0.0007582 -0.0493664
vn -0.1376516 -0.4589036 0.8777583
v 0.0171380 0.0007582 -0.0493994
vn 0.0000000 -1.0000000 0.0000000
v 0.0160580 0.0007582 -0.0534444
vn 0.0123491 -0.4771407 0.8787402
v 0.0169812 0.0007582 -0.0494061
vn 0.1604288 -0.4821179 0.8612927
v 0.0168256 0.0007582 -0.0493861
vn 0.3048187 -0.4739817 0.8260913
v 0.0166756 0.0007582 -0.0493402
vn 0.4458325 -0.4523166 0.7724268
v 0.0165355 0.0007582 -0.0492696
vn 0.5811803 -0.4163794 0.6991836
v 0.0164094 0.0007582 -0.0491763
vn 0.7075416 -0.3649159 0.6051622
v 0.0163008 0.0007582 -0.0490630
vn 0.8200134 -0.2972735 0.4890874
v 0.0162130 0.0007582 -0.0489330
vn 0.9115224 -0.2130839 0.3517415
v 0.0161483 0.0007582 -0.0487901
vn 0.9740651 -0.1140775 0.1954061
v 0.0161088 0.0007582 -0.0486382
vn 0.9908309 -0.1321527 0.0281025
v 0.0160955 0.0007582 -0.0484819
vn 0.9897223 -0.0248107 -0.1408344
v 0.0161088 0.0007582 -0.0483256
vn 0.8624697 -0.4994395 -0.0818914
v 0.0215205 0.0007582 -0.0228146
vn -0.2616085 -0.1723009 -0.9496702
v 0.0172914 0.0007582 -0.0475975
vn -0.4107815 -0.2528024 -0.8759849
v 0.0174369 0.0007582 -0.0476559
vn -0.5418694 -0.3189843 -0.7775774
v 0.0175705 0.0007582 -0.0477382
vn -0.8939492 -0.4364975 -0.1016114
v 0.0179422 0.0007582 -0.0484035
vn -0.8623970 -0.4396416 -0.2509714
v 0.0179157 0.0007582 -0.0482488
vn -0.8118921 -0.4298260 -0.3950708
v 0.0178634 0.0007582 -0.0481009
vn -0.6521223 -0.3701001 -0.6616362
v 0.0176883 0.0007582 -0.0478419
vn -0.7418901 -0.4069022 -0.5329443
v 0.0177869 0.0007582 -0.0479639
vn -0.9058625 -0.4204597 0.0512527
v 0.0179422 0.0007582 -0.0485604
vn -0.1003033 -0.9946886 0.0231074
v 0.0179157 0.0007582 -0.0487150
vn 0.6469020 -0.7625732 0.0000000
v 0.0215205 0.0007582 -0.0534444
vn -0.7572577 -0.5710997 0.3168690
v 0.0178634 0.0007582 -0.0488629
vn -0.6771967 -0.5968995 0.4302507
v 0.0177869 0.0007582 -0.0489999
vn -0.5879181 -0.6088201 0.5326260
v 0.0176883 0.0007582 -0.0491219
vn -0.4902625 -0.6076542 0.6248192
v 0.0175705 0.0007582 -0.0492256
vn -0.3827621 -0.5934327 0.7080472
v 0.0174369 0.0007582 -0.0493079
vn -0.1343264 -0.8624620 -0.4879710
v 0.0172914 0.0007582 -0.0815974
vn -0.2164236 -0.8605569 -0.4610885
v 0.0174369 0.0007582 -0.0816559
vn 0.7404888 -0.6720687 0.0000000
v 0.0215205 0.0007582 -0.0695194
vn 0.6011210 -0.3401090 0.7231731
v 0.0164094 0.0007582 -0.0831763
vn 0.7255867 -0.2972948 0.6205963
v 0.0163008 0.0007582 -0.0830630
vn 0.0000000 -0.7457203 -0.6662592
v 0.0160580 0.0007582 -0.0864819
vn 0.9367576 -0.3489691 0.0265693
v 0.0160955 0.0007582 -0.0824819
vn 0.9495756 -0.2829127 -0.1351542
v 0.0161088 0.0007582 -0.0823256
vn 0.0000000 -1.0000000 0.0000000
v 0.0160580 0.0007582 -0.0695194
vn 0.8257827 -0.4974752 -0.2657091
v 0.0161483 0.0007582 -0.0821738
vn 0.6817090 -0.6392061 -0.3559331
v 0.0162130 0.0007582 -0.0820308
vn 0.5455212 -0.7279612 -0.4153060
v 0.0163008 0.0007582 -0.0819008
vn 0.6448421 -0.6416280 -0.4153219
v 0.0215205 0.0007582 -0.0864819
vn -0.4036695 -0.5286365 0.7467225
v 0.0174369 0.0007582 -0.0833079
vn -0.0409683 -0.9917612 0.1213726
v 0.0172914 0.0007582 -0.0833664
vn 0.8334373 -0.2414123 0.4970940
v 0.0162130 0.0007582 -0.0829330
vn 0.9189324 -0.1727012 0.3545949
v 0.0161483 0.0007582 -0.0827901
vn 0.9762394 -0.0927635 0.1958359
v 0.0161088 0.0007582 -0.0826382
vn 0.4241825 -0.7828472 -0.4552138
v 0.0164094 0.0007582 -0.0817875
vn 0.3164108 -0.8166760 -0.4826227
v 0.0165355 0.0007582 -0.0816942
vn 0.2184304 -0.8366877 -0.5022368
v 0.0166756 0.0007582 -0.0816236
vn 0.0129943 -0.3831248 0.9236052
v 0.0169812 0.0007582 -0.0834061
vn 0.1685190 -0.3910617 0.9048050
v 0.0168256 0.0007582 -0.0833861
vn 0.1267252 -0.8468921 -0.5164441
v 0.0168256 0.0007582 -0.0815777
vn 0.0374888 -0.8492346 -0.5266833
v 0.0169812 0.0007582 -0.0815577
vn -0.0033283 -0.9994333 -0.0334965
v 0.0171380 0.0007582 -0.0815644
vn 0.3192658 -0.3866390 0.8652050
v 0.0166756 0.0007582 -0.0833402
vn 0.4644462 -0.3697347 0.8047273
v 0.0165355 0.0007582 -0.0832696
vn -0.3000164 -0.8512713 -0.4304967
v 0.0175705 0.0007582 -0.0817382
vn -0.3884453 -0.8329338 -0.3941213
v 0.0176883 0.0007582 -0.0818419
vn -0.4854437 -0.8017026 -0.3487370
v 0.0177869 0.0007582 -0.0819639
vn -0.5944768 -0.7502801 -0.2892703
v 0.0178634 0.0007582 -0.0821009
vn -0.0358486 -0.9993028 -0.0104322
v 0.0179157 0.0007582 -0.0822488
vn -0.9131050 -0.3942873 -0.1038120
v 0.0179422 0.0007582 -0.0824035
vn -0.8859478 -0.4610670 0.0501379
v 0.0179422 0.0007582 -0.0825603
vn -0.1443616 -0.3627432 0.9206396
v 0.0171380 0.0007582 -0.0833994
vn -0.8387846 -0.5090517 0.1931499
v 0.0179157 0.0007582 -0.0827150
vn -0.7759849 -0.5407600 0.3246941
v 0.0178634 0.0007582 -0.0828629
vn -0.7005235 -0.5578338 0.4450711
v 0.0177869 0.0007582 -0.0829999
vn -0.6132156 -0.5615489 0.5555443
v 0.0176883 0.0007582 -0.0831219
vn -0.5147350 -0.5519972 0.6560084
v 0.0175705 0.0007582 -0.0832256
vn 0.0000000 -0.4472772 -0.8943954
v 0.0130205 0.0007582 -0.0574819
vn 0.0000000 -1.0000000 0.0000000
v 0.0145205 0.0007582 -0.0534444
vn 0.0000000 -1.0000000 0.0000000
v 0.0130205 0.0007582 -0.0534444
vn 0.0000000 -1.0000000 0.0000000
v 0.0145205 0.0007582 -0.0475194
vn 0.0000000 -0.9813434 -0.1922632
v 0.0081455 0.0007582 -0.0474819
vn -0.0010085 -0.9650084 -0.2622169
v 0.0130205 0.0007582 -0.0474819
vn -0.0000002 -0.8944280 0.4472120
v 0.0130205 0.0007582 -0.0475194
vn 0.0361604 -0.9307367 0.3638978
v -0.0003923 0.0007582 -0.0287056
vn 0.0975949 -0.9300604 0.3542074
v -0.0009312 0.0007582 -0.0285894
vn 0.0000000 -0.9816701 -0.1905880
v -0.0041045 0.0007582 -0.0474819
vn 0.9819337 -0.1808693 -0.0556102
v -0.0032178 0.0007582 -0.0252063
vn 0.9322034 -0.2913672 -0.2147139
v -0.0031246 0.0007582 -0.0246630
vn 0.2811751 -0.9591228 0.0320013
v -0.0032178 0.0007582 -0.0257575
vn -0.2800728 -0.5885926 -0.7583654
v 0.0012323 0.0007582 -0.0224663
vn -0.3847093 -0.6385512 -0.6665216
v 0.0017245 0.0007582 -0.0227144
vn -0.4762345 -0.6669421 -0.5730525
v 0.0021677 0.0007582 -0.0230422
vn 0.1614590 -0.9248990 0.3442278
v -0.0014427 0.0007582 -0.0283839
vn 0.2320357 -0.9138931 0.3331049
v -0.0019121 0.0007582 -0.0280949
vn 0.3148992 -0.8937624 0.3194170
v -0.0023259 0.0007582 -0.0277307
vn 0.4183825 -0.8571566 0.3003976
v -0.0026722 0.0007582 -0.0273018
vn 0.5548167 -0.7869565 0.2699592
v -0.0029410 0.0007582 -0.0268206
vn 0.7360724 -0.6421542 0.2140924
v -0.0031246 0.0007582 -0.0263008
vn 0.8553982 -0.3746001 -0.3577271
v -0.0029410 0.0007582 -0.0241432
vn 0.7611030 -0.4323406 -0.4835327
v -0.0026722 0.0007582 -0.0236620
vn 0.6553704 -0.4673308 -0.5933732
v -0.0023259 0.0007582 -0.0232331
vn 0.5407752 -0.4819760 -0.6893920
v -0.0019121 0.0007582 -0.0228689
vn 0.4176539 -0.4773768 -0.7730955
v -0.0014427 0.0007582 -0.0225799
vn 0.2850846 -0.4531948 -0.8445953
v -0.0009312 0.0007582 -0.0223744
vn 0.1416948 -0.4076376 -0.9020832
v -0.0003923 0.0007582 -0.0222582
vn -0.0029051 -0.9784679 -0.2063789
v 0.0001584 0.0007582 -0.0222348
vn -0.1573096 -0.5100901 -0.8456133
v 0.0007052 0.0007582 -0.0223048
vn -0.5586368 -0.6779392 -0.4778319
v 0.0025491 0.0007582 -0.0234402
vn -0.6350626 -0.6731878 -0.3788320
v 0.0028578 0.0007582 -0.0238969
vn -0.7074675 -0.6519727 -0.2728030
v 0.0030849 0.0007582 -0.0243992
vn -0.0556422 -0.9984194 0.0079201
v 0.0032238 0.0007582 -0.0260312
vn -0.5125961 -0.8426387 0.1649399
v 0.0030849 0.0007582 -0.0265646
vn -0.4057707 -0.8890857 0.2118414
v 0.0028578 0.0007582 -0.0270669
vn -0.3229318 -0.9139046 0.2459540
v 0.0025491 0.0007582 -0.0275236
vn -0.2546540 -0.9276151 0.2732793
v 0.0021677 0.0007582 -0.0279216
vn -0.1947517 -0.9347755 0.2970971
v 0.0017245 0.0007582 -0.0282494
vn -0.7760510 -0.6111198 -0.1558123
v 0.0032238 0.0007582 -0.0249327
vn -0.8381997 -0.5448458 -0.0237568
v 0.0032705 0.0007582 -0.0254819
vn -0.1389650 -0.9373870 0.3193654
v 0.0012323 0.0007582 -0.0284975
vn -0.0078041 -0.9994640 0.0317918
v 0.0007052 0.0007582 -0.0286590
vn -0.0265163 -0.9270730 0.3739419
v 0.0001584 0.0007582 -0.0287290
vn 0.0010414 -0.9999257 -0.0121498
v -0.0049795 0.0007582 -0.0474819
vn 0.0000001 -0.4473717 0.8943481
v -0.0049795 0.0007582 -0.0475194
vn 0.0000000 -1.0000000 0.0000000
v -0.0049795 0.0007582 -0.0534444
vn 0.0000000 -0.8944496 -0.4471689
v -0.0049795 0.0007582 -0.0574819
vn 0.0000000 -0.9216634 0.3879905
v -0.0041045 0.0007582 -0.0574819
vn 0.0000000 -1.0000000 0.0000000
v -0.0041045 0.0007582 -0.0695194
vn 0.0000000 -0.9548640 0.2970434
v 0.0081455 0.0007582 -0.0574819
vn 0.0000000 -1.0000000 0.0000000
v 0.0081455 0.0007582 -0.0695194
vn 0.0000000 -1.0000000 0.0000000
v 0.0145205 0.0007582 -0.0695194
vn 0.0000000 -0.9599047 -0.2803265
v -0.0041045 0.0007582 -0.0864819
vn 0.0000000 -0.9396721 -0.3420767
v 0.0081455 0.0007582 -0.0864819
vn 0.0000000 -0.9133987 -0.4070661
v 0.0145205 0.0007582 -0.0864819
# 694 vertices, 0 vertices normals

f 1//1 2//2 3//3
f 4//4 5//5 6//6
f 7//7 8//8 9//9
f 10//10 11//11 12//12
f 12//12 11//11 9//9
f 12//12 9//9 13//13
f 13//13 9//9 8//8
f 14//14 15//15 16//16
f 17//17 18//18 19//19
f 19//19 18//18 20//20
f 19//19 20//20 21//21
f 17//17 22//22 18//18
f 18//18 22//22 23//23
f 18//18 23//23 16//16
f 16//16 23//23 24//24
f 16//16 24//24 14//14
f 21//21 20//20 25//25
f 25//25 20//20 26//26
f 25//25 26//26 27//27
f 28//28 29//29 30//30
f 29//29 31//31 30//30
f 30//30 31//31 32//32
f 30//30 32//32 33//33
f 26//26 34//34 35//35
f 33//33 36//36 30//30
f 30//30 36//36 37//37
f 30//30 37//37 26//26
f 26//26 37//37 38//38
f 26//26 38//38 34//34
f 35//35 39//39 26//26
f 26//26 39//39 40//40
f 26//26 40//40 27//27
f 41//41 42//42 43//43
f 43//43 42//42 44//44
f 42//42 45//45 44//44
f 44//44 45//45 46//46
f 44//44 46//46 30//30
f 30//30 46//46 47//47
f 30//30 47//47 28//28
f 48//48 49//49 50//50
f 50//50 49//49 51//51
f 51//51 52//52 50//50
f 50//50 52//52 53//53
f 50//50 53//53 43//43
f 43//43 53//53 54//54
f 43//43 54//54 41//41
f 55//55 56//56 26//26
f 26//26 56//56 57//57
f 58//58 59//59 55//55
f 60//60 61//61 62//62
f 63//63 64//64 55//55
f 55//55 64//64 65//65
f 59//59 66//66 55//55
f 55//55 66//66 67//67
f 55//55 67//67 56//56
f 56//56 67//67 68//68
f 56//56 68//68 69//69
f 70//70 71//71 62//62
f 62//62 71//71 72//72
f 72//72 73//73 62//62
f 62//62 73//73 74//74
f 62//62 74//74 75//75
f 61//61 76//76 62//62
f 62//62 76//76 77//77
f 62//62 77//77 55//55
f 55//55 77//77 78//78
f 55//55 78//78 63//63
f 65//65 79//79 55//55
f 55//55 79//79 80//80
f 55//55 80//80 58//58
f 69//69 81//81 56//56
f 56//56 81//81 82//82
f 56//56 82//82 83//83
f 84//84 85//85 86//86
f 86//86 85//85 87//87
f 86//86 87//87 88//88
f 83//83 89//89 56//56
f 56//56 89//89 90//90
f 56//56 90//90 91//91
f 75//75 92//92 62//62
f 62//62 92//92 93//93
f 62//62 93//93 60//60
f 91//91 94//94 56//56
f 56//56 94//94 95//95
f 56//56 95//95 86//86
f 86//86 95//95 96//96
f 86//86 96//96 84//84
f 97//97 98//98 99//99
f 100//100 101//101 99//99
f 102//102 103//103 104//104
f 104//104 103//103 105//105
f 104//104 105//105 106//106
f 104//104 107//107 108//108
f 109//109 110//110 111//111
f 111//111 110//110 112//112
f 101//101 113//113 99//99
f 99//99 113//113 114//114
f 99//99 114//114 97//97
f 115//115 116//116 117//117
f 117//117 116//116 118//118
f 117//117 118//118 104//104
f 104//104 118//118 119//119
f 104//104 119//119 102//102
f 106//106 120//120 104//104
f 104//104 120//120 121//121
f 104//104 121//121 122//122
f 122//122 123//123 104//104
f 104//104 123//123 124//124
f 104//104 124//124 107//107
f 108//108 125//125 111//111
f 111//111 125//125 126//126
f 111//111 126//126 127//127
f 127//127 128//128 111//111
f 111//111 128//128 129//129
f 111//111 129//129 109//109
f 130//130 117//117 131//131
f 131//131 117//117 132//132
f 130//130 133//133 117//117
f 117//117 133//133 134//134
f 117//117 134//134 115//115
f 112//112 100//100 111//111
f 111//111 100//100 99//99
f 111//111 99//99 62//62
f 62//62 99//99 86//86
f 62//62 86//86 70//70
f 70//70 86//86 88//88
f 98//98 135//135 99//99
f 99//99 135//135 136//136
f 99//99 136//136 117//117
f 117//117 136//136 137//137
f 117//117 137//137 132//132
f 138//138 139//139 140//140
f 140//140 139//139 141//141
f 142//142 143//143 144//144
f 144//144 143//143 145//145
f 144//144 145//145 146//146
f 147//147 148//148 149//149
f 150//150 151//151 152//152
f 152//152 151//151 144//144
f 152//152 144//144 153//153
f 153//153 144//144 146//146
f 150//150 154//154 151//151
f 151//151 154//154 155//155
f 151//151 155//155 156//156
f 156//156 157//157 151//151
f 151//151 157//157 158//158
f 151//151 158//158 159//159
f 159//159 160//160 151//151
f 151//151 160//160 161//161
f 151//151 161//161 149//149
f 149//149 161//161 162//162
f 149//149 162//162 147//147
f 148//148 163//163 149//149
f 149//149 163//163 164//164
f 149//149 164//164 165//165
f 166//166 167//167 140//140
f 167//167 168//168 140//140
f 140//140 168//168 169//169
f 140//140 169//169 138//138
f 141//141 170//170 140//140
f 140//140 170//170 171//171
f 140//140 171//171 172//172
f 173//173 174//174 144//144
f 144//144 174//174 175//175
f 144//144 175//175 142//142
f 172//172 176//176 140//140
f 140//140 176//176 177//177
f 140//140 177//177 144//144
f 144//144 177//177 178//178
f 144//144 178//178 173//173
f 165//165 166//166 149//149
f 149//149 166//166 140//140
f 149//149 140//140 179//179
f 179//179 140//140 180//180
f 181//181 182//182 183//183
f 184//184 185//185 186//186
f 187//187 188//188 184//184
f 187//187 184//184 189//189
f 190//190 191//191 180//180
f 192//192 193//193 179//179
f 186//186 194//194 184//184
f 184//184 194//194 195//195
f 184//184 195//195 196//196
f 182//182 197//197 183//183
f 183//183 197//197 198//198
f 183//183 198//198 199//199
f 200//200 201//201 180//180
f 196//196 202//202 184//184
f 184//184 202//202 203//203
f 184//184 203//203 189//189
f 201//201 204//204 180//180
f 180//180 204//204 205//205
f 180//180 205//205 206//206
f 180//180 191//191 179//179
f 179//179 191//191 207//207
f 179//179 207//207 208//208
f 179//179 193//193 184//184
f 184//184 193//193 209//209
f 184//184 209//209 185//185
f 199//199 210//210 183//183
f 183//183 210//210 211//211
f 183//183 211//211 212//212
f 206//206 213//213 180//180
f 180//180 213//213 214//214
f 180//180 214//214 190//190
f 208//208 215//215 179//179
f 179//179 215//215 216//216
f 179//179 216//216 192//192
f 212//212 217//217 183//183
f 183//183 217//217 218//218
f 183//183 218//218 180//180
f 180//180 218//218 219//219
f 180//180 219//219 200//200
f 188//188 181//181 184//184
f 184//184 181//181 183//183
f 184//184 183//183 220//220
f 220//220 183//183 9//9
f 221//221 222//222 11//11
f 222//222 223//223 11//11
f 11//11 223//223 224//224
f 11//11 224//224 225//225
f 225//225 226//226 11//11
f 11//11 226//226 227//227
f 11//11 227//227 228//228
f 228//228 229//229 11//11
f 11//11 229//229 230//230
f 11//11 230//230 9//9
f 9//9 230//230 231//231
f 9//9 231//231 220//220
f 11//11 232//232 233//233
f 233//233 234//234 11//11
f 11//11 234//234 235//235
f 11//11 235//235 221//221
f 5//5 236//236 6//6
f 6//6 236//236 237//237
f 6//6 237//237 238//238
f 239//239 240//240 241//241
f 242//242 243//243 244//244
f 244//244 243//243 245//245
f 244//244 245//245 246//246
f 247//247 248//248 249//249
f 239//239 241//241 245//245
f 245//245 241//241 250//250
f 245//245 250//250 246//246
f 251//251 252//252 44//44
f 44//44 252//252 253//253
f 253//253 254//254 44//44
f 44//44 254//254 255//255
f 44//44 255//255 256//256
f 257//257 43//43 258//258
f 258//258 43//43 44//44
f 258//258 44//44 259//259
f 259//259 44//44 256//256
f 237//237 260//260 238//238
f 238//238 260//260 261//261
f 238//238 261//261 239//239
f 239//239 261//261 262//262
f 239//239 262//262 240//240
f 247//247 249//249 263//263
f 257//257 264//264 43//43
f 43//43 264//264 265//265
f 43//43 265//265 266//266
f 266//266 267//267 43//43
f 43//43 267//267 268//268
f 43//43 268//268 269//269
f 10//10 48//48 11//11
f 11//11 48//48 50//50
f 11//11 50//50 232//232
f 232//232 50//50 43//43
f 232//232 43//43 6//6
f 6//6 43//43 269//269
f 6//6 269//269 4//4
f 248//248 270//270 249//249
f 249//249 270//270 271//271
f 249//249 271//271 44//44
f 44//44 271//271 272//272
f 44//44 272//272 251//251
f 242//242 273//273 243//243
f 243//243 273//273 274//274
f 243//243 274//274 249//249
f 249//249 274//274 275//275
f 249//249 275//275 263//263
f 276//276 277//277 30//30
f 277//277 278//278 30//30
f 30//30 278//278 279//279
f 30//30 279//279 44//44
f 44//44 279//279 280//280
f 44//44 280//280 249//249
f 281//281 282//282 283//283
f 282//282 284//284 283//283
f 283//283 284//284 285//285
f 283//283 285//285 286//286
f 2//2 1//1 283//283
f 283//283 1//1 287//287
f 283//283 287//287 281//281
f 286//286 288//288 283//283
f 283//283 288//288 289//289
f 283//283 289//289 290//290
f 291//291 292//292 18//18
f 18//18 292//292 293//293
f 294//294 295//295 296//296
f 293//293 297//297 18//18
f 18//18 297//297 298//298
f 18//18 298//298 299//299
f 300//300 20//20 301//301
f 301//301 20//20 18//18
f 301//301 18//18 302//302
f 302//302 18//18 299//299
f 303//303 304//304 305//305
f 306//306 307//307 305//305
f 305//305 307//307 308//308
f 305//305 308//308 309//309
f 309//309 310//310 305//305
f 305//305 310//310 311//311
f 305//305 311//311 296//296
f 296//296 311//311 312//312
f 296//296 312//312 294//294
f 300//300 313//313 20//20
f 20//20 313//313 314//314
f 20//20 314//314 315//315
f 304//304 316//316 305//305
f 305//305 316//316 317//317
f 305//305 317//317 306//306
f 295//295 318//318 296//296
f 296//296 318//318 319//319
f 296//296 319//319 320//320
f 321//321 322//322 18//18
f 18//18 322//322 323//323
f 18//18 323//323 291//291
f 315//315 324//324 20//20
f 20//20 324//324 325//325
f 20//20 325//325 326//326
f 326//326 327//327 20//20
f 20//20 327//327 328//328
f 20//20 328//328 329//329
f 330//330 331//331 332//332
f 320//320 321//321 296//296
f 296//296 321//321 18//18
f 296//296 18//18 332//332
f 332//332 18//18 16//16
f 332//332 16//16 330//330
f 331//331 330//330 333//333
f 333//333 330//330 334//334
f 333//333 334//334 335//335
f 335//335 334//334 336//336
f 335//335 336//336 337//337
f 337//337 336//336 338//338
f 337//337 338//338 339//339
f 329//329 303//303 20//20
f 20//20 303//303 305//305
f 20//20 305//305 26//26
f 26//26 305//305 340//340
f 26//26 340//340 55//55
f 55//55 340//340 341//341
f 55//55 341//341 62//62
f 62//62 341//341 342//342
f 62//62 342//342 111//111
f 111//111 342//342 343//343
f 111//111 343//343 339//339
f 339//339 343//343 344//344
f 339//339 344//344 337//337
f 108//108 111//111 104//104
f 104//104 111//111 339//339
f 104//104 339//339 345//345
f 345//345 339//339 338//338
f 345//345 338//338 346//346
f 346//346 338//338 336//336
f 346//346 336//336 347//347
f 144//144 347//347 140//140
f 140//140 347//347 336//336
f 140//140 336//336 180//180
f 180//180 336//336 334//334
f 180//180 334//334 183//183
f 183//183 334//334 330//330
f 183//183 330//330 9//9
f 9//9 330//330 16//16
f 9//9 16//16 7//7
f 7//7 16//16 15//15
f 57//57 3//3 26//26
f 26//26 3//3 2//2
f 26//26 2//2 30//30
f 30//30 2//2 283//283
f 30//30 283//283 276//276
f 276//276 283//283 290//290
f 348//348 349//349 350//350
f 351//351 352//352 353//353
f 354//354 355//355 356//356
f 357//357 358//358 359//359
f 360//360 361//361 362//362
f 363//363 364//364 365//365
f 365//365 364//364 366//366
f 365//365 366//366 360//360
f 360//360 366//366 367//367
f 360//360 367//367 361//361
f 356//356 355//355 365//365
f 365//365 355//355 368//368
f 365//365 368//368 363//363
f 369//369 370//370 356//356
f 356//356 370//370 371//371
f 356//356 371//371 354//354
f 372//372 373//373 374//374
f 374//374 373//373 375//375
f 376//376 377//377 378//378
f 378//378 377//377 379//379
f 379//379 380//380 378//378
f 378//378 380//380 381//381
f 378//378 381//381 369//369
f 369//369 381//381 382//382
f 369//369 382//382 370//370
f 375//375 383//383 374//374
f 374//374 383//383 384//384
f 374//374 384//384 385//385
f 386//386 387//387 378//378
f 378//378 387//387 388//388
f 378//378 388//388 376//376
f 389//389 390//390 391//391
f 391//391 390//390 392//392
f 390//390 393//393 392//392
f 392//392 393//393 394//394
f 392//392 394//394 374//374
f 374//374 394//394 395//395
f 374//374 395//395 372//372
f 358//358 396//396 397//397
f 397//397 396//396 398//398
f 398//398 399//399 397//397
f 397//397 399//399 400//400
f 397//397 400//400 391//391
f 391//391 400//400 401//401
f 391//391 401//401 389//389
f 402//402 403//403 404//404
f 404//404 403//403 405//405
f 406//406 407//407 408//408
f 406//406 409//409 404//404
f 404//404 409//409 410//410
f 404//404 410//410 402//402
f 408//408 411//411 406//406
f 406//406 411//411 412//412
f 406//406 412//412 413//413
f 413//413 414//414 406//406
f 406//406 414//414 415//415
f 406//406 415//415 409//409
f 405//405 416//416 404//404
f 404//404 416//416 417//417
f 404//404 417//417 418//418
f 419//419 420//420 421//421
f 421//421 420//420 422//422
f 418//418 423//423 424//424
f 424//424 423//423 425//425
f 424//424 425//425 426//426
f 426//426 427//427 424//424
f 424//424 427//427 428//428
f 424//424 428//428 429//429
f 429//429 430//430 424//424
f 424//424 430//430 431//431
f 424//424 431//431 432//432
f 421//421 433//433 434//434
f 422//422 435//435 421//421
f 421//421 435//435 436//436
f 421//421 436//436 406//406
f 406//406 436//436 437//437
f 406//406 437//437 407//407
f 434//434 438//438 421//421
f 421//421 438//438 439//439
f 421//421 439//439 440//440
f 440//440 441//441 421//421
f 421//421 441//441 442//442
f 421//421 442//442 419//419
f 443//443 444//444 352//352
f 352//352 444//444 445//445
f 352//352 445//445 446//446
f 352//352 447//447 448//448
f 446//446 449//449 352//352
f 352//352 449//449 450//450
f 352//352 450//450 447//447
f 451//451 452//452 453//453
f 453//453 452//452 454//454
f 453//453 454//454 455//455
f 456//456 457//457 458//458
f 458//458 457//457 459//459
f 458//458 459//459 460//460
f 448//448 461//461 352//352
f 352//352 461//461 462//462
f 352//352 462//462 353//353
f 353//353 462//462 463//463
f 463//463 464//464 353//353
f 353//353 464//464 465//465
f 353//353 465//465 466//466
f 353//353 467//467 468//468
f 418//418 424//424 404//404
f 404//404 424//424 453//453
f 404//404 453//453 458//458
f 458//458 453//453 455//455
f 458//458 455//455 456//456
f 460//460 469//469 458//458
f 458//458 469//469 470//470
f 458//458 470//470 352//352
f 352//352 470//470 471//471
f 352//352 471//471 443//443
f 466//466 472//472 353//353
f 353//353 472//472 473//473
f 353//353 473//473 467//467
f 468//468 474//474 353//353
f 353//353 474//474 475//475
f 353//353 475//475 453//453
f 453//453 475//475 476//476
f 476//476 477//477 453//453
f 453//453 477//477 478//478
f 453//453 478//478 479//479
f 479//479 480//480 453//453
f 453//453 480//480 481//481
f 453//453 481//481 451//451
f 349//349 348//348 374//374
f 482//482 483//483 484//484
f 484//484 483//483 485//485
f 483//483 486//486 487//487
f 487//487 486//486 488//488
f 487//487 488//488 489//489
f 378//378 490//490 491//491
f 491//491 492//492 378//378
f 378//378 492//492 493//493
f 378//378 493//493 487//487
f 487//487 493//493 494//494
f 487//487 494//494 483//483
f 483//483 494//494 495//495
f 483//483 495//495 485//485
f 496//496 497//497 369//369
f 498//498 499//499 500//500
f 500//500 499//499 501//501
f 500//500 501//501 502//502
f 503//503 504//504 505//505
f 505//505 504//504 506//506
f 505//505 506//506 507//507
f 508//508 509//509 510//510
f 497//497 511//511 369//369
f 369//369 511//511 512//512
f 369//369 512//512 513//513
f 513//513 514//514 369//369
f 369//369 514//514 515//515
f 369//369 515//515 516//516
f 490//490 378//378 517//517
f 517//517 378//378 369//369
f 517//517 369//369 505//505
f 505//505 369//369 516//516
f 505//505 516//516 503//503
f 508//508 510//510 518//518
f 519//519 520//520 521//521
f 507//507 522//522 505//505
f 505//505 522//522 523//523
f 505//505 523//523 501//501
f 501//501 523//523 524//524
f 501//501 524//524 502//502
f 498//498 525//525 499//499
f 499//499 525//525 526//526
f 499//499 526//526 508//508
f 508//508 526//526 527//527
f 508//508 527//527 509//509
f 519//519 521//521 528//528
f 356//356 529//529 530//530
f 530//530 531//531 356//356
f 356//356 531//531 532//532
f 356//356 532//532 533//533
f 510//510 534//534 518//518
f 518//518 534//534 535//535
f 518//518 535//535 521//521
f 521//521 535//535 536//536
f 521//521 536//536 528//528
f 533//533 537//537 356//356
f 356//356 537//537 538//538
f 356//356 538//538 369//369
f 369//369 538//538 539//539
f 369//369 539//539 496//496
f 540//540 541//541 360//360
f 360//360 541//541 542//542
f 360//360 542//542 365//365
f 365//365 542//542 521//521
f 365//365 521//521 356//356
f 356//356 521//521 520//520
f 356//356 520//520 529//529
f 543//543 360//360 359//359
f 359//359 360//360 362//362
f 359//359 362//362 357//357
f 543//543 544//544 360//360
f 360//360 544//544 545//545
f 360//360 545//545 546//546
f 547//547 548//548 360//360
f 360//360 548//548 549//549
f 360//360 549//549 550//550
f 546//546 551//551 360//360
f 360//360 551//551 552//552
f 360//360 552//552 547//547
f 550//550 553//553 360//360
f 360//360 553//553 554//554
f 360//360 554//554 540//540
f 555//555 556//556 557//557
f 558//558 557//557 559//559
f 559//559 557//557 560//560
f 556//556 561//561 557//557
f 557//557 561//561 562//562
f 557//557 562//562 560//560
f 563//563 564//564 565//565
f 566//566 567//567 568//568
f 568//568 567//567 569//569
f 568//568 569//569 570//570
f 570//570 571//571 568//568
f 568//568 571//571 572//572
f 568//568 572//572 573//573
f 573//573 574//574 568//568
f 568//568 574//574 575//575
f 568//568 575//575 576//576
f 576//576 577//577 568//568
f 568//568 577//577 578//578
f 568//568 578//578 557//557
f 557//557 578//578 579//579
f 557//557 579//579 555//555
f 558//558 563//563 557//557
f 557//557 563//563 565//565
f 557//557 565//565 359//359
f 359//359 565//565 580//580
f 359//359 580//580 543//543
f 564//564 581//581 565//565
f 565//565 581//581 582//582
f 565//565 582//582 583//583
f 584//584 565//565 585//585
f 585//585 565//565 586//586
f 583//583 587//587 565//565
f 565//565 587//587 588//588
f 565//565 588//588 586//586
f 584//584 589//589 565//565
f 565//565 589//589 590//590
f 565//565 590//590 591//591
f 590//590 592//592 591//591
f 591//591 592//592 593//593
f 591//591 593//593 594//594
f 594//594 595//595 591//591
f 591//591 595//595 596//596
f 591//591 596//596 566//566
f 597//597 598//598 599//599
f 600//600 601//601 602//602
f 603//603 604//604 605//605
f 604//604 606//606 605//605
f 605//605 606//606 607//607
f 605//605 607//607 608//608
f 609//609 610//610 611//611
f 601//601 612//612 602//602
f 602//602 612//612 613//613
f 602//602 613//613 614//614
f 608//608 615//615 605//605
f 605//605 615//615 616//616
f 605//605 616//616 617//617
f 618//618 619//619 602//602
f 617//617 620//620 605//605
f 605//605 620//620 621//621
f 605//605 621//621 622//622
f 566//566 568//568 591//591
f 591//591 568//568 605//605
f 591//591 605//605 599//599
f 599//599 605//605 622//622
f 599//599 622//622 597//597
f 619//619 623//623 602//602
f 602//602 623//623 624//624
f 602//602 624//624 600//600
f 598//598 625//625 599//599
f 599//599 625//625 626//626
f 599//599 626//626 627//627
f 627//627 628//628 599//599
f 599//599 628//628 629//629
f 599//599 629//629 609//609
f 609//609 629//629 630//630
f 609//609 630//630 631//631
f 609//609 611//611 602//602
f 602//602 611//611 632//632
f 602//602 632//632 618//618
f 631//631 633//633 609//609
f 609//609 633//633 634//634
f 609//609 634//634 635//635
f 635//635 636//636 609//609
f 609//609 636//636 637//637
f 609//609 637//637 610//610
f 638//638 639//639 640//640
f 640//640 639//639 641//641
f 391//391 642//642 397//397
f 397//397 642//642 643//643
f 397//397 643//643 641//641
f 641//641 643//643 644//644
f 641//641 644//644 640//640
f 645//645 646//646 647//647
f 648//648 649//649 392//392
f 648//648 392//392 650//650
f 651//651 652//652 391//391
f 391//391 652//652 653//653
f 646//646 654//654 647//647
f 647//647 654//654 655//655
f 647//647 655//655 656//656
f 656//656 657//657 647//647
f 647//647 657//657 658//658
f 647//647 658//658 659//659
f 649//649 660//660 392//392
f 392//392 660//660 661//661
f 392//392 661//661 662//662
f 662//662 663//663 392//392
f 392//392 663//663 664//664
f 392//392 664//664 665//665
f 665//665 666//666 392//392
f 392//392 666//666 667//667
f 392//392 667//667 391//391
f 391//391 667//667 668//668
f 391//391 668//668 651//651
f 653//653 669//669 391//391
f 391//391 669//669 670//670
f 391//391 670//670 671//671
f 391//391 672//672 642//642
f 642//642 672//672 673//673
f 642//642 673//673 674//674
f 674//674 675//675 642//642
f 642//642 675//675 676//676
f 642//642 676//676 677//677
f 671//671 678//678 391//391
f 391//391 678//678 679//679
f 391//391 679//679 672//672
f 677//677 680//680 642//642
f 642//642 680//680 681//681
f 642//642 681//681 647//647
f 647//647 681//681 682//682
f 647//647 682//682 645//645
f 659//659 650//650 647//647
f 647//647 650//650 392//392
f 647//647 392//392 683//683
f 683//683 392//392 374//374
f 683//683 374//374 684//684
f 348//348 351//351 374//374
f 374//374 351//351 353//353
f 374//374 353//353 684//684
f 684//684 353//353 453//453
f 684//684 453//453 685//685
f 685//685 453//453 686//686
f 686//686 453//453 424//424
f 686//686 424//424 687//687
f 687//687 424//424 688//688
f 687//687 688//688 689//689
f 689//689 688//688 690//690
f 689//689 690//690 638//638
f 638//638 690//690 691//691
f 638//638 691//691 639//639
f 489//489 350//350 487//487
f 487//487 350//350 349//349
f 487//487 349//349 378//378
f 378//378 349//349 374//374
f 378//378 374//374 386//386
f 386//386 374//374 385//385
f 358//358 397//397 359//359
f 359//359 397//397 641//641
f 359//359 641//641 557//557
f 557//557 641//641 639//639
f 557//557 639//639 568//568
f 568//568 639//639 691//691
f 568//568 691//691 605//605
f 432//432 433//433 424//424
f 424//424 433//433 421//421
f 424//424 421//421 688//688
f 688//688 421//421 692//692
f 688//688 692//692 690//690
f 690//690 692//692 693//693
f 690//690 693//693 691//691
f 691//691 693//693 694//694
f 691//691 694//694 605//605
f 605//605 694//694 602//602
f 605//605 602//602 603//603
f 603//603 602//602 614//614
f 57//57 351//351 348//348
f 57//57 348//348 3//3
f 3//3 348//348 350//350
f 3//3 350//350 1//1
f 1//1 350//350 489//489
f 1//1 489//489 287//287
f 287//287 489//489 488//488
f 287//287 488//488 281//281
f 281//281 488//488 486//486
f 281//281 486//486 282//282
f 282//282 486//486 483//483
f 282//282 483//483 284//284
f 284//284 483//483 482//482
f 284//284 482//482 285//285
f 285//285 482//482 484//484
f 285//285 484//484 286//286
f 286//286 484//484 485//485
f 286//286 485//485 288//288
f 288//288 485//485 495//495
f 288//288 495//495 289//289
f 289//289 495//495 494//494
f 289//289 494//494 290//290
f 290//290 494//494 493//493
f 290//290 493//493 276//276
f 276//276 493//493 492//492
f 276//276 492//492 277//277
f 277//277 492//492 491//491
f 277//277 491//491 278//278
f 278//278 491//491 490//490
f 278//278 490//490 279//279
f 279//279 490//490 517//517
f 279//279 517//517 280//280
f 280//280 517//517 505//505
f 280//280 505//505 249//249
f 249//249 505//505 501//501
f 249//249 501//501 243//243
f 243//243 501//501 499//499
f 243//243 499//499 245//245
f 245//245 499//499 508//508
f 245//245 508//508 239//239
f 239//239 508//508 518//518
f 239//239 518//518 238//238
f 238//238 518//518 521//521
f 238//238 521//521 6//6
f 6//6 521//521 542//542
f 6//6 542//542 232//232
f 232//232 542//542 541//541
f 232//232 541//541 233//233
f 233//233 541//541 540//540
f 233//233 540//540 234//234
f 234//234 540//540 554//554
f 234//234 554//554 235//235
f 235//235 554//554 553//553
f 235//235 553//553 221//221
f 221//221 553//553 550//550
f 221//221 550//550 222//222
f 222//222 550//550 549//549
f 222//222 549//549 223//223
f 223//223 549//549 548//548
f 223//223 548//548 224//224
f 224//224 548//548 547//547
f 224//224 547//547 225//225
f 225//225 547//547 552//552
f 225//225 552//552 226//226
f 226//226 552//552 551//551
f 226//226 551//551 227//227
f 227//227 551//551 546//546
f 227//227 546//546 228//228
f 228//228 546//546 545//545
f 228//228 545//545 229//229
f 229//229 545//545 544//544
f 229//229 544//544 230//230
f 230//230 544//544 543//543
f 230//230 543//543 231//231
f 231//231 543//543 580//580
f 231//231 580//580 220//220
f 37//37 386//386 38//38
f 38//38 386//386 385//385
f 38//38 385//385 34//34
f 34//34 385//385 384//384
f 34//34 384//384 35//35
f 35//35 384//384 383//383
f 35//35 383//383 39//39
f 39//39 383//383 375//375
f 39//39 375//375 40//40
f 40//40 375//375 373//373
f 40//40 373//373 27//27
f 27//27 373//373 372//372
f 27//27 372//372 25//25
f 25//25 372//372 395//395
f 25//25 395//395 21//21
f 21//21 395//395 394//394
f 21//21 394//394 19//19
f 19//19 394//394 393//393
f 19//19 393//393 17//17
f 17//17 393//393 390//390
f 17//17 390//390 22//22
f 22//22 390//390 389//389
f 22//22 389//389 23//23
f 23//23 389//389 401//401
f 23//23 401//401 24//24
f 24//24 401//401 400//400
f 24//24 400//400 14//14
f 14//14 400//400 399//399
f 14//14 399//399 15//15
f 15//15 399//399 398//398
f 15//15 398//398 7//7
f 7//7 398//398 396//396
f 7//7 396//396 8//8
f 8//8 396//396 358//358
f 8//8 358//358 13//13
f 13//13 358//358 357//357
f 13//13 357//357 12//12
f 12//12 357//357 362//362
f 12//12 362//362 10//10
f 10//10 362//362 361//361
f 10//10 361//361 48//48
f 48//48 361//361 367//367
f 48//48 367//367 49//49
f 49//49 367//367 366//366
f 49//49 366//366 51//51
f 51//51 366//366 364//364
f 51//51 364//364 52//52
f 52//52 364//364 363//363
f 52//52 363//363 53//53
f 53//53 363//363 368//368
f 53//53 368//368 54//54
f 54//54 368//368 355//355
f 54//54 355//355 41//41
f 41//41 355//355 354//354
f 41//41 354//354 42//42
f 42//42 354//354 371//371
f 42//42 371//371 45//45
f 45//45 371//371 370//370
f 45//45 370//370 46//46
f 46//46 370//370 382//382
f 46//46 382//382 47//47
f 47//47 382//382 381//381
f 47//47 381//381 28//28
f 28//28 381//381 380//380
f 28//28 380//380 29//29
f 29//29 380//380 379//379
f 29//29 379//379 31//31
f 31//31 379//379 377//377
f 31//31 377//377 32//32
f 32//32 377//377 376//376
f 32//32 376//376 33//33
f 33//33 376//376 388//388
f 33//33 388//388 36//36
f 36//36 388//388 387//387
f 36//36 387//387 37//37
f 37//37 387//387 386//386
f 609//609 151//151 599//599
f 599//599 151//151 149//149
f 599//599 149//149 591//591
f 591//591 149//149 179//179
f 591//591 179//179 565//565
f 565//565 179//179 184//184
f 565//565 184//184 580//580
f 580//580 184//184 220//220
f 117//117 406//406 99//99
f 99//99 406//406 404//404
f 99//99 404//404 86//86
f 86//86 404//404 458//458
f 86//86 458//458 56//56
f 56//56 458//458 352//352
f 56//56 352//352 57//57
f 57//57 352//352 351//351
f 406//406 117//117 421//421
f 421//421 117//117 104//104
f 421//421 104//104 692//692
f 692//692 104//104 345//345
f 692//692 345//345 693//693
f 693//693 345//345 346//346
f 693//693 346//346 694//694
f 694//694 346//346 347//347
f 694//694 347//347 602//602
f 602//602 347//347 144//144
f 602//602 144//144 609//609
f 609//609 144//144 151//151
f 519//519 5//5 520//520
f 520//520 5//5 4//4
f 520//520 4//4 529//529
f 529//529 4//4 269//269
f 529//529 269//269 530//530
f 530//530 269//269 268//268
f 530//530 268//268 531//531
f 531//531 268//268 267//267
f 531//531 267//267 532//532
f 532//532 267//267 266//266
f 532//532 266//266 533//533
f 533//533 266//266 265//265
f 533//533 265//265 537//537
f 537//537 265//265 264//264
f 537//537 264//264 538//538
f 538//538 264//264 257//257
f 538//538 257//257 539//539
f 539//539 257//257 258//258
f 539//539 258//258 496//496
f 496//496 258//258 259//259
f 496//496 259//259 497//497
f 497//497 259//259 256//256
f 497//497 256//256 511//511
f 511//511 256//256 255//255
f 511//511 255//255 512//512
f 512//512 255//255 254//254
f 512//512 254//254 513//513
f 513//513 254//254 253//253
f 513//513 253//253 514//514
f 514//514 253//253 252//252
f 514//514 252//252 515//515
f 515//515 252//252 251//251
f 515//515 251//251 516//516
f 516//516 251//251 272//272
f 516//516 272//272 503//503
f 503//503 272//272 271//271
f 503//503 271//271 504//504
f 504//504 271//271 270//270
f 504//504 270//270 506//506
f 506//506 270//270 248//248
f 506//506 248//248 507//507
f 507//507 248//248 247//247
f 507//507 247//247 522//522
f 522//522 247//247 263//263
f 522//522 263//263 523//523
f 523//523 263//263 275//275
f 523//523 275//275 524//524
f 524//524 275//275 274//274
f 524//524 274//274 502//502
f 502//502 274//274 273//273
f 502//502 273//273 500//500
f 500//500 273//273 242//242
f 500//500 242//242 498//498
f 498//498 242//242 244//244
f 498//498 244//244 525//525
f 525//525 244//244 246//246
f 525//525 246//246 526//526
f 526//526 246//246 250//250
f 526//526 250//250 527//527
f 527//527 250//250 241//241
f 527//527 241//241 509//509
f 509//509 241//241 240//240
f 509//509 240//240 510//510
f 510//510 240//240 262//262
f 510//510 262//262 534//534
f 534//534 262//262 261//261
f 534//534 261//261 535//535
f 535//535 261//261 260//260
f 535//535 260//260 536//536
f 536//536 260//260 237//237
f 536//536 237//237 528//528
f 528//528 237//237 236//236
f 528//528 236//236 519//519
f 519//519 236//236 5//5
f 679//679 323//323 672//672
f 672//672 323//323 322//322
f 672//672 322//322 673//673
f 673//673 322//322 321//321
f 673//673 321//321 674//674
f 674//674 321//321 320//320
f 674//674 320//320 675//675
f 675//675 320//320 319//319
f 675//675 319//319 676//676
f 676//676 319//319 318//318
f 676//676 318//318 677//677
f 677//677 318//318 295//295
f 677//677 295//295 680//680
f 680//680 295//295 294//294
f 680//680 294//294 681//681
f 681//681 294//294 312//312
f 681//681 312//312 682//682
f 682//682 312//312 311//311
f 682//682 311//311 645//645
f 645//645 311//311 310//310
f 645//645 310//310 646//646
f 646//646 310//310 309//309
f 646//646 309//309 654//654
f 654//654 309//309 308//308
f 654//654 308//308 655//655
f 655//655 308//308 307//307
f 655//655 307//307 656//656
f 656//656 307//307 306//306
f 656//656 306//306 657//657
f 657//657 306//306 317//317
f 657//657 317//317 658//658
f 658//658 317//317 316//316
f 658//658 316//316 659//659
f 659//659 316//316 304//304
f 659//659 304//304 650//650
f 650//650 304//304 303//303
f 650//650 303//303 648//648
f 648//648 303//303 329//329
f 648//648 329//329 649//649
f 649//649 329//329 328//328
f 649//649 328//328 660//660
f 660//660 328//328 327//327
f 660//660 327//327 661//661
f 661//661 327//327 326//326
f 661//661 326//326 662//662
f 662//662 326//326 325//325
f 662//662 325//325 663//663
f 663//663 325//325 324//324
f 663//663 324//324 664//664
f 664//664 324//324 315//315
f 664//664 315//315 665//665
f 665//665 315//315 314//314
f 665//665 314//314 666//666
f 666//666 314//314 313//313
f 666//666 313//313 667//667
f 667//667 313//313 300//300
f 667//667 300//300 668//668
f 668//668 300//300 301//301
f 668//668 301//301 651//651
f 651//651 301//301 302//302
f 651//651 302//302 652//652
f 652//652 302//302 299//299
f 652//652 299//299 653//653
f 653//653 299//299 298//298
f 653//653 298//298 669//669
f 669//669 298//298 297//297
f 669//669 297//297 670//670
f 670//670 297//297 293//293
f 670//670 293//293 671//671
f 671//671 293//293 292//292
f 671//671 292//292 678//678
f 678//678 292//292 291//291
f 678//678 291//291 679//679
f 679//679 291//291 323//323
f 132//132 415//415 131//131
f 131//131 415//415 414//414
f 131//131 414//414 130//130
f 130//130 414//414 413//413
f 130//130 413//413 133//133
f 133//133 413//413 412//412
f 133//133 412//412 134//134
f 134//134 412//412 411//411
f 134//134 411//411 115//115
f 115//115 411//411 408//408
f 115//115 408//408 116//116
f 116//116 408//408 407//407
f 116//116 407//407 118//118
f 118//118 407//407 437//437
f 118//118 437//437 119//119
f 119//119 437//437 436//436
f 119//119 436//436 102//102
f 102//102 436//436 435//435
f 102//102 435//435 103//103
f 103//103 435//435 422//422
f 103//103 422//422 105//105
f 105//105 422//422 420//420
f 105//105 420//420 106//106
f 106//106 420//420 419//419
f 106//106 419//419 120//120
f 120//120 419//419 442//442
f 120//120 442//442 121//121
f 121//121 442//442 441//441
f 121//121 441//441 122//122
f 122//122 441//441 440//440
f 122//122 440//440 123//123
f 123//123 440//440 439//439
f 123//123 439//439 124//124
f 124//124 439//439 438//438
f 124//124 438//438 107//107
f 107//107 438//438 434//434
f 107//107 434//434 108//108
f 108//108 434//434 433//433
f 108//108 433//433 125//125
f 125//125 433//433 432//432
f 125//125 432//432 126//126
f 126//126 432//432 431//431
f 126//126 431//431 127//127
f 127//127 431//431 430//430
f 127//127 430//430 128//128
f 128//128 430//430 429//429
f 128//128 429//429 129//129
f 129//129 429//429 428//428
f 129//129 428//428 109//109
f 109//109 428//428 427//427
f 109//109 427//427 110//110
f 110//110 427//427 426//426
f 110//110 426//426 112//112
f 112//112 426//426 425//425
f 112//112 425//425 100//100
f 100//100 425//425 423//423
f 100//100 423//423 101//101
f 101//101 423//423 418//418
f 101//101 418//418 113//113
f 113//113 418//418 417//417
f 113//113 417//417 114//114
f 114//114 417//417 416//416
f 114//114 416//416 97//97
f 97//97 416//416 405//405
f 97//97 405//405 98//98
f 98//98 405//405 403//403
f 98//98 403//403 135//135
f 135//135 403//403 402//402
f 135//135 402//402 136//136
f 136//136 402//402 410//410
f 136//136 410//410 137//137
f 137//137 410//410 409//409
f 137//137 409//409 132//132
f 132//132 409//409 415//415
f 177//177 603//603 178//178
f 178//178 603//603 614//614
f 178//178 614//614 173//173
f 173//173 614//614 613//613
f 173//173 613//613 174//174
f 174//174 613//613 612//612
f 174//174 612//612 175//175
f 175//175 612//612 601//601
f 175//175 601//601 142//142
f 142//142 601//601 600//600
f 142//142 600//600 143//143
f 143//143 600//600 624//624
f 143//143 624//624 145//145
f 145//145 624//624 623//623
f 145//145 623//623 146//146
f 146//146 623//623 619//619
f 146//146 619//619 153//153
f 153//153 619//619 618//618
f 153//153 618//618 152//152
f 152//152 618//618 632//632
f 152//152 632//632 150//150
f 150//150 632//632 611//611
f 150//150 611//611 154//154
f 154//154 611//611 610//610
f 154//154 610//610 155//155
f 155//155 610//610 637//637
f 155//155 637//637 156//156
f 156//156 637//637 636//636
f 156//156 636//636 157//157
f 157//157 636//636 635//635
f 157//157 635//635 158//158
f 158//158 635//635 634//634
f 158//158 634//634 159//159
f 159//159 634//634 633//633
f 159//159 633//633 160//160
f 160//160 633//633 631//631
f 160//160 631//631 161//161
f 161//161 631//631 630//630
f 161//161 630//630 162//162
f 162//162 630//630 629//629
f 162//162 629//629 147//147
f 147//147 629//629 628//628
f 147//147 628//628 148//148
f 148//148 628//628 627//627
f 148//148 627//627 163//163
f 163//163 627//627 626//626
f 163//163 626//626 164//164
f 164//164 626//626 625//625
f 164//164 625//625 165//165
f 165//165 625//625 598//598
f 165//165 598//598 166//166
f 166//166 598//598 597//597
f 166//166 597//597 167//167
f 167//167 597//597 622//622
f 167//167 622//622 168//168
f 168//168 622//622 621//621
f 168//168 621//621 169//169
f 169//169 621//621 620//620
f 169//169 620//620 138//138
f 138//138 620//620 617//617
f 138//138 617//617 139//139
f 139//139 617//617 616//616
f 139//139 616//616 141//141
f 141//141 616//616 615//615
f 141//141 615//615 170//170
f 170//170 615//615 608//608
f 170//170 608//608 171//171
f 171//171 608//608 607//607
f 171//171 607//607 172//172
f 172//172 607//607 606//606
f 172//172 606//606 176//176
f 176//176 606//606 604//604
f 176//176 604//604 177//177
f 177//177 604//604 603//603
f 218//218 578//578 219//219
f 219//219 578//578 577//577
f 219//219 577//577 200//200
f 200//200 577//577 576//576
f 200//200 576//576 201//201
f 201//201 576//576 575//575
f 201//201 575//575 204//204
f 204//204 575//575 574//574
f 204//204 574//574 205//205
f 205//205 574//574 573//573
f 205//205 573//573 206//206
f 206//206 573//573 572//572
f 206//206 572//572 213//213
f 213//213 572//572 571//571
f 213//213 571//571 214//214
f 214//214 571//571 570//570
f 214//214 570//570 190//190
f 190//190 570//570 569//569
f 190//190 569//569 191//191
f 191//191 569//569 567//567
f 191//191 567//567 207//207
f 207//207 567//567 566//566
f 207//207 566//566 208//208
f 208//208 566//566 596//596
f 208//208 596//596 215//215
f 215//215 596//596 595//595
f 215//215 595//595 216//216
f 216//216 595//595 594//594
f 216//216 594//594 192//192
f 192//192 594//594 593//593
f 192//192 593//593 193//193
f 193//193 593//593 592//592
f 193//193 592//592 209//209
f 209//209 592//592 590//590
f 209//209 590//590 185//185
f 185//185 590//590 589//589
f 185//185 589//589 186//186
f 186//186 589//589 584//584
f 186//186 584//584 194//194
f 194//194 584//584 585//585
f 194//194 585//585 195//195
f 195//195 585//585 586//586
f 195//195 586//586 196//196
f 196//196 586//586 588//588
f 196//196 588//588 202//202
f 202//202 588//588 587//587
f 202//202 587//587 203//203
f 203//203 587//587 583//583
f 203//203 583//583 189//189
f 189//189 583//583 582//582
f 189//189 582//582 187//187
f 187//187 582//582 581//581
f 187//187 581//581 188//188
f 188//188 581//581 564//564
f 188//188 564//564 181//181
f 181//181 564//564 563//563
f 181//181 563//563 182//182
f 182//182 563//563 558//558
f 182//182 558//558 197//197
f 197//197 558//558 559//559
f 197//197 559//559 198//198
f 198//198 559//559 560//560
f 198//198 560//560 199//199
f 199//199 560//560 562//562
f 199//199 562//562 210//210
f 210//210 562//562 561//561
f 210//210 561//561 211//211
f 211//211 561//561 556//556
f 211//211 556//556 212//212
f 212//212 556//556 555//555
f 212//212 555//555 217//217
f 217//217 555//555 579//579
f 217//217 579//579 218//218
f 218//218 579//579 578//578
f 94//94 443//443 95//95
f 95//95 443//443 471//471
f 95//95 471//471 96//96
f 96//96 471//471 470//470
f 96//96 470//470 84//84
f 84//84 470//470 469//469
f 84//84 469//469 85//85
f 85//85 469//469 460//460
f 85//85 460//460 87//87
f 87//87 460//460 459//459
f 87//87 459//459 88//88
f 88//88 459//459 457//457
f 88//88 457//457 70//70
f 70//70 457//457 456//456
f 70//70 456//456 71//71
f 71//71 456//456 455//455
f 71//71 455//455 72//72
f 72//72 455//455 454//454
f 72//72 454//454 73//73
f 73//73 454//454 452//452
f 73//73 452//452 74//74
f 74//74 452//452 451//451
f 74//74 451//451 75//75
f 75//75 451//451 481//481
f 75//75 481//481 92//92
f 92//92 481//481 480//480
f 92//92 480//480 93//93
f 93//93 480//480 479//479
f 93//93 479//479 60//60
f 60//60 479//479 478//478
f 60//60 478//478 61//61
f 61//61 478//478 477//477
f 61//61 477//477 76//76
f 76//76 477//477 476//476
f 76//76 476//476 77//77
f 77//77 476//476 475//475
f 77//77 475//475 78//78
f 78//78 475//475 474//474
f 78//78 474//474 63//63
f 63//63 474//474 468//468
f 63//63 468//468 64//64
f 64//64 468//468 467//467
f 64//64 467//467 65//65
f 65//65 467//467 473//473
f 65//65 473//473 79//79
f 79//79 473//473 472//472
f 79//79 472//472 80//80
f 80//80 472//472 466//466
f 80//80 466//466 58//58
f 58//58 466//466 465//465
f 58//58 465//465 59//59
f 59//59 465//465 464//464
f 59//59 464//464 66//66
f 66//66 464//464 463//463
f 66//66 463//463 67//67
f 67//67 463//463 462//462
f 67//67 462//462 68//68
f 68//68 462//462 461//461
f 68//68 461//461 69//69
f 69//69 461//461 448//448
f 69//69 448//448 81//81
f 81//81 448//448 447//447
f 81//81 447//447 82//82
f 82//82 447//447 450//450
f 82//82 450//450 83//83
f 83//83 450//450 449//449
f 83//83 449//449 89//89
f 89//89 449//449 446//446
f 89//89 446//446 90//90
f 90//90 446//446 445//445
f 90//90 445//445 91//91
f 91//91 445//445 444//444
f 91//91 444//444 94//94
f 94//94 444//444 443//443
f 331//331 333//333 342//342 341//341
f 333//333 335//335 343//343 342//342
f 684//684 341//341 683//683
f 683//683 341//341 340//340
f 683//683 340//340 647//647
f 647//647 340//340 305//305
f 647//647 305//305 642//642
f 642//642 305//305 296//296
f 642//642 296//296 643//643
f 643//643 296//296 332//332
f 643//643 332//332 644//644
f 644//644 332//332 331//331
f 335//335 638//638 686//686 343//343
f 638//638 640//640 685//685 686//686
f 640//640 644//644 684//684 685//685
f 644//644 331//331 341//341 684//684
f 638//638 335//335 689//689
f 689//689 335//335 337//337
f 689//689 337//337 687//687
f 687//687 337//337 344//344
f 687//687 344//344 686//686
f 686//686 344//344 343//343
# 1414 faces, 0 coords texture

# End of File
