# deformed COACD convex decomposition
mtllib bracket_uniform_scale_2_coacd.mtl
o coacd_part_0000
usemtl coacd_part_0000
v -0.05505788 0.02 0.14
v -0.09519608 0.02 0.14
v -0.05505788 -0.02 0.14
v -0.05505788 0.02 0.1
v -0.09519608 -0.02 0.14
v -0.09519608 0.02 0.02358436
v -0.05505788 -0.02 0.1
v -0.05520326 0.02 0.02358436
v -0.09519608 -0.02 0.02358436
v -0.05520326 -0.02 0.02358436
f 1 2 5
f 6 10 9
f 6 8 10
f 4 10 8
f 3 10 7
f 3 9 10
f 3 5 9
f 2 9 5
f 4 7 10
f 1 6 2
f 1 8 6
f 1 4 8
f 1 7 4
f 1 3 7
f 1 5 3
f 2 6 9
o coacd_part_0001
usemtl coacd_part_0001
v 0.05516716 0.02 0.13999608
v 0.05516716 -0.02 0.13999608
v 0.05516716 0.02 0.10000784
v -0.05504708 0.02 0.13999608
v 0.05516716 -0.02 0.11467502
v -0.05504708 -0.02 0.13999608
v 0.05516716 7.84e-06 0.1
v 6.08e-06 0.02 0.10000392
v -0.05504708 0.02 0.10000392
v 0.05516716 -0.01998826 0.1
v 6.08e-06 -0.02 0.10000392
v -0.05504708 -0.02 0.10000392
f 12 21 15
f 17 19 18
f 17 22 19
f 17 21 22
f 15 21 20
f 14 22 16
f 14 19 22
f 13 17 18
f 12 22 21
f 17 20 21
f 11 16 12
f 11 15 20
f 11 20 17
f 11 17 13
f 11 12 15
f 11 18 19
f 11 19 14
f 11 14 16
f 11 13 18
f 12 16 22
o coacd_part_0002
usemtl coacd_part_0002
v 0.0952 0.02 0.14
v 0.05517794 0.02 0.14
v 0.0952 -0.02 0.14
v 0.0952 0.02 0.02358436
v 0.05517794 -0.02 0.14
v 0.05517794 0.02 0.10000206
v 0.0952 -0.02 0.02358436
v 0.05520144 0.02 0.02358436
v 0.05517794 -0.02 0.11466798
v 0.05517794 7.84e-06 0.1
v 0.05520144 -0.02 0.02358436
v 0.05517794 -0.01998826 0.1
f 31 34 33
f 24 31 27
f 30 34 32
f 30 33 34
f 28 30 32
f 26 33 30
f 26 29 33
f 25 33 29
f 25 31 33
f 25 27 31
f 24 34 31
f 24 28 32
f 23 28 24
f 23 30 28
f 23 26 30
f 23 29 26
f 23 25 29
f 23 27 25
f 23 24 27
f 24 32 34
o coacd_part_0003
usemtl coacd_part_0003
v 0.2 0.02010788 0.01999916
v 0.09518402 0.02 0.02358436
v 0.2 -0.02011922 0.01999916
v 0.2 0.02010788 0
v -0.2 0.02010788 0.01999916
v 0.09518402 -0.02 0.02358436
v -0.09518402 0.02 0.02358436
v 0.2 -0.02011922 1.887379142e-17
v -0.2 -0.02011922 0.01999916
v -0.2 0.02010788 0
v -0.09518402 -0.02 0.02358436
v -0.2 -0.02011922 0
f 37 43 46
f 37 46 42
f 38 42 46
f 37 45 43
f 39 46 43
f 39 43 45
f 39 45 41
f 38 46 44
f 37 40 45
f 39 44 46
f 36 41 45
f 35 36 40
f 35 37 42
f 36 45 40
f 35 42 38
f 35 40 37
f 35 44 39
f 35 39 41
f 35 41 36
f 35 38 44
o coacd_part_0004
usemtl coacd_part_0004
v 0.2 0.14999578 0.02
v 0.2 0.1068099 0.02
v 0.2 0.14999578 1.96e-06
v 0.14565688 0.14999578 0.02
v 0.2 0.1068099 1.96e-06
v 0.1644876 0.1068099 0.02
v 0.14565688 0.14999578 0
v 0.1456575321 0.128971042 0.02
v 0.1644876 0.1068099 0
v 0.1456575321 0.128971042 1.96e-06
f 49 51 55
f 52 56 55
f 52 54 56
f 50 56 54
f 50 53 56
f 49 56 53
f 49 55 56
f 48 55 51
f 47 52 48
f 47 54 52
f 47 50 54
f 47 53 50
f 47 49 53
f 47 51 49
f 47 48 51
f 48 52 55
o coacd_part_0005
usemtl coacd_part_0005
v -0.16457108 -0.10466136 0.02
v -0.15457432 -0.12470782 0.02
v -0.16457108 -0.10466136 0
v -0.2 -0.10466136 0.02
v -0.15457432 -0.12470782 0
v -0.15457432 -0.14999556 0.02
v -0.2 -0.10466136 1.96e-06
v -0.2 -0.14999556 0.02
v -0.15457432 -0.14999556 0
v -0.2 -0.14999556 1.96e-06
f 59 61 65
f 62 64 66
f 62 66 65
f 60 63 66
f 59 66 63
f 59 65 66
f 58 65 61
f 60 66 64
f 57 62 58
f 57 64 62
f 57 60 64
f 57 63 60
f 57 59 63
f 57 61 59
f 57 58 61
f 58 62 65
o coacd_part_0006
usemtl coacd_part_0006
v 0.11479484 0.1068099 0.02
v 0.1147954693 0.1068098733 1.96e-06
v 0.10476192 0.1068099 0.02
v 0.12086344 0.08821512 0.02
v 0.10476192 0.1068099 0
v 0.1208681568 0.08821860819 6.068e-05
v 0.12086344 0.08820664 0
v 0.10476192 0.02010788 0.02
v 0.12086344 0.02010788 0.02
v 0.10476192 0.02010788 0
v 0.12086344 0.02010788 0
f 74 77 75
f 74 76 77
f 70 73 72
f 70 75 77
f 69 76 74
f 69 71 76
f 68 76 71
f 68 77 76
f 70 77 73
f 68 72 73
f 67 72 68
f 67 70 72
f 67 75 70
f 67 74 75
f 67 69 74
f 67 71 69
f 67 68 71
f 68 73 77
o coacd_part_0007
usemtl coacd_part_0007
v 0.10476192 0.1068099 0
v 0.10476192 0.1068099 0.02
v 0.10476192 0.12543278 0
v 0.1147954709 0.1068099114 1.96e-06
v 0.10476192 0.12543278 0.02
v 0.1147954709 0.1068099114 0.02
v 0.1256294507 0.1254338813 1.960008893e-06
v 0.1256294507 0.1254338813 0.01999999999
f 81 85 83
f 81 84 85
f 80 85 84
f 80 82 85
f 79 85 82
f 79 83 85
f 78 81 83
f 78 84 81
f 78 80 84
f 78 82 80
f 78 79 82
f 78 83 79
o coacd_part_0008
usemtl coacd_part_0008
v 0.14565688 0.15 0.02
v 0.14565688 0.12897176 0.02
v 0.14565688 0.15 1.96e-06
v 0.10476192 0.15 0.02
v 0.12562972 0.12543458 0.02
v 0.145656779 0.1289711711 1.96e-06
v 0.10476192 0.15 1.96e-06
v 0.10476192 0.12543458 0.02
v 0.1256299553 0.1254342887 1.959997647e-06
v 0.10476192 0.12543458 0
f 88 91 94
f 90 95 94
f 89 95 93
f 89 92 95
f 88 95 92
f 88 94 95
f 87 94 91
f 90 93 95
f 86 90 87
f 86 87 91
f 86 91 88
f 86 88 92
f 87 90 94
f 86 89 93
f 86 92 89
f 86 93 90
o coacd_part_0009
usemtl coacd_part_0009
v 0.1411275 0.02011456 0
v 0.1411275 0.02011456 0.02
v 0.1411275 0.07984942 0
v 0.2 0.02011456 1.96e-06
v 0.2 0.02011456 0.02
v 0.1411275 0.07984942 0.02
v 0.1585613169 0.08842233456 1.959997369e-06
v 0.2 0.08842214 1.96e-06
v 0.2 0.08842214 0.02
v 0.15856158 0.08842214 0.02
f 102 104 103
f 102 105 104
f 99 104 100
f 99 103 104
f 98 105 102
f 98 101 105
f 97 104 105
f 97 105 101
f 96 100 97
f 96 99 100
f 96 103 99
f 96 102 103
f 96 98 102
f 96 101 98
f 96 97 101
f 97 100 104
o coacd_part_0010
usemtl coacd_part_0010
v 0.15856524 0.08842394 0
v 0.1585620281 0.08842331275 0.001229440008
v 0.16448738 0.1068099 0
v 0.19999594 0.08842394 0
v 0.1585620281 0.08842331275 0.01877055999
v 0.16448738 0.1068099 0.02
v 0.19999594 0.1068099 0
v 0.19999594 0.08842394 0.02
v 0.15856524 0.08842394 0.02
v 0.19999594 0.1068099 0.02
f 108 111 115
f 111 114 113
f 110 114 111
f 109 115 113
f 109 112 115
f 108 115 112
f 107 111 108
f 111 113 115
f 106 110 107
f 106 114 110
f 106 113 114
f 106 109 113
f 106 112 109
f 106 108 112
f 106 107 108
f 107 110 111
o coacd_part_0011
usemtl coacd_part_0011
v 0.12086502 0.02011454 0
v 0.14112174 0.02011454 0
v 0.12086502 0.02011454 0.02
v 0.12086502 0.08820284 0
v 0.14112174 0.02011454 0.02
v 0.1411216888 0.0798557612 1.960000512e-06
v 0.12086502 0.08822284 0.02
v 0.1208650247 0.08822284346 6.068e-05
v 0.12087296 0.0882095 0
v 0.14112174 0.07985516 0.02
f 121 123 122
f 121 124 123
f 119 123 124
f 118 125 122
f 118 120 125
f 117 125 120
f 117 121 125
f 121 122 125
f 116 124 121
f 116 121 117
f 116 117 120
f 116 120 118
f 116 118 122
f 116 122 123
f 116 123 119
f 116 119 124
o coacd_part_0012
usemtl coacd_part_0012
v 0.13973498 -0.07981396 0
v 0.1641913897 -0.1004146165 1.959988097e-06
v 0.13973498 -0.07981396 0.02
v 0.13973498 -0.02011922 0
v 0.2 -0.10041436 1.96e-06
v 0.16419258 -0.10041436 0.02
v 0.13973498 -0.02011922 0.02
v 0.2 -0.02011922 1.96e-06
v 0.2 -0.10041436 0.02
v 0.2 -0.02011922 0.02
f 130 135 134
f 130 133 135
f 129 135 133
f 129 132 135
f 128 135 132
f 128 131 134
f 127 134 131
f 128 134 135
f 126 133 130
f 126 129 133
f 126 132 129
f 126 128 132
f 126 131 128
f 126 127 131
f 126 130 127
f 127 130 134
o coacd_part_0013
usemtl coacd_part_0013
v -0.2 0.02010788 0.01004064
v -0.13941576 0.02010788 0.02
v -0.2 0.02010788 0.01999902
v -0.2 0.10041002 0.01004064
v -0.13941576 0.02010788 0.02
v -0.1394160704 0.07974860722 0.01004064
v -0.2 0.10041002 0.01999902
v -0.1641995022 0.1004102169 0.01004064
v -0.13941576 0.07974496 0.02
v -0.16420104 0.10041002 0.02
f 141 145 144
f 137 144 140
f 141 143 145
f 139 145 143
f 139 142 145
f 138 145 142
f 138 144 145
f 138 140 144
f 137 141 144
f 136 143 141
f 136 139 143
f 136 142 139
f 136 138 142
f 136 140 138
f 136 137 140
f 136 141 137
o coacd_part_0014
usemtl coacd_part_0014
v -0.2 -0.10466136 1.96e-06
v -0.16457108 -0.10466136 0
v -0.2 -0.10466136 0.02
v -0.2 -0.02011922 1.96e-06
v -0.16457108 -0.10466136 0.02
v -0.15457432 -0.08476714 0
v -0.2 -0.02011922 0.02
v -0.15457432 -0.02011922 0
v -0.15457432 -0.08476714 0.02
v -0.15457432 -0.02011922 0.02
f 151 155 154
f 151 153 155
f 149 155 153
f 149 152 155
f 148 155 152
f 148 154 155
f 148 150 154
f 147 154 150
f 147 151 154
f 146 151 147
f 146 153 151
f 146 149 153
f 146 152 149
f 146 148 152
f 146 150 148
f 146 147 150
o coacd_part_0015
usemtl coacd_part_0015
v 0.10476192 0.08825386 0.02
v 0.10476192 0.02011454 0.02
v 0.10476192 0.08825386 0
v -0.1208371491 0.08826053724 0.01003964
v 0.10476192 0.02011454 0
v -0.13973498 0.02011454 0.02
v -0.12082812 0.08825386 0
v -0.1397348013 0.07973771945 0.01003964
v -0.13973498 0.02011454 0
v -0.13973498 0.07973562 0
f 161 163 165
f 159 165 163
f 159 162 165
f 158 165 162
f 158 164 165
f 158 160 164
f 157 164 160
f 161 165 164
f 156 161 157
f 156 163 161
f 156 159 163
f 156 162 159
f 156 158 162
f 156 160 158
f 156 157 160
f 157 161 164
o coacd_part_0016
usemtl coacd_part_0016
v 0.13973498 -0.02011922 0.02
v 0.13973498 -0.07981396 0.02
v 0.13973498 -0.02011922 0
v -0.10476192 -0.02011922 0.02
v 0.13973498 -0.07981396 0
v 0.11508426 -0.10041436 0.02
v -0.10476192 -0.02011922 0
v -0.10476192 -0.10041436 0.02
v 0.11508426 -0.10041436 0
v -0.10476192 -0.10041436 0
f 171 173 175
f 169 175 173
f 169 172 175
f 168 175 172
f 168 174 175
f 168 170 174
f 167 174 170
f 171 175 174
f 166 171 167
f 166 173 171
f 166 169 173
f 166 172 169
f 166 168 172
f 166 170 168
f 166 167 170
f 167 171 174
o coacd_part_0017
usemtl coacd_part_0017
v 0.10476192 0.10041002 0.02
v 0.10476192 0.02010788 0.02
v 0.10476192 0.10041002 0.02
v -0.115079269 0.1004100903 0.01999902001
v 0.10476192 0.02010788 0.02
v -0.13940986 0.02010788 0.02
v -0.1150793133 0.1004100959 0.01004064
v -0.13940986 0.07974496 0.02
v -0.13940986 0.02010788 0.02
v -0.1394102128 0.07974910575 0.01004064
f 181 185 184
f 181 183 185
f 179 185 183
f 179 182 185
f 178 185 182
f 178 184 185
f 178 180 184
f 177 184 180
f 177 181 184
f 176 183 181
f 176 179 183
f 176 182 179
f 176 178 182
f 176 180 178
f 176 177 180
f 176 181 177
o coacd_part_0018
usemtl coacd_part_0018
v 0.1588696 -0.14999514 0
v 0.2 -0.14999514 1.96e-06
v 0.1588696 -0.14999514 0.02
v 0.1588693199 -0.1206202128 1.959997199e-06
v 0.2 -0.14999514 0.02
v 0.2 -0.10041438 1.96e-06
v 0.1588696 -0.12062042 0.02
v 0.1641913716 -0.1004145327 1.959992916e-06
v 0.2 -0.10041438 0.02
v 0.16419208 -0.10041438 0.02
f 188 194 195
f 191 195 194
f 191 193 195
f 189 195 193
f 189 192 195
f 188 195 192
f 188 190 194
f 187 194 190
f 187 191 194
f 186 191 187
f 186 193 191
f 186 189 193
f 186 192 189
f 186 188 192
f 186 190 188
f 186 187 190
o coacd_part_0019
usemtl coacd_part_0019
v 0.1588696 -0.12062266 0.02
v 0.158868249 -0.1206216608 1.95998649e-06
v 0.13973498 -0.12972202 0.02
v 0.1588696 -0.15 0.02
v 0.1397349331 -0.1297214689 1.960000469e-06
v 0.1588696 -0.15 1.96e-06
v 0.13973498 -0.15 0.02
v 0.13973498 -0.15 1.96e-06
f 199 203 201
f 199 202 203
f 198 203 202
f 198 200 203
f 197 203 200
f 197 201 203
f 196 199 201
f 196 202 199
f 196 198 202
f 196 200 198
f 196 197 200
f 196 201 197
o coacd_part_0020
usemtl coacd_part_0020
v 0.10476192 0.11959818 0.02
v 0.10476192 0.10041004 0.02
v 0.10476192 0.11959818 0.02
v -0.1195425598 0.1195989899 0.01999901999
v 0.10476192 0.10041004 0.02
v -0.1150644 0.10041004 0.02
v -0.1195425599 0.1195989899 0.01004064
v -0.1150790799 0.1004119191 0.01004064
f 205 211 208
f 207 211 209
f 207 210 211
f 206 211 210
f 206 208 211
f 205 209 211
f 204 208 206
f 204 207 209
f 204 210 207
f 204 206 210
f 204 205 208
f 204 209 205
o coacd_part_0021
usemtl coacd_part_0021
v 0.10476192 0.15 0.01003964
v 0.10476192 0.11598658 0.02
v 0.10476192 0.15 9.8e-07
v -0.09979124 0.15 0.01003964
v 0.10476192 0.11598658 0
v -0.1173160232 0.1159841599 0.01003964
v -0.13973498 0.15 9.8e-07
v -0.13973498 0.15 0.0100308
v -0.13973498 0.1296396 0.01003964
v -0.11731 0.11598658 0
v -0.13961532 0.1296396 0.01003964
v -0.13973498 0.1296396 0.01003768
v -0.13973498 0.1296419 0
v -0.13973498 0.1296396 0.01003964
f 214 224 218
f 215 219 220
f 217 222 223
f 217 223 224
f 217 224 221
f 218 223 225
f 218 225 220
f 218 220 219
f 222 225 223
f 214 221 224
f 218 224 223
f 214 216 221
f 212 225 222
f 213 217 221
f 212 213 216
f 213 221 216
f 212 214 218
f 212 218 219
f 212 219 215
f 212 216 214
f 212 220 225
f 212 222 217
f 212 217 213
f 212 215 220
o coacd_part_0022
usemtl coacd_part_0022
v 0.10473984 0.11598326 0.02
v 0.10473984 0.08825658 0.02
v 0.10473984 0.11598326 0
v -0.1173146995 0.1159808655 0.01003964
v 0.10473984 0.08825658 0
v -0.1208329779 0.08826617753 0.01003964
v -0.08621532 0.11598326 0
v -0.1173146993 0.1159808653 6.879940407e-06
v -0.12082 0.08825658 0
v -0.11571872 0.1120475 0
f 233 235 234
f 232 235 233
f 229 234 231
f 229 233 234
f 228 235 232
f 228 234 235
f 228 230 234
f 227 234 230
f 226 231 227
f 226 229 231
f 226 233 229
f 226 232 233
f 226 228 232
f 226 230 228
f 226 227 230
f 227 231 234
o coacd_part_0023
usemtl coacd_part_0023
v 0.10476192 0.14999702 0.02
v 0.10476192 0.11960304 0.02
v 0.10476192 0.15 0.01004064
v -0.13960646 0.14999702 0.02
v 0.10476192 0.11960304 0.02
v -0.11953744 0.11960304 0.02
v -0.13960646 0.15 0.01004064
v -0.13960646 0.1296396 0.01999902
v -0.1195423335 0.1195987326 0.01004064
v -0.13960646 0.1296396 0.01004064
f 238 240 244
f 241 245 244
f 241 243 245
f 239 245 243
f 239 242 245
f 238 245 242
f 238 244 245
f 237 244 240
f 236 238 242
f 236 241 237
f 237 241 244
f 236 240 238
f 236 237 240
f 236 242 239
f 236 239 243
f 236 243 241
o coacd_part_0024
usemtl coacd_part_0024
v -0.1644788843 0.1069170338 0.01002098
v -0.1553466341 0.08528016618 0.01003964
v -0.16448186 0.10691716 0
v -0.1644866947 0.1067328031 0.01003964
v -0.1645264739 0.1057944929 0.01003964003
v -0.1553466341 0.08528016618 1.082e-05
v -0.2 0.08528016 0.01003964
v -0.1584066681 0.08821323295 9.800038812e-07
v -0.2 0.10691716 9.8e-07
v -0.17895836 0.10691716 0.02
v -0.15892206 0.08528016 0
v -0.2 0.09991098 0.01003964
v -0.2 0.08528016 9.8e-07
v -0.2 0.10691716 0.01003376
f 255 259 257
f 252 254 258
f 252 259 254
f 252 257 259
f 251 256 253
f 248 258 254
f 248 256 258
f 248 253 256
f 248 251 253
f 247 258 256
f 247 252 258
f 247 256 251
f 247 255 257
f 247 249 255
f 247 250 249
f 246 250 247
f 246 249 250
f 246 255 249
f 246 259 255
f 246 254 259
f 246 248 254
f 246 251 248
f 246 247 251
f 247 257 252
o coacd_part_0025
usemtl coacd_part_0025
v 0.12049306 -0.12074024 0.02
v 0.13973498 -0.12972296 0.02
v 0.12049306 -0.12074024 0
v -0.10476192 -0.12074024 0.02
v 0.13973498 -0.15 0.02
v 0.1397348537 -0.1297214757 1.960001263e-06
v -0.10476192 -0.12074024 0
v -0.10476192 -0.15 0.02
v 0.13973498 -0.15 1.96e-06
v -0.10476192 -0.15 1.96e-06
f 263 266 269
f 262 269 266
f 263 269 267
f 260 262 266
f 262 268 269
f 264 269 268
f 264 267 269
f 262 265 268
f 260 261 265
f 261 264 268
f 260 264 261
f 260 267 264
f 260 263 267
f 260 266 263
f 260 265 262
f 261 268 265
o coacd_part_0026
usemtl coacd_part_0026
v -0.15456762 -0.15 1.96e-06
v -0.1313094 -0.15 1.96e-06
v -0.15456762 -0.15 0.02
v -0.154568324 -0.1247053616 1.959989584e-06
v -0.1313094 -0.15 0.02
v -0.1313098441 -0.1283010775 1.959990175e-06
v -0.154568324 -0.1247053615 0.02
v -0.1313094 -0.13214744 0.02
v -0.1313098442 -0.1283010775 0.0199902
v -0.13131166 -0.12830206 0.02
f 276 279 278
f 273 278 275
f 273 276 278
f 272 279 276
f 272 277 279
f 272 274 277
f 271 277 274
f 270 273 275
f 271 275 278
f 270 275 271
f 270 276 273
f 270 272 276
f 270 274 272
f 270 271 274
f 277 278 279
f 271 278 277
o coacd_part_0027
usemtl coacd_part_0027
v -0.15973924 0.11959818 0.02
v -0.16420084 0.10041004 0.02
v -0.1597379514 0.1195970457 0.01004064
v -0.2 0.11959818 0.01999902
v -0.1641995015 0.1004102113 0.01004064
v -0.2 0.10041004 0.01999902
v -0.2 0.11959818 0.01004064
v -0.2 0.10041004 0.01004064
f 282 284 287
f 282 287 286
f 283 287 285
f 281 287 284
f 283 286 287
f 281 285 287
f 280 283 285
f 280 286 283
f 280 282 286
f 280 284 282
f 280 281 284
f 280 285 281
o coacd_part_0028
usemtl coacd_part_0028
v -0.12933412 -0.08194522 0
v -0.12933412 -0.08194522 0.02
v -0.12933412 -0.02011922 0
v -0.1147099804 -0.1046613549 1.96e-06
v -0.12933412 -0.02011922 0.02
v -0.1147099804 -0.1046613549 0.02
v -0.10476192 -0.02011922 0
v -0.10476192 -0.10466136 0
v -0.10476192 -0.02011922 0.02
v -0.10476192 -0.10466136 0.02
f 289 297 296
f 294 297 295
f 294 296 297
f 291 297 293
f 291 295 297
f 290 296 294
f 290 292 296
f 289 296 292
f 288 293 289
f 288 291 293
f 288 295 291
f 288 294 295
f 288 290 294
f 288 292 290
f 288 289 292
f 289 293 297
o coacd_part_0029
usemtl coacd_part_0029
v -0.1545698645 -0.08476859439 1.959999989e-06
v -0.1293362767 -0.08195199711 1.96e-06
v -0.1545698645 -0.08476859439 0.02
v -0.15456986 -0.02011922 0
v -0.1293362767 -0.08195199711 0.02
v -0.12933658 -0.02011922 0
v -0.15456986 -0.02011922 0.02
v -0.12933658 -0.02011922 0.02
f 300 302 305
f 300 305 304
f 299 305 302
f 301 305 303
f 301 304 305
f 299 303 305
f 298 299 302
f 298 301 303
f 298 304 301
f 298 300 304
f 298 302 300
f 298 303 299
o coacd_part_0030
usemtl coacd_part_0030
v -0.2 0.02010788 9.8e-07
v -0.2 0.02010788 0.01003964
v -0.2 0.08528016 9.8e-07
v -0.13973498 0.02010788 0
v -0.13973498 0.02010788 0.02
v -0.2 0.08528016 0.01003964
v -0.1589188 0.08528016 0
v -0.13973498 0.07973644 0
v -0.1397348706 0.07973772535 0.01003964
v -0.1553483124 0.08528177473 0.01003964
v -0.1553483124 0.08528177473 1.082e-05
v -0.15534986 0.0852738 0
f 308 311 315
f 313 315 314
f 313 316 315
f 313 317 316
f 312 316 317
f 309 314 310
f 309 313 314
f 308 316 312
f 308 315 316
f 307 315 311
f 306 307 311
f 307 310 314
f 306 310 307
f 306 309 310
f 306 313 309
f 306 317 313
f 306 312 317
f 306 308 312
f 306 311 308
f 307 314 315
o coacd_part_0031
usemtl coacd_part_0031
v -0.13973498 0.15 0.0100308
v -0.13973498 0.1296396 0.01003964
v -0.13973498 0.15 9.8e-07
v -0.15205816 0.15 0.01003964
v -0.13973498 0.1296396 0.01003964
v -0.13973498 0.1296418 0
v -0.2 0.15 9.8e-07
v -0.2 0.15 0.01003964
v -0.13973498 0.1296396 0.01003768
v -0.1552835507 0.1241141547 0.01003964001
v -0.15594566 0.1235858 0
v -0.2 0.1235858 9.799999999e-07
v -0.2 0.1447275 0.01003964
v -0.1559425913 0.1235819996 0.01002392
v -0.1564639335 0.1231610323 0.01003964
v -0.2 0.1235858 0.010019
v -0.18823134 0.1235858 0.02
f 323 326 331
f 323 331 328
f 324 330 325
f 324 333 330
f 326 327 331
f 324 329 333
f 328 331 332
f 328 332 334
f 328 334 333
f 328 333 329
f 330 333 334
f 320 329 324
f 327 332 331
f 320 328 329
f 322 327 326
f 319 327 322
f 320 323 328
f 318 319 322
f 318 322 326
f 318 323 320
f 318 320 324
f 318 324 325
f 318 325 321
f 318 326 323
f 319 321 325
f 319 325 330
f 319 330 334
f 319 334 332
f 319 332 327
f 318 321 319
o coacd_part_0032
usemtl coacd_part_0032
v -0.1559436731 0.1235811261 0.01002392
v -0.15594538 0.12358324 0
v -0.1564657901 0.1231595331 0.01003964
v -0.1569399931 0.1227759082 0.01003964
v -0.1644368505 0.1079056933 0.01003964
v -0.1644788815 0.1069171007 0.01002098
v -0.16448028 0.10691716 0
v -0.2 0.12358324 9.799999999e-07
v -0.18823054 0.12358324 0.02
v -0.1644866962 0.1067327667 0.01003964
v -0.2 0.10691716 9.8e-07
v -0.2 0.12358324 0.010019
v -0.2 0.10691716 0.01003376
v -0.17895814 0.10691716 0.02
f 337 339 338
f 339 344 340
f 340 344 348
f 340 348 347
f 342 345 347
f 340 345 341
f 343 346 347
f 343 347 348
f 337 344 339
f 340 347 345
f 337 348 344
f 342 347 346
f 336 345 342
f 337 343 348
f 335 336 342
f 335 346 343
f 335 343 337
f 335 337 338
f 335 342 346
f 335 339 340
f 335 340 341
f 335 341 336
f 336 341 345
f 335 338 339
o coacd_part_0033
usemtl coacd_part_0033
v 0.11507196 -0.10041436 0.02
v 0.1204741 -0.12073738 0.02
v 0.1204961634 -0.1207373775 0.01701252
v 0.11507196 -0.10041436 0
v -0.10476192 -0.10041436 0.02
v -0.10476192 -0.12073738 0.02
v 0.1204961634 -0.1207373775 0.00298746
v 0.1204741 -0.12073738 0
v -0.10476192 -0.10041436 0
v -0.10476192 -0.12073738 0
f 350 356 355
f 353 358 354
f 353 357 358
f 352 358 357
f 352 356 358
f 350 355 351
f 350 358 356
f 352 355 356
f 349 354 350
f 349 353 354
f 349 357 353
f 349 352 357
f 349 355 352
f 349 351 355
f 349 350 351
f 350 354 358
o coacd_part_0034
usemtl coacd_part_0034
v -0.13960646 0.14999702 0.02
v -0.13960646 0.1296396 0.01999902
v -0.13960646 0.15 0.01004064
v -0.2 0.14999702 0.01999902
v -0.13960646 0.1296396 0.01004064
v -0.15973566 0.11960304 0.02
v -0.2 0.14999702 0.01004064
v -0.2 0.11960304 0.01999902
v -0.1597339781 0.1196015596 0.01004064
v -0.2 0.11960304 0.01004064
f 364 368 367
f 364 366 368
f 362 368 366
f 362 365 368
f 361 368 365
f 361 367 368
f 361 363 367
f 360 367 363
f 359 366 364
f 359 364 360
f 359 362 366
f 359 365 362
f 359 361 365
f 359 363 361
f 359 360 363
f 360 364 367
o coacd_part_0035
usemtl coacd_part_0035
v -0.1313094 -0.14999556 0
v -0.10476192 -0.14999556 0
v -0.1313094 -0.14999556 0.02
v -0.1313083803 -0.1283004158 1.960022558e-06
v -0.10476192 -0.14999556 0.02
v -0.10476192 -0.10466136 0
v -0.1313094 -0.13214592 0.02
v -0.1313083803 -0.1283004158 0.01999019998
v -0.1147099838 -0.1046612735 1.96e-06
v -0.10476192 -0.10466136 0.02
v -0.1147099838 -0.1046612735 0.02
f 371 378 379
f 371 373 378
f 371 379 375
f 370 378 373
f 372 379 377
f 374 377 379
f 372 376 379
f 370 374 378
f 374 379 378
f 369 377 374
f 369 372 377
f 369 376 372
f 369 375 376
f 369 371 375
f 369 373 371
f 369 370 373
f 369 374 370
f 375 379 376
