# https://github.com/mikedh/trimesh
mtllib material.mtl
usemtl material_0
v 0.20000000 0.15000000 0.00000000
v -0.13751920 0.12963960 0.00000000
v -0.20000000 0.15000000 0.00000000
v -0.14175960 0.12963960 0.00000000
v -0.14593880 0.12892280 0.00000000
v -0.15693780 0.12277840 0.00000000
v -0.15973940 0.11959540 0.00000000
v -0.16196260 0.11598460 0.00000000
v -0.16354360 0.11205020 0.00000000
v -0.16443700 0.10790500 0.00000000
v -0.14993700 0.12751020 0.00000000
v -0.15363880 0.12544240 0.00000000
v -0.16461680 0.10366860 0.00000000
v -0.16407820 0.09946260 0.00000000
v -0.20000000 -0.15000000 -0.00000000
v -0.20000000 0.15000000 0.02000000
v -0.18231980 0.15000000 0.02000000
v -0.10491980 0.15000000 0.02000000
v 0.00000000 0.15000000 0.02000000
v -0.20000000 0.13986480 0.02000000
v -0.20000000 -0.04986480 0.02000000
v -0.20000000 0.04986480 0.02000000
v 0.20000000 -0.15000000 -0.00000000
v 0.16283660 0.09540820 0.00000000
v 0.16407820 0.09946260 0.00000000
v 0.16461680 0.10366860 0.00000000
v 0.16443700 0.10790500 0.00000000
v 0.16354360 0.11205020 0.00000000
v 0.16196260 0.11598460 0.00000000
v 0.15973940 0.11959540 0.00000000
v 0.15693780 0.12277840 0.00000000
v 0.15363880 0.12544240 0.00000000
v 0.14993700 0.12751020 0.00000000
v 0.14593880 0.12892280 0.00000000
v 0.14175960 0.12963960 0.00000000
v -0.11573520 0.11205020 0.00000000
v -0.11731620 0.11598460 0.00000000
v -0.11953940 0.11959540 0.00000000
v -0.12234100 0.12277840 0.00000000
v -0.12564000 0.12544240 0.00000000
v -0.12934200 0.12751020 0.00000000
v -0.13334000 0.12892280 0.00000000
v 0.13751920 0.12963960 0.00000000
v 0.13334000 0.12892280 0.00000000
v 0.20000000 0.15000000 0.02000000
v 0.20000000 0.13986480 0.02000000
v 0.20000000 0.04986480 0.02000000
v 0.10491980 0.15000000 0.02000000
v -0.13751920 0.12963960 0.02000000
v -0.14175960 0.12963960 0.02000000
v -0.13334000 0.12892280 0.02000000
v 0.13963940 0.12972960 0.02000000
v 0.13751920 0.12963960 0.02000000
v 0.14593880 0.12892280 0.02000000
v 0.14175960 0.12963960 0.02000000
v -0.14593880 0.12892280 0.02000000
v -0.12934200 0.12751020 0.02000000
v 0.12934200 0.12751020 0.00000000
v 0.13334000 0.12892280 0.02000000
v 0.14993700 0.12751020 0.02000000
v -0.14993700 0.12751020 0.02000000
v -0.12564000 0.12544240 0.02000000
v 0.12564000 0.12544240 0.00000000
v 0.12934200 0.12751020 0.02000000
v 0.15363880 0.12544240 0.02000000
v -0.15363880 0.12544240 0.02000000
v -0.12234100 0.12277840 0.02000000
v 0.12234100 0.12277840 0.00000000
v 0.12564000 0.12544240 0.02000000
v 0.15693780 0.12277840 0.02000000
v -0.15693780 0.12277840 0.02000000
v -0.11953940 0.11959540 0.02000000
v 0.11953940 0.11959540 0.00000000
v 0.12234100 0.12277840 0.02000000
v 0.15973940 0.11959540 0.02000000
v -0.15973940 0.11959540 0.02000000
v -0.11731620 0.11598460 0.02000000
v 0.11731620 0.11598460 0.00000000
v 0.11953940 0.11959540 0.02000000
v 0.16196260 0.11598460 0.02000000
v -0.16196260 0.11598460 0.02000000
v -0.11573520 0.11205020 0.02000000
v 0.11573520 0.11205020 0.00000000
v 0.11731620 0.11598460 0.02000000
v 0.16354360 0.11205020 0.02000000
v -0.16354360 0.11205020 0.02000000
v 0.11484200 0.10790500 0.00000000
v -0.11484200 0.10790500 0.00000000
v -0.11484200 0.10790500 0.02000000
v 0.11573520 0.11205020 0.02000000
v 0.16443700 0.10790500 0.02000000
v -0.16443700 0.10790500 0.02000000
v -0.11466200 0.10366860 0.00000000
v -0.11466200 0.10366860 0.02000000
v 0.11466200 0.10366860 0.00000000
v 0.11484200 0.10790500 0.02000000
v 0.16461680 0.10366860 0.02000000
v -0.16461680 0.10366860 0.02000000
v 0.11520060 0.09946260 0.00000000
v -0.11520060 0.09946260 0.00000000
v -0.11520060 0.09946260 0.02000000
v 0.11466200 0.10366860 0.02000000
v 0.16407820 0.09946260 0.02000000
v -0.16283660 0.09540820 0.00000000
v -0.16407820 0.09946260 0.02000000
v -0.11644220 0.09540820 0.00000000
v -0.11644220 0.09540820 0.02000000
v -0.12087260 0.08821260 0.00000000
v -0.11835120 0.09162180 0.00000000
v -0.12393400 0.08527860 0.00000000
v 0.11644220 0.09540820 0.00000000
v -0.12234100 -0.08668060 -0.00000000
v -0.12564000 -0.08401680 -0.00000000
v 0.11520060 0.09946260 0.02000000
v 0.16283660 0.09540820 0.02000000
v -0.16092760 0.09162180 0.00000000
v -0.16283660 0.09540820 0.02000000
v -0.11835120 0.09162180 0.02000000
v 0.11835120 0.09162180 0.00000000
v 0.11644220 0.09540820 0.02000000
v 0.15973940 -0.08986380 -0.00000000
v 0.15693780 -0.08668060 -0.00000000
v 0.15363880 -0.08401680 -0.00000000
v 0.14993700 -0.08194880 -0.00000000
v 0.16354360 -0.09740900 -0.00000000
v 0.16196260 -0.09347440 -0.00000000
v 0.16092760 0.09162180 0.00000000
v 0.16092760 0.09162180 0.02000000
v -0.15840620 0.08821260 0.00000000
v -0.16092760 0.09162180 0.02000000
v -0.12087260 0.08821260 0.02000000
v 0.12087260 0.08821260 0.00000000
v -0.11953940 -0.08986380 -0.00000000
v 0.11835120 0.09162180 0.02000000
v 0.15840620 0.08821260 0.00000000
v 0.15840620 0.08821260 0.02000000
v -0.15534500 0.08527860 0.00000000
v -0.15840620 0.08821260 0.02000000
v -0.12393400 0.08527860 0.02000000
v 0.12393400 0.08527860 0.00000000
v -0.11573520 -0.09740900 -0.00000000
v -0.11731620 -0.09347440 -0.00000000
v 0.12087260 0.08821260 0.02000000
v 0.14593880 -0.08053620 -0.00000000
v 0.15534500 0.08527860 0.00000000
v 0.15534500 0.08527860 0.02000000
v -0.15183180 0.08290420 0.00000000
v -0.16196260 -0.09347440 -0.00000000
v -0.16354360 -0.09740900 -0.00000000
v -0.15534500 0.08527860 0.02000000
v -0.13751920 -0.07981960 -0.00000000
v -0.12744700 0.08290420 0.00000000
v -0.13334000 -0.08053620 -0.00000000
v -0.12934200 -0.08194880 -0.00000000
v -0.12744700 0.08290420 0.02000000
v 0.12744700 0.08290420 0.00000000
v 0.12393400 0.08527860 0.02000000
v 0.14175960 -0.07981960 -0.00000000
v 0.15183180 0.08290420 0.00000000
v 0.15183180 0.08290420 0.02000000
v -0.14796800 0.08115760 0.00000000
v -0.15183180 0.08290420 0.02000000
v -0.13131100 0.08115760 0.00000000
v -0.13131100 0.08115760 0.02000000
v 0.13131100 0.08115760 0.00000000
v 0.13751920 -0.07981960 -0.00000000
v 0.12744700 0.08290420 0.02000000
v 0.14796800 0.08115760 0.00000000
v 0.14796800 0.08115760 0.02000000
v -0.15363880 -0.08401680 -0.00000000
v -0.15693780 -0.08668060 -0.00000000
v -0.15973940 -0.08986380 -0.00000000
v -0.14386440 0.08008920 0.00000000
v -0.14593880 -0.08053620 -0.00000000
v -0.14993700 -0.08194880 -0.00000000
v -0.14796800 0.08115760 0.02000000
v -0.13541440 0.08008920 0.00000000
v -0.13541440 0.08008920 0.02000000
v 0.13541440 0.08008920 0.00000000
v 0.13131100 0.08115760 0.02000000
v 0.14386440 0.08008920 0.00000000
v 0.14386440 0.08008920 0.02000000
v -0.14175960 -0.07981960 -0.00000000
v -0.13963940 0.07972960 0.00000000
v -0.14386440 0.08008920 0.02000000
v -0.13963940 0.07972960 0.02000000
v 0.13963940 0.07972960 0.00000000
v 0.13541440 0.08008920 0.02000000
v 0.13963940 0.07972960 0.02000000
v -0.13963940 -0.07972960 0.02000000
v -0.14175960 -0.07981960 0.02000000
v -0.13334000 -0.08053620 0.02000000
v -0.13751920 -0.07981960 0.02000000
v 0.13334000 -0.08053620 -0.00000000
v 0.14175960 -0.07981960 0.02000000
v 0.13751920 -0.07981960 0.02000000
v 0.14593880 -0.08053620 0.02000000
v -0.14593880 -0.08053620 0.02000000
v -0.12934200 -0.08194880 0.02000000
v 0.12934200 -0.08194880 -0.00000000
v 0.13334000 -0.08053620 0.02000000
v 0.14993700 -0.08194880 0.02000000
v -0.14993700 -0.08194880 0.02000000
v -0.12564000 -0.08401680 0.02000000
v 0.12564000 -0.08401680 -0.00000000
v 0.12934200 -0.08194880 0.02000000
v 0.15363880 -0.08401680 0.02000000
v -0.15363880 -0.08401680 0.02000000
v -0.12234100 -0.08668060 0.02000000
v 0.12234100 -0.08668060 -0.00000000
v 0.12564000 -0.08401680 0.02000000
v 0.15693780 -0.08668060 0.02000000
v -0.15693780 -0.08668060 0.02000000
v -0.11953940 -0.08986380 0.02000000
v 0.11953940 -0.08986380 -0.00000000
v 0.12234100 -0.08668060 0.02000000
v 0.15973940 -0.08986380 0.02000000
v -0.15973940 -0.08986380 0.02000000
v -0.11731620 -0.09347440 0.02000000
v 0.11731620 -0.09347440 -0.00000000
v 0.11953940 -0.08986380 0.02000000
v 0.16196260 -0.09347440 0.02000000
v -0.16196260 -0.09347440 0.02000000
v -0.11573520 -0.09740900 0.02000000
v 0.11573520 -0.09740900 -0.00000000
v 0.11731620 -0.09347440 0.02000000
v 0.16354360 -0.09740900 0.02000000
v -0.16443700 -0.10155420 -0.00000000
v -0.16354360 -0.09740900 0.02000000
v 0.11484200 -0.10155420 -0.00000000
v -0.11484200 -0.10155420 -0.00000000
v -0.11484200 -0.10155420 0.02000000
v 0.11573520 -0.09740900 0.02000000
v 0.16443700 -0.10155420 -0.00000000
v 0.16443700 -0.10155420 0.02000000
v -0.16461680 -0.10579060 -0.00000000
v -0.16443700 -0.10155420 0.02000000
v -0.11466200 -0.10579060 -0.00000000
v -0.11466200 -0.10579060 0.02000000
v 0.11466200 -0.10579060 -0.00000000
v 0.11484200 -0.10155420 0.02000000
v 0.16461680 -0.10579060 -0.00000000
v 0.16461680 -0.10579060 0.02000000
v -0.16407820 -0.10999660 -0.00000000
v -0.16461680 -0.10579060 0.02000000
v 0.11520060 -0.10999660 -0.00000000
v -0.11520060 -0.10999660 -0.00000000
v -0.11520060 -0.10999660 0.02000000
v 0.11466200 -0.10579060 0.02000000
v 0.16407820 -0.10999660 -0.00000000
v 0.16407820 -0.10999660 0.02000000
v -0.16283660 -0.11405100 -0.00000000
v -0.16407820 -0.10999660 0.02000000
v -0.11644220 -0.11405100 -0.00000000
v -0.11644220 -0.11405100 0.02000000
v -0.12087260 -0.12124640 -0.00000000
v -0.11835120 -0.11783720 -0.00000000
v 0.11644220 -0.11405100 -0.00000000
v -0.12744700 -0.12655500 -0.00000000
v -0.12393400 -0.12418040 -0.00000000
v 0.11520060 -0.10999660 0.02000000
v 0.16283660 -0.11405100 -0.00000000
v 0.16283660 -0.11405100 0.02000000
v -0.16092760 -0.11783720 -0.00000000
v -0.16283660 -0.11405100 0.02000000
v -0.11835120 -0.11783720 0.02000000
v 0.11835120 -0.11783720 -0.00000000
v 0.11644220 -0.11405100 0.02000000
v 0.16092760 -0.11783720 -0.00000000
v 0.16092760 -0.11783720 0.02000000
v -0.15840620 -0.12124640 -0.00000000
v -0.16092760 -0.11783720 0.02000000
v -0.12087260 -0.12124640 0.02000000
v 0.12087260 -0.12124640 -0.00000000
v 0.11835120 -0.11783720 0.02000000
v 0.15840620 -0.12124640 -0.00000000
v 0.15840620 -0.12124640 0.02000000
v -0.15534500 -0.12418040 -0.00000000
v -0.15840620 -0.12124640 0.02000000
v -0.12393400 -0.12418040 0.02000000
v 0.12393400 -0.12418040 -0.00000000
v 0.12087260 -0.12124640 0.02000000
v 0.15534500 -0.12418040 -0.00000000
v 0.15534500 -0.12418040 0.02000000
v -0.15183180 -0.12655500 -0.00000000
v -0.15534500 -0.12418040 0.02000000
v -0.12744700 -0.12655500 0.02000000
v 0.12744700 -0.12655500 -0.00000000
v 0.12393400 -0.12418040 0.02000000
v 0.15183180 -0.12655500 -0.00000000
v 0.15183180 -0.12655500 0.02000000
v -0.14796800 -0.12830160 -0.00000000
v -0.15183180 -0.12655500 0.02000000
v -0.13131100 -0.12830160 -0.00000000
v 0.13131100 -0.12830160 -0.00000000
v 0.13541440 -0.12937000 -0.00000000
v -0.13131100 -0.12830160 0.02000000
v 0.12744700 -0.12655500 0.02000000
v 0.14796800 -0.12830160 -0.00000000
v 0.14796800 -0.12830160 0.02000000
v -0.14386440 -0.12937000 -0.00000000
v -0.14796800 -0.12830160 0.02000000
v -0.13541440 -0.12937000 -0.00000000
v -0.13541440 -0.12937000 0.02000000
v 0.13131100 -0.12830160 0.02000000
v 0.14386440 -0.12937000 -0.00000000
v 0.14386440 -0.12937000 0.02000000
v -0.13963940 -0.12972960 -0.00000000
v -0.14386440 -0.12937000 0.02000000
v -0.13963940 -0.12972960 0.02000000
v 0.13963940 -0.12972960 -0.00000000
v 0.13541440 -0.12937000 0.02000000
v 0.13963940 -0.12972960 0.02000000
v -0.20000000 -0.15000000 0.02000000
v -0.18231980 -0.15000000 0.02000000
v 0.00000000 -0.15000000 0.02000000
v -0.10491980 -0.15000000 0.02000000
v 0.20000000 -0.04986480 0.02000000
v 0.20000000 -0.15000000 0.02000000
v 0.10491980 -0.15000000 0.02000000
v -0.18231980 0.13986480 0.02000000
v -0.10491980 0.13986480 0.02000000
v 0.00000000 0.13986480 0.02000000
v 0.10491980 0.13986480 0.02000000
v -0.18231980 0.04986480 0.02000000
v -0.10491980 0.04986480 0.02000000
v 0.00000000 0.04986480 0.02000000
v 0.10491980 0.04986480 0.02000000
v -0.18231980 -0.04986480 0.02000000
v -0.09520000 0.02000000 0.02000000
v -0.09520000 -0.02000000 0.02000000
v -0.10491980 -0.04986480 0.02000000
v 0.05520000 0.02000000 0.02000000
v 0.05520000 -0.02000000 0.02000000
v 0.00000000 -0.04986480 0.02000000
v -0.05520000 0.02000000 0.02000000
v 0.10491980 -0.04986480 0.02000000
v 0.09520000 0.02000000 0.02000000
v -0.05520000 0.02000000 0.10000000
v -0.09520000 0.02000000 0.14000000
v -0.05520000 -0.02000000 0.02000000
v -0.05520000 -0.02000000 0.10000000
v 0.05520000 0.02000000 0.10000000
v 0.09520000 0.02000000 0.14000000
v 0.09520000 -0.02000000 0.02000000
v 0.09520000 -0.02000000 0.14000000
v -0.09520000 -0.02000000 0.14000000
v 0.05520000 -0.02000000 0.10000000
v 0.03124040 0.13981980 0.00000000
v -0.16875960 0.13981980 0.00000000
v 0.00000000 0.15000000 0.00000000
v -0.17087980 0.13981980 0.00000000
v -0.17296940 0.13946140 0.00000000
v -0.17986980 0.13479780 0.00000000
v -0.17846880 0.13638920 0.00000000
v -0.18098140 0.13299220 0.00000000
v -0.18177180 0.13102520 0.00000000
v -0.18221840 0.12895260 0.00000000
v -0.17496860 0.13875520 0.00000000
v -0.17681940 0.13772120 0.00000000
v -0.18230840 0.12683440 0.00000000
v -0.18203920 0.12473140 0.00000000
v -0.18203920 -0.02526880 -0.00000000
v -0.20000000 0.00000000 0.00000000
v -0.19116000 0.15000000 0.02000000
v -0.19116000 0.15000000 0.01000000
v -0.20000000 0.15000000 0.01000000
v -0.14361980 0.15000000 0.02000000
v -0.15246000 0.15000000 0.01000000
v -0.05245980 0.15000000 0.02000000
v -0.10000000 0.15000000 0.01000000
v 0.10000000 0.15000000 0.01000000
v -0.20000000 0.14493240 0.02000000
v -0.20000000 0.14493240 0.01000000
v -0.20000000 -0.09993240 0.01000000
v -0.20000000 0.05006760 0.01000000
v -0.20000000 -0.00000000 0.02000000
v -0.20000000 0.09993240 0.01000000
v -0.20000000 0.09486480 0.02000000
v 0.18141820 -0.02729600 -0.00000000
v 0.18141820 0.12270420 0.00000000
v 0.20000000 0.00000000 0.00000000
v 0.18203920 0.12473140 0.00000000
v 0.18230840 0.12683440 0.00000000
v 0.18221840 0.12895260 0.00000000
v 0.18177180 0.13102520 0.00000000
v 0.18098140 0.13299220 0.00000000
v 0.17986980 0.13479780 0.00000000
v 0.17846880 0.13638920 0.00000000
v 0.17681940 0.13772120 0.00000000
v 0.17496860 0.13875520 0.00000000
v 0.17296940 0.13946140 0.00000000
v 0.17087980 0.13981980 0.00000000
v 0.04134200 0.13299220 0.00000000
v 0.04213240 0.13102520 0.00000000
v 0.04023040 0.13479780 0.00000000
v 0.03882960 0.13638920 0.00000000
v 0.03718000 0.13772120 0.00000000
v 0.03532900 0.13875520 0.00000000
v 0.03333000 0.13946140 0.00000000
v 0.16875960 0.13981980 0.00000000
v 0.16667000 0.13946140 0.00000000
v 0.00880240 0.12048640 0.00000000
v 0.20000000 0.14493240 0.02000000
v 0.20000000 0.14493240 0.01000000
v 0.20000000 0.15000000 0.01000000
v 0.20000000 0.09486480 0.02000000
v 0.20000000 0.09993240 0.01000000
v 0.20000000 -0.05006760 0.01000000
v 0.05245980 0.15000000 0.02000000
v 0.15246000 0.15000000 0.01000000
v 0.15246000 0.15000000 0.02000000
v -0.13751920 0.12963960 0.01000000
v -0.13963940 0.12963960 0.01000000
v -0.14175960 0.12963960 0.01000000
v -0.14384920 0.12928120 0.01000000
v -0.13334000 0.12892280 0.01000000
v -0.13542960 0.12928120 0.01000000
v 0.14069960 0.12968460 0.01000000
v 0.13857940 0.12968460 0.01000000
v 0.13751920 0.12963960 0.01000000
v 0.13542960 0.12928120 0.01000000
v 0.14175960 0.12963960 0.01000000
v 0.14384920 0.12928120 0.01000000
v 0.14593880 0.12892280 0.01000000
v -0.14593880 0.12892280 0.01000000
v -0.14793780 0.12821660 0.01000000
v -0.12934200 0.12751020 0.01000000
v -0.13134100 0.12821660 0.01000000
v 0.00680340 0.11978020 0.00000000
v 0.13334000 0.12892280 0.01000000
v 0.13134100 0.12821660 0.01000000
v 0.14993700 0.12751020 0.01000000
v 0.14793780 0.12821660 0.01000000
v -0.14993700 0.12751020 0.01000000
v -0.15178800 0.12647640 0.01000000
v -0.12564000 0.12544240 0.01000000
v -0.12749100 0.12647640 0.01000000
v 0.00495240 0.11874620 0.00000000
v 0.12934200 0.12751020 0.01000000
v 0.12749100 0.12647640 0.01000000
v 0.15363880 0.12544240 0.01000000
v 0.15178800 0.12647640 0.01000000
v -0.15363880 0.12544240 0.01000000
v -0.15528820 0.12411040 0.01000000
v -0.12234100 0.12277840 0.01000000
v -0.12399060 0.12411040 0.01000000
v 0.00330280 0.11741420 0.00000000
v 0.12564000 0.12544240 0.01000000
v 0.12399060 0.12411040 0.01000000
v 0.15693780 0.12277840 0.01000000
v 0.15528820 0.12411040 0.01000000
v -0.15693780 0.12277840 0.01000000
v -0.15833860 0.12118680 0.01000000
v -0.11953940 0.11959540 0.01000000
v -0.12094020 0.12118680 0.01000000
v 0.00190200 0.11582280 0.00000000
v 0.12234100 0.12277840 0.01000000
v 0.12094020 0.12118680 0.01000000
v 0.15973940 0.11959540 0.01000000
v 0.15833860 0.12118680 0.01000000
v -0.15973940 0.11959540 0.01000000
v -0.16085100 0.11779000 0.01000000
v -0.11731620 0.11598460 0.01000000
v -0.11842780 0.11779000 0.01000000
v 0.00079040 0.11401740 0.00000000
v 0.11953940 0.11959540 0.01000000
v 0.11842780 0.11779000 0.01000000
v 0.16196260 0.11598460 0.01000000
v 0.16085100 0.11779000 0.01000000
v -0.16196260 0.11598460 0.01000000
v -0.16275320 0.11401740 0.01000000
v -0.11573520 0.11205020 0.01000000
v -0.11652580 0.11401740 0.01000000
v 0.00000000 0.11205020 0.00000000
v 0.11731620 0.11598460 0.01000000
v 0.11652580 0.11401740 0.01000000
v 0.16354360 0.11205020 0.01000000
v 0.16275320 0.11401740 0.01000000
v -0.16354360 0.11205020 0.01000000
v -0.16399020 0.10997760 0.01000000
v -0.00044660 0.10997760 0.00000000
v 0.00000000 0.10790500 0.00000000
v -0.11484200 0.10790500 0.01000000
v -0.11528860 0.10997760 0.01000000
v 0.11573520 0.11205020 0.01000000
v 0.11528860 0.10997760 0.01000000
v 0.16443700 0.10790500 0.01000000
v 0.16399020 0.10997760 0.01000000
v -0.16443700 0.10790500 0.01000000
v -0.16452680 0.10578680 0.01000000
v 0.00009000 0.10578680 0.00000000
v -0.11466200 0.10366860 0.01000000
v -0.11475200 0.10578680 0.01000000
v 0.00000000 0.10366860 0.00000000
v 0.11484200 0.10790500 0.01000000
v 0.11475200 0.10578680 0.01000000
v 0.16461680 0.10366860 0.01000000
v 0.16452680 0.10578680 0.01000000
v -0.16461680 0.10366860 0.01000000
v -0.16434740 0.10156560 0.01000000
v 0.00000000 0.09946260 0.00000000
v 0.00026940 0.10156560 0.00000000
v -0.11520060 0.09946260 0.01000000
v -0.11493140 0.10156560 0.01000000
v 0.11466200 0.10366860 0.01000000
v 0.11493140 0.10156560 0.01000000
v 0.16407820 0.09946260 0.01000000
v 0.16434740 0.10156560 0.01000000
v -0.18141820 -0.02729600 -0.00000000
v -0.16407820 0.09946260 0.01000000
v -0.16345740 0.09743540 0.01000000
v -0.00062080 0.09743540 0.00000000
v -0.11644220 0.09540820 0.01000000
v -0.11582140 0.09743540 0.01000000
v -0.00157520 0.09554220 0.00000000
v -0.00283600 0.09383760 0.00000000
v -0.00436660 0.09237060 0.00000000
v -0.00294940 0.00436380 0.00000000
v -0.00357020 0.00639100 0.00000000
v -0.00521980 0.00772280 0.00000000
v -0.12478700 0.00063100 0.00000000
v 0.11520060 0.09946260 0.01000000
v 0.11582140 0.09743540 0.01000000
v 0.16283660 0.09540820 0.01000000
v 0.16345740 0.09743540 0.01000000
v -0.18046380 -0.02918920 -0.00000000
v -0.16283660 0.09540820 0.01000000
v -0.16188220 0.09351500 0.01000000
v -0.11835120 0.09162180 0.01000000
v -0.11739660 0.09351500 0.01000000
v -0.00199500 0.00247060 0.00000000
v 0.11644220 0.09540820 0.01000000
v 0.11739660 0.09351500 0.01000000
v 0.15988720 0.00436380 0.00000000
v 0.16128800 0.00277220 0.00000000
v 0.15823760 0.00569580 0.00000000
v 0.15638680 0.00672960 0.00000000
v 0.18177180 -0.12370460 -0.00000000
v 0.16319000 -0.00100040 -0.00000000
v 0.16239960 0.00096680 0.00000000
v 0.15543220 0.00483640 0.00000000
v 0.16092760 0.09162180 0.01000000
v 0.16188220 0.09351500 0.01000000
v -0.17920300 -0.03089380 -0.00000000
v -0.16092760 0.09162180 0.01000000
v -0.15966680 0.08991720 0.01000000
v -0.12087260 0.08821260 0.01000000
v -0.11961200 0.08991720 0.01000000
v 0.00066660 -0.00082560 -0.00000000
v -0.00059420 0.00087900 0.00000000
v 0.11835120 0.09162180 0.01000000
v 0.11961200 0.08991720 0.01000000
v 0.15417160 0.00313180 0.00000000
v 0.15840620 0.08821260 0.01000000
v 0.15966680 0.08991720 0.01000000
v -0.17767260 -0.03236080 -0.00000000
v -0.15840620 0.08821260 0.01000000
v -0.15687560 0.08674560 0.01000000
v -0.12393400 0.08527860 0.01000000
v -0.12240340 0.08674560 0.01000000
v 0.00409940 -0.00606520 -0.00000000
v 0.00256860 -0.00459820 -0.00000000
v 0.00177820 -0.00263100 -0.00000000
v 0.12087260 0.08821260 0.01000000
v 0.12240340 0.08674560 0.01000000
v 0.15064180 0.00237120 0.00000000
v 0.15217260 0.00383820 0.00000000
v 0.15534500 0.08527860 0.01000000
v 0.15687560 0.08674560 0.01000000
v -0.15689720 -0.00528520 -0.00000000
v -0.15865380 -0.00409800 -0.00000000
v -0.15944440 -0.00606520 -0.00000000
v -0.18177180 -0.12370460 -0.00000000
v -0.15534500 0.08527860 0.01000000
v -0.15358840 0.08409140 0.01000000
v -0.13248300 0.00154220 0.00000000
v -0.13072660 0.00272960 0.00000000
v -0.12863700 0.00237120 0.00000000
v -0.12663800 0.00166480 0.00000000
v -0.12744700 0.08290420 0.01000000
v -0.12569040 0.08409140 0.01000000
v 0.00585580 -0.00725240 -0.00000000
v 0.12393400 0.08527860 0.01000000
v 0.12569040 0.08409140 0.01000000
v 0.14679580 0.00154220 0.00000000
v 0.14855220 0.00272960 0.00000000
v 0.15183180 0.08290420 0.01000000
v 0.15358840 0.08409140 0.01000000
v -0.15496520 -0.00615840 -0.00000000
v -0.15183180 0.08290420 0.01000000
v -0.14989980 0.08203080 0.01000000
v -0.13441500 0.00066900 0.00000000
v -0.13131100 0.08115760 0.01000000
v -0.12937900 0.08203080 0.01000000
v 0.13441500 0.00066900 0.00000000
v 0.13248300 0.00154220 0.00000000
v 0.01089200 -0.08861420 -0.00000000
v 0.12744700 0.08290420 0.01000000
v 0.12937900 0.08203080 0.01000000
v 0.14486380 0.00066900 0.00000000
v 0.14796800 0.08115760 0.01000000
v 0.14989980 0.08203080 0.01000000
v -0.15245280 -0.00276140 -0.00000000
v -0.15080340 -0.00142960 -0.00000000
v -0.15385360 -0.00435300 -0.00000000
v -0.14490160 -0.00022360 -0.00000000
v -0.14695340 0.00031080 0.00000000
v -0.14895240 -0.00039560 -0.00000000
v -0.14796800 0.08115760 0.01000000
v -0.14591620 0.08062340 0.01000000
v -0.13646680 0.00013480 0.00000000
v -0.13541440 0.08008920 0.01000000
v -0.13336280 0.08062340 0.01000000
v 0.13646680 0.00013480 0.00000000
v 0.13131100 0.08115760 0.01000000
v 0.13336280 0.08062340 0.01000000
v 0.14281200 0.00013480 0.00000000
v 0.14386440 0.08008920 0.01000000
v 0.14591620 0.08062340 0.01000000
v -0.14281200 0.00013480 0.00000000
v -0.14069180 0.00013480 0.00000000
v -0.13857940 -0.00004500 -0.00000000
v -0.14386440 0.08008920 0.01000000
v -0.14175200 0.07990940 0.01000000
v -0.13963940 0.07972960 0.01000000
v -0.13752680 0.07990940 0.01000000
v 0.13857940 -0.00004500 -0.00000000
v 0.13541440 0.08008920 0.01000000
v 0.13752680 0.07990940 0.01000000
v 0.14069960 -0.00004500 -0.00000000
v 0.13963940 0.07972960 0.01000000
v 0.14175200 0.07990940 0.01000000
v -0.13857940 -0.07977460 0.01000000
v -0.14069960 -0.07977460 0.01000000
v -0.14175960 -0.07981960 0.01000000
v -0.14384920 -0.08017800 0.01000000
v -0.13751920 -0.07981960 0.01000000
v -0.13542960 -0.08017800 0.01000000
v -0.13334000 -0.08053620 0.01000000
v 0.00880240 -0.08897260 -0.00000000
v 0.14175960 -0.07981960 0.01000000
v 0.13963940 -0.07981960 0.01000000
v 0.13751920 -0.07981960 0.01000000
v 0.13542960 -0.08017800 0.01000000
v 0.14593880 -0.08053620 0.01000000
v 0.14384920 -0.08017800 0.01000000
v -0.14593880 -0.08053620 0.01000000
v -0.14793780 -0.08124260 0.01000000
v -0.12934200 -0.08194880 0.01000000
v -0.13134100 -0.08124260 0.01000000
v 0.00680340 -0.08967880 -0.00000000
v 0.13334000 -0.08053620 0.01000000
v 0.13134100 -0.08124260 0.01000000
v 0.14993700 -0.08194880 0.01000000
v 0.14793780 -0.08124260 0.01000000
v -0.14993700 -0.08194880 0.01000000
v -0.15178800 -0.08298280 0.01000000
v -0.12564000 -0.08401680 0.01000000
v -0.12749100 -0.08298280 0.01000000
v 0.00495240 -0.09071300 -0.00000000
v 0.12934200 -0.08194880 0.01000000
v 0.12749100 -0.08298280 0.01000000
v 0.15363880 -0.08401680 0.01000000
v 0.15178800 -0.08298280 0.01000000
v -0.15363880 -0.08401680 0.01000000
v -0.15528820 -0.08534860 0.01000000
v -0.12234100 -0.08668060 0.01000000
v -0.12399060 -0.08534860 0.01000000
v 0.00330280 -0.09204480 -0.00000000
v 0.12564000 -0.08401680 0.01000000
v 0.12399060 -0.08534860 0.01000000
v 0.15693780 -0.08668060 0.01000000
v 0.15528820 -0.08534860 0.01000000
v -0.15693780 -0.08668060 0.01000000
v -0.15833860 -0.08827220 0.01000000
v -0.11953940 -0.08986380 0.01000000
v -0.12094020 -0.08827220 0.01000000
v 0.00190200 -0.09363640 -0.00000000
v 0.12234100 -0.08668060 0.01000000
v 0.12094020 -0.08827220 0.01000000
v 0.15973940 -0.08986380 0.01000000
v 0.15833860 -0.08827220 0.01000000
v -0.15973940 -0.08986380 0.01000000
v -0.16085100 -0.09166900 0.01000000
v -0.11731620 -0.09347440 0.01000000
v -0.11842780 -0.09166900 0.01000000
v 0.00079040 -0.09544160 -0.00000000
v 0.11953940 -0.08986380 0.01000000
v 0.11842780 -0.09166900 0.01000000
v 0.16196260 -0.09347440 0.01000000
v 0.16085100 -0.09166900 0.01000000
v -0.16196260 -0.09347440 0.01000000
v -0.16275320 -0.09544160 0.01000000
v -0.11573520 -0.09740900 0.01000000
v -0.11652580 -0.09544160 0.01000000
v 0.00000000 -0.09740900 -0.00000000
v 0.11731620 -0.09347440 0.01000000
v 0.11652580 -0.09544160 0.01000000
v 0.16354360 -0.09740900 0.01000000
v 0.16275320 -0.09544160 0.01000000
v -0.18221840 -0.12577700 -0.00000000
v -0.16354360 -0.09740900 0.01000000
v -0.16399020 -0.09948160 0.01000000
v -0.00044660 -0.09948160 -0.00000000
v 0.00000000 -0.10155420 -0.00000000
v -0.11484200 -0.10155420 0.01000000
v -0.11528860 -0.09948160 0.01000000
v 0.11573520 -0.09740900 0.01000000
v 0.11528860 -0.09948160 0.01000000
v 0.18221840 -0.12577700 -0.00000000
v 0.16443700 -0.10155420 0.01000000
v 0.16399020 -0.09948160 0.01000000
v -0.18230840 -0.12789520 -0.00000000
v -0.16443700 -0.10155420 0.01000000
v -0.16452680 -0.10367240 0.01000000
v 0.00009000 -0.10367240 -0.00000000
v -0.11466200 -0.10579060 0.01000000
v -0.11475200 -0.10367240 0.01000000
v 0.00000000 -0.10579060 -0.00000000
v 0.11484200 -0.10155420 0.01000000
v 0.11475200 -0.10367240 0.01000000
v 0.18230840 -0.12789520 -0.00000000
v 0.16461680 -0.10579060 0.01000000
v 0.16452680 -0.10367240 0.01000000
v -0.18203920 -0.12999820 -0.00000000
v -0.16461680 -0.10579060 0.01000000
v -0.16434740 -0.10789360 0.01000000
v 0.00000000 -0.10999660 -0.00000000
v 0.00026940 -0.10789360 -0.00000000
v -0.11520060 -0.10999660 0.01000000
v -0.11493140 -0.10789360 0.01000000
v 0.11466200 -0.10579060 0.01000000
v 0.11493140 -0.10789360 0.01000000
v 0.18203920 -0.12999820 -0.00000000
v 0.16407820 -0.10999660 0.01000000
v 0.16434740 -0.10789360 0.01000000
v -0.18141820 -0.13202560 -0.00000000
v -0.16407820 -0.10999660 0.01000000
v -0.16345740 -0.11202380 0.01000000
v -0.00062080 -0.11202380 -0.00000000
v -0.11644220 -0.11405100 0.01000000
v -0.11582140 -0.11202380 0.01000000
v -0.00157520 -0.11391700 -0.00000000
v -0.00283600 -0.11562140 -0.00000000
v -0.00550240 -0.12030300 -0.00000000
v -0.00612320 -0.11827580 -0.00000000
v -0.00436660 -0.11708840 -0.00000000
v 0.11520060 -0.10999660 0.01000000
v 0.11582140 -0.11202380 0.01000000
v 0.18141820 -0.13202560 -0.00000000
v 0.16283660 -0.11405100 0.01000000
v 0.16345740 -0.11202380 0.01000000
v -0.18046380 -0.13391860 -0.00000000
v -0.16283660 -0.11405100 0.01000000
v -0.16188220 -0.11594420 0.01000000
v -0.11835120 -0.11783720 0.01000000
v -0.11739660 -0.11594420 0.01000000
v -0.00454780 -0.12219600 -0.00000000
v 0.11644220 -0.11405100 0.01000000
v 0.11739660 -0.11594420 0.01000000
v 0.18046380 -0.13391860 -0.00000000
v 0.16092760 -0.11783720 0.01000000
v 0.16188220 -0.11594420 0.01000000
v -0.17920300 -0.13562320 -0.00000000
v -0.16092760 -0.11783720 0.01000000
v -0.15966680 -0.11954180 0.01000000
v -0.12087260 -0.12124640 0.01000000
v -0.11961200 -0.11954180 0.01000000
v -0.00328720 -0.12390060 -0.00000000
v 0.11835120 -0.11783720 0.01000000
v 0.11961200 -0.11954180 0.01000000
v 0.17920300 -0.13562320 -0.00000000
v 0.15840620 -0.12124640 0.01000000
v 0.15966680 -0.11954180 0.01000000
v -0.17767260 -0.13709020 -0.00000000
v -0.15840620 -0.12124640 0.01000000
v -0.15687560 -0.12271340 0.01000000
v -0.12393400 -0.12418040 0.01000000
v -0.12240340 -0.12271340 0.01000000
v -0.00175640 -0.12536780 -0.00000000
v 0.12087260 -0.12124640 0.01000000
v 0.12240340 -0.12271340 0.01000000
v 0.17767260 -0.13709020 -0.00000000
v 0.15534500 -0.12418040 0.01000000
v 0.15687560 -0.12271340 0.01000000
v -0.17591580 -0.13827760 -0.00000000
v -0.15534500 -0.12418040 0.01000000
v -0.15358840 -0.12536780 0.01000000
v -0.12744700 -0.12655500 0.01000000
v -0.12569040 -0.12536780 0.01000000
v 0.00000000 -0.12655500 -0.00000000
v 0.12393400 -0.12418040 0.01000000
v 0.12569040 -0.12536780 0.01000000
v 0.17591580 -0.13827760 -0.00000000
v 0.15183180 -0.12655500 0.01000000
v 0.15358840 -0.12536780 0.01000000
v -0.17398400 -0.13915080 -0.00000000
v -0.15183180 -0.12655500 0.01000000
v -0.14989980 -0.12742820 0.01000000
v 0.03434460 -0.13915080 -0.00000000
v 0.03627660 -0.13827760 -0.00000000
v 0.00193200 -0.12742820 -0.00000000
v 0.00398380 -0.12796240 -0.00000000
v 0.16770720 -0.13968500 -0.00000000
v -0.13131100 -0.12830160 0.01000000
v -0.12937900 -0.12742820 0.01000000
v 0.12744700 -0.12655500 0.01000000
v 0.12937900 -0.12742820 0.01000000
v 0.17398400 -0.13915080 -0.00000000
v 0.14796800 -0.12830160 0.01000000
v 0.14989980 -0.12742820 0.01000000
v -0.17193220 -0.13968500 -0.00000000
v -0.14796800 -0.12830160 0.01000000
v -0.14591620 -0.12883580 0.01000000
v 0.03229280 -0.13968500 -0.00000000
v -0.13541440 -0.12937000 0.01000000
v -0.13336280 -0.12883580 0.01000000
v 0.13131100 -0.12830160 0.01000000
v 0.13336280 -0.12883580 0.01000000
v 0.17193220 -0.13968500 -0.00000000
v 0.14386440 -0.12937000 0.01000000
v 0.14591620 -0.12883580 0.01000000
v -0.16981980 -0.13986480 -0.00000000
v -0.14386440 -0.12937000 0.01000000
v -0.14175200 -0.12954980 0.01000000
v -0.16770720 -0.13968500 -0.00000000
v 0.00000000 -0.15000000 -0.00000000
v -0.13963940 -0.12972960 0.01000000
v -0.13752680 -0.12954980 0.01000000
v 0.16981980 -0.13986480 -0.00000000
v 0.13541440 -0.12937000 0.01000000
v 0.13752680 -0.12954980 0.01000000
v 0.13963940 -0.12972960 0.01000000
v 0.14175200 -0.12954980 0.01000000
v -0.20000000 -0.09993240 0.02000000
v -0.20000000 -0.15000000 0.01000000
v -0.19116000 -0.15000000 0.02000000
v -0.19116000 -0.15000000 0.01000000
v 0.10000000 -0.15000000 0.01000000
v -0.10000000 -0.15000000 0.01000000
v -0.05245980 -0.15000000 0.02000000
v -0.15246000 -0.15000000 0.01000000
v -0.14361980 -0.15000000 0.02000000
v 0.20000000 -0.00000000 0.02000000
v 0.20000000 -0.09993240 0.01000000
v 0.20000000 -0.09993240 0.02000000
v 0.20000000 -0.15000000 0.01000000
v 0.15246000 -0.15000000 0.02000000
v 0.15246000 -0.15000000 0.01000000
v 0.05245980 -0.15000000 0.02000000
v -0.19116000 0.14493240 0.02000000
v -0.14361980 0.14493240 0.02000000
v -0.18231980 0.14493240 0.02000000
v -0.19116000 0.13986480 0.02000000
v -0.05245980 0.14493240 0.02000000
v -0.10491980 0.14493240 0.02000000
v -0.14361980 0.13986480 0.02000000
v 0.05245980 0.14493240 0.02000000
v 0.00000000 0.14493240 0.02000000
v -0.05245980 0.13986480 0.02000000
v 0.15246000 0.14493240 0.02000000
v 0.10491980 0.14493240 0.02000000
v 0.05245980 0.13986480 0.02000000
v 0.15246000 0.13986480 0.02000000
v -0.19116000 0.09486480 0.02000000
v -0.17214120 0.12792460 0.02000000
v -0.17293180 0.12595760 0.02000000
v -0.17337840 0.12388500 0.02000000
v -0.17102960 0.12973020 0.02000000
v -0.16962880 0.13132160 0.02000000
v -0.16797940 0.13265360 0.02000000
v -0.12333960 0.13475220 0.02000000
v -0.16203960 0.13475220 0.02000000
v -0.17319900 0.07466360 0.02000000
v -0.17319900 0.11966380 0.02000000
v -0.18231980 0.09486480 0.02000000
v -0.17346820 0.12176680 0.02000000
v -0.16612840 0.13368740 0.02000000
v -0.16412940 0.13439380 0.02000000
v -0.19116000 0.04986480 0.02000000
v -0.11222960 0.12973020 0.02000000
v -0.11363040 0.13132160 0.02000000
v -0.12121960 0.13475220 0.02000000
v -0.11912980 0.13439380 0.02000000
v -0.11713100 0.13368740 0.02000000
v -0.11527980 0.13265360 0.02000000
v -0.11111800 0.12792460 0.02000000
v -0.11032740 0.12595760 0.02000000
v -0.10988080 0.12388500 0.02000000
v -0.05245980 0.09486480 0.02000000
v -0.10491980 0.09486480 0.02000000
v -0.10979080 0.07676660 0.02000000
v -0.10979080 0.12176680 0.02000000
v 0.05245980 0.09486480 0.02000000
v 0.00000000 0.09486480 0.02000000
v -0.05245980 0.04986480 0.02000000
v 0.10988080 0.12388500 0.02000000
v 0.10979080 0.12176680 0.02000000
v 0.11032740 0.12595760 0.02000000
v 0.11111800 0.12792460 0.02000000
v 0.11222960 0.12973020 0.02000000
v 0.11363040 0.13132160 0.02000000
v 0.11527980 0.13265360 0.02000000
v 0.11713100 0.13368740 0.02000000
v 0.11912980 0.13439380 0.02000000
v 0.12121960 0.13475220 0.02000000
v 0.12227960 0.13479720 0.02000000
v 0.12333960 0.13475220 0.02000000
v 0.17087980 0.13475220 0.02000000
v 0.10979080 0.07676660 0.02000000
v 0.10491980 0.09486480 0.02000000
v 0.05245980 0.04986480 0.02000000
v 0.18098140 0.12792460 0.02000000
v 0.17986980 0.12973020 0.02000000
v 0.18177180 0.12595760 0.02000000
v 0.18221840 0.12388500 0.02000000
v 0.18230840 0.12176680 0.02000000
v 0.18230840 0.07676660 0.02000000
v 0.17681940 0.13265360 0.02000000
v 0.17496860 0.13368740 0.02000000
v 0.17846880 0.13132160 0.02000000
v 0.17296940 0.13439380 0.02000000
v -0.11006020 0.07466360 0.02000000
v 0.11006020 0.07466360 0.02000000
v 0.18203920 0.07466360 0.02000000
v -0.17257820 0.07263660 0.02000000
v -0.11068100 0.07263660 0.02000000
v 0.11068100 0.07263660 0.02000000
v 0.18141820 0.07263660 0.02000000
v -0.17162380 0.07074340 0.02000000
v -0.11163540 0.07074340 0.02000000
v 0.11163540 0.07074340 0.02000000
v 0.18046380 0.07074340 0.02000000
v -0.17036300 0.06903880 0.02000000
v -0.11289620 0.06903880 0.02000000
v 0.11289620 0.06903880 0.02000000
v 0.17920300 0.06903880 0.02000000
v -0.16883240 0.06757160 0.02000000
v -0.11442680 0.06757160 0.02000000
v 0.11442680 0.06757160 0.02000000
v 0.17767260 0.06757160 0.02000000
v -0.16707580 0.06638440 0.02000000
v -0.11618340 0.06638440 0.02000000
v 0.11618340 0.06638440 0.02000000
v 0.17591580 0.06638440 0.02000000
v -0.16514400 0.06551120 0.02000000
v -0.11811540 0.06551120 0.02000000
v 0.11811540 0.06551120 0.02000000
v 0.17398400 0.06551120 0.02000000
v -0.16309220 0.06497700 0.02000000
v -0.12016720 0.06497700 0.02000000
v 0.12016720 0.06497700 0.02000000
v 0.17193220 0.06497700 0.02000000
v -0.16097960 0.06479720 0.02000000
v -0.12227960 0.06479720 0.02000000
v 0.12227960 0.06479720 0.02000000
v 0.15246000 0.04986480 0.02000000
v 0.12439200 0.06497700 0.02000000
v -0.14361980 0.04986480 0.02000000
v -0.19116000 -0.00000000 0.02000000
v -0.14361980 -0.00000000 0.02000000
v -0.18231980 -0.00000000 0.02000000
v -0.19116000 -0.04986480 0.02000000
v -0.04760000 0.03493240 0.02000000
v -0.10005980 0.03493240 0.02000000
v -0.09520000 -0.00000000 0.02000000
v -0.10005980 0.01493240 0.02000000
v -0.10005980 -0.03493240 0.02000000
v -0.10491980 -0.00000000 0.02000000
v -0.14361980 -0.04986480 0.02000000
v 0.08006000 0.03493240 0.02000000
v 0.02760000 0.03493240 0.02000000
v 0.05520000 -0.00000000 0.02000000
v 0.02760000 0.01493240 0.02000000
v 0.02760000 -0.03493240 0.02000000
v 0.00000000 -0.00000000 0.02000000
v -0.02760000 -0.01493240 0.02000000
v -0.02760000 0.03493240 0.02000000
v -0.07520000 0.02000000 0.02000000
v 0.15246000 -0.00000000 0.02000000
v 0.10491980 -0.00000000 0.02000000
v 0.10005980 -0.01493240 0.02000000
v 0.10005980 0.03493240 0.02000000
v 0.07520000 0.02000000 0.02000000
v 0.15246000 -0.04986480 0.02000000
v -0.05520000 0.02000000 0.06000000
v -0.07520000 0.02000000 0.06000000
v -0.07520000 0.02000000 0.12000000
v -0.09520000 0.02000000 0.08000000
v -0.09520000 -0.00000000 0.08000000
v -0.02760000 -0.03493240 0.02000000
v -0.05520000 -0.00000000 0.02000000
v -0.05520000 -0.02000000 0.06000000
v -0.05520000 -0.00000000 0.06000000
v -0.05520000 -0.00000000 0.10000000
v 0.07520000 0.02000000 0.12000000
v 0.07520000 0.02000000 0.08000000
v 0.05520000 0.02000000 0.06000000
v 0.09520000 0.02000000 0.08000000
v 0.05520000 -0.00000000 0.06000000
v 0.10005980 -0.03493240 0.02000000
v 0.09520000 -0.00000000 0.02000000
v 0.09520000 -0.00000000 0.14000000
v 0.09520000 -0.00000000 0.08000000
v 0.09520000 -0.02000000 0.08000000
v -0.08006000 -0.03493240 0.02000000
v -0.07520000 -0.02000000 0.02000000
v -0.09520000 -0.00000000 0.14000000
v -0.09520000 -0.02000000 0.08000000
v -0.07520000 -0.02000000 0.08000000
v -0.05245980 -0.04986480 0.02000000
v -0.07520000 -0.02000000 0.12000000
v 0.04760000 -0.03493240 0.02000000
v 0.07520000 -0.02000000 0.02000000
v 0.07520000 -0.02000000 0.06000000
v 0.05520000 -0.02000000 0.06000000
v 0.05520000 -0.00000000 0.10000000
v 0.05245980 -0.04986480 0.02000000
v 0.07520000 -0.02000000 0.12000000
v -0.19116000 -0.09993240 0.02000000
v -0.18231980 -0.09993240 0.02000000
v -0.17214120 -0.07166960 0.02000000
v -0.17293180 -0.07363700 0.02000000
v -0.17102960 -0.06986440 0.02000000
v -0.17346820 -0.12789520 0.02000000
v -0.17346820 -0.07782760 0.02000000
v -0.17337840 -0.07570940 0.02000000
v -0.16962880 -0.06827260 0.02000000
v -0.16797940 -0.06694080 0.02000000
v -0.16612840 -0.06590680 0.02000000
v -0.16412940 -0.06520060 0.02000000
v -0.16203960 -0.06484220 0.02000000
v -0.12333960 -0.06484220 0.02000000
v -0.11912980 -0.06520060 0.02000000
v -0.12121960 -0.06484220 0.02000000
v -0.05245980 -0.09993240 0.02000000
v -0.10491980 -0.09993240 0.02000000
v -0.10979080 -0.12789520 0.02000000
v -0.10979080 -0.07782760 0.02000000
v -0.10988080 -0.07570940 0.02000000
v -0.11222960 -0.06986440 0.02000000
v -0.11363040 -0.06827260 0.02000000
v -0.11111800 -0.07166960 0.02000000
v -0.11032740 -0.07363700 0.02000000
v -0.12227960 -0.06479720 0.02000000
v -0.11713100 -0.06590680 0.02000000
v -0.11527980 -0.06694080 0.02000000
v 0.05245980 -0.09993240 0.02000000
v 0.00000000 -0.09993240 0.02000000
v 0.10988080 -0.07570940 0.02000000
v 0.10979080 -0.07782760 0.02000000
v 0.11032740 -0.07363700 0.02000000
v 0.11111800 -0.07166960 0.02000000
v 0.11222960 -0.06986440 0.02000000
v 0.11363040 -0.06827260 0.02000000
v 0.11527980 -0.06694080 0.02000000
v 0.11713100 -0.06590680 0.02000000
v 0.11912980 -0.06520060 0.02000000
v 0.12121960 -0.06484220 0.02000000
v 0.12333960 -0.06484220 0.02000000
v 0.17087980 -0.06484220 0.02000000
v 0.10979080 -0.12789520 0.02000000
v 0.10491980 -0.09993240 0.02000000
v 0.18221840 -0.07570940 0.02000000
v 0.18177180 -0.07363700 0.02000000
v 0.18221840 -0.12577700 0.02000000
v 0.17846880 -0.06827260 0.02000000
v 0.17681940 -0.06694080 0.02000000
v 0.17986980 -0.06986440 0.02000000
v 0.18098140 -0.07166960 0.02000000
v 0.17296940 -0.06520060 0.02000000
v 0.17496860 -0.06590680 0.02000000
v 0.18230840 -0.12789520 0.02000000
v -0.17319900 -0.12999820 0.02000000
v -0.11006020 -0.12999820 0.02000000
v 0.11006020 -0.12999820 0.02000000
v 0.18203920 -0.12999820 0.02000000
v -0.17257820 -0.13202560 0.02000000
v -0.11068100 -0.13202560 0.02000000
v 0.11068100 -0.13202560 0.02000000
v 0.18141820 -0.13202560 0.02000000
v -0.17162380 -0.13391860 0.02000000
v -0.11163540 -0.13391860 0.02000000
v 0.11163540 -0.13391860 0.02000000
v 0.18046380 -0.13391860 0.02000000
v -0.17036300 -0.13562320 0.02000000
v -0.11289620 -0.13562320 0.02000000
v 0.11289620 -0.13562320 0.02000000
v 0.17920300 -0.13562320 0.02000000
v -0.16883240 -0.13709020 0.02000000
v -0.11442680 -0.13709020 0.02000000
v 0.11442680 -0.13709020 0.02000000
v 0.17767260 -0.13709020 0.02000000
v -0.16707580 -0.13827760 0.02000000
v -0.11618340 -0.13827760 0.02000000
v 0.11618340 -0.13827760 0.02000000
v 0.17591580 -0.13827760 0.02000000
v -0.16514400 -0.13915080 0.02000000
v -0.11811540 -0.13915080 0.02000000
v 0.11811540 -0.13915080 0.02000000
v 0.17398400 -0.13915080 0.02000000
v -0.16309220 -0.13968500 0.02000000
v -0.12016720 -0.13968500 0.02000000
v 0.12016720 -0.13968500 0.02000000
v 0.17193220 -0.13968500 0.02000000
v -0.16097960 -0.13986480 0.02000000
v -0.12227960 -0.13986480 0.02000000
v 0.12227960 -0.13986480 0.02000000
v 0.12439200 -0.13968500 0.02000000
v -0.02000000 0.02000000 0.12000000
v 0.00000000 0.02000000 0.10000000
v 0.00000000 -0.02000000 0.10000000
v 0.00000000 -0.00000000 0.10000000
v 0.00000000 0.02000000 0.14000000
v 0.02000000 -0.02000000 0.12000000
v 0.00000000 -0.02000000 0.14000000
v 0.00000000 -0.00000000 0.14000000
f 349 350 351
f 3 350 352
f 3 352 353
f 3 355 354
f 3 354 356
f 3 356 357
f 3 357 358
f 3 353 359
f 3 359 360
f 3 360 355
f 3 358 361
f 3 361 362
f 363 364 362
f 365 366 367
f 368 369 366
f 370 371 369
f 372 351 371
f 373 367 374
f 375 376 364
f 377 378 376
f 379 374 378
f 380 381 382
f 1 381 383
f 1 383 384
f 1 384 385
f 1 385 386
f 1 386 387
f 1 387 388
f 1 388 389
f 1 389 390
f 1 390 391
f 1 391 392
f 1 392 393
f 1 395 394
f 1 394 396
f 1 396 397
f 1 397 398
f 1 398 399
f 1 399 400
f 1 400 349
f 1 393 401
f 1 401 402
f 403 395 402
f 404 405 406
f 407 408 405
f 409 382 408
f 410 411 372
f 412 406 411
f 413 49 414
f 4 414 415
f 50 416 415
f 417 51 418
f 2 418 413
f 419 52 420
f 43 420 421
f 53 422 421
f 35 424 423
f 35 423 419
f 425 54 424
f 5 416 426
f 56 427 426
f 428 57 429
f 42 429 417
f 430 36 403
f 44 422 431
f 59 432 431
f 433 60 434
f 34 434 425
f 11 427 435
f 61 436 435
f 437 62 438
f 41 438 428
f 439 36 430
f 58 432 440
f 64 441 440
f 442 65 443
f 33 443 433
f 12 436 444
f 66 445 444
f 446 67 447
f 40 447 437
f 448 36 439
f 63 441 449
f 69 450 449
f 451 70 452
f 32 452 442
f 6 445 453
f 71 454 453
f 455 72 456
f 39 456 446
f 457 36 448
f 68 450 458
f 74 459 458
f 460 75 461
f 31 461 451
f 7 454 462
f 76 463 462
f 464 77 465
f 38 465 455
f 466 36 457
f 73 459 467
f 79 468 467
f 469 80 470
f 30 470 460
f 8 463 471
f 81 472 471
f 473 82 474
f 37 474 464
f 475 36 466
f 78 468 476
f 84 477 476
f 478 85 479
f 29 479 469
f 9 472 480
f 86 481 480
f 36 475 482
f 87 483 482
f 484 89 485
f 36 485 473
f 83 477 486
f 90 487 486
f 488 91 489
f 28 489 478
f 10 481 490
f 92 491 490
f 87 492 483
f 493 94 494
f 88 494 484
f 495 93 492
f 87 487 496
f 96 497 496
f 498 97 499
f 27 499 488
f 13 491 500
f 98 501 500
f 99 502 503
f 93 495 503
f 504 101 505
f 93 505 493
f 95 497 506
f 102 507 506
f 508 103 509
f 26 509 498
f 510 15 363
f 14 501 511
f 105 512 511
f 99 513 502
f 514 107 515
f 100 515 504
f 99 517 516
f 99 518 517
f 99 516 513
f 519 112 520
f 99 520 521
f 522 518 521
f 99 507 523
f 114 524 523
f 525 115 526
f 25 526 508
f 527 15 510
f 104 512 528
f 117 529 528
f 530 118 531
f 106 531 514
f 532 112 519
f 111 524 533
f 120 534 533
f 24 536 535
f 24 535 537
f 24 537 538
f 539 540 380
f 24 540 541
f 24 541 536
f 124 542 538
f 543 128 544
f 24 544 525
f 545 15 527
f 116 529 546
f 130 547 546
f 548 131 549
f 109 549 530
f 550 133 551
f 119 551 532
f 119 534 552
f 134 553 552
f 124 554 542
f 555 136 556
f 127 556 543
f 557 15 545
f 129 547 558
f 138 559 558
f 560 139 561
f 108 561 548
f 562 141 563
f 132 563 564
f 132 564 550
f 132 553 565
f 143 566 565
f 144 567 568
f 135 554 568
f 569 146 570
f 135 570 555
f 571 148 572
f 137 572 573
f 574 557 573
f 137 559 575
f 150 576 575
f 151 577 578
f 110 579 578
f 110 522 580
f 110 580 579
f 581 155 582
f 110 582 560
f 583 141 562
f 140 566 584
f 157 585 584
f 158 586 587
f 145 567 587
f 588 160 589
f 145 589 569
f 590 148 571
f 147 576 591
f 162 592 591
f 151 593 577
f 594 164 595
f 152 595 581
f 596 166 597
f 598 583 597
f 156 585 599
f 167 600 599
f 158 601 586
f 602 169 603
f 159 603 588
f 161 605 604
f 161 606 590
f 161 604 606
f 607 174 608
f 161 608 609
f 161 609 605
f 161 592 610
f 176 611 610
f 151 612 593
f 613 178 614
f 163 614 594
f 615 166 596
f 165 600 616
f 180 617 616
f 158 618 601
f 619 182 620
f 168 620 602
f 173 621 607
f 173 622 621
f 623 151 622
f 173 611 624
f 185 625 624
f 151 623 612
f 626 186 627
f 177 627 613
f 628 166 615
f 179 617 629
f 188 630 629
f 158 631 618
f 632 189 633
f 181 633 619
f 184 625 626
f 187 631 628
f 187 630 632
f 634 190 635
f 183 635 636
f 191 637 636
f 151 639 638
f 151 638 634
f 640 192 639
f 641 141 598
f 642 195 643
f 166 643 644
f 196 645 644
f 646 197 647
f 158 647 642
f 174 637 648
f 198 649 648
f 650 199 651
f 153 651 640
f 652 141 641
f 194 645 653
f 201 654 653
f 655 202 656
f 144 656 646
f 175 649 657
f 203 658 657
f 659 204 660
f 154 660 650
f 661 141 652
f 200 654 662
f 206 663 662
f 664 207 665
f 124 665 655
f 170 658 666
f 208 667 666
f 668 209 669
f 113 669 659
f 670 141 661
f 205 663 671
f 211 672 671
f 673 212 674
f 123 674 664
f 171 667 675
f 213 676 675
f 677 214 678
f 112 678 668
f 679 141 670
f 210 672 680
f 216 681 680
f 682 217 683
f 122 683 673
f 172 676 684
f 218 685 684
f 686 219 687
f 133 687 677
f 688 141 679
f 215 681 689
f 221 690 689
f 691 222 692
f 121 692 682
f 148 685 693
f 223 694 693
f 695 224 696
f 142 696 686
f 697 141 688
f 220 690 698
f 226 699 698
f 700 227 701
f 126 701 691
f 702 15 574
f 149 694 703
f 229 704 703
f 141 697 705
f 230 706 705
f 707 232 708
f 141 708 695
f 225 699 709
f 233 710 709
f 23 711 539
f 712 235 713
f 125 713 700
f 714 15 702
f 228 704 715
f 237 716 715
f 230 717 706
f 718 239 719
f 231 719 707
f 720 238 717
f 230 710 721
f 241 722 721
f 23 723 711
f 724 243 725
f 234 725 712
f 726 15 714
f 236 716 727
f 245 728 727
f 246 729 730
f 238 720 730
f 731 248 732
f 238 732 718
f 240 722 733
f 249 734 733
f 23 735 723
f 736 251 737
f 242 737 724
f 738 15 726
f 244 728 739
f 253 740 739
f 246 741 729
f 742 255 743
f 247 743 731
f 246 745 744
f 746 259 747
f 246 747 748
f 246 748 745
f 246 744 741
f 246 734 749
f 261 750 749
f 23 751 735
f 752 263 753
f 250 753 736
f 754 15 738
f 252 740 755
f 265 756 755
f 757 266 758
f 254 758 742
f 759 259 746
f 258 750 760
f 268 761 760
f 23 762 751
f 763 270 764
f 262 764 752
f 765 15 754
f 264 756 766
f 272 767 766
f 768 273 769
f 257 769 757
f 770 259 759
f 267 761 771
f 275 772 771
f 23 773 762
f 774 277 775
f 269 775 763
f 776 15 765
f 271 767 777
f 279 778 777
f 779 280 780
f 256 780 768
f 781 259 770
f 274 772 782
f 282 783 782
f 23 784 773
f 785 284 786
f 276 786 774
f 787 15 776
f 278 778 788
f 286 789 788
f 790 287 791
f 260 791 779
f 792 259 781
f 281 783 793
f 289 794 793
f 23 795 784
f 796 291 797
f 283 797 785
f 798 15 787
f 285 789 799
f 293 800 799
f 23 801 802
f 259 792 803
f 259 803 804
f 805 802 804
f 806 297 807
f 259 807 790
f 288 794 808
f 298 809 808
f 23 810 795
f 811 300 812
f 290 812 796
f 813 15 798
f 292 800 814
f 302 815 814
f 23 816 801
f 817 304 818
f 294 818 806
f 295 809 819
f 305 820 819
f 23 821 810
f 822 307 823
f 299 823 811
f 824 15 813
f 301 815 825
f 309 826 825
f 15 824 827
f 828 827 816
f 829 310 830
f 303 830 817
f 831 23 805
f 296 820 832
f 312 833 832
f 23 831 821
f 834 313 835
f 306 835 822
f 308 826 829
f 311 833 834
f 836 375 837
f 838 837 839
f 840 841 828
f 842 843 841
f 844 839 843
f 845 846 409
f 847 848 846
f 849 850 848
f 851 840 850
f 852 365 373
f 853 368 854
f 855 854 852
f 856 370 857
f 858 857 853
f 859 410 860
f 861 860 856
f 862 412 863
f 864 863 859
f 865 404 862
f 866 855 379
f 321 868 867
f 321 869 868
f 321 867 870
f 321 870 871
f 321 871 872
f 873 858 874
f 875 876 877
f 321 876 878
f 321 878 869
f 321 872 879
f 321 879 880
f 321 880 874
f 881 877 866
f 322 883 882
f 322 873 884
f 322 884 885
f 322 885 886
f 322 886 887
f 322 887 883
f 322 882 888
f 322 888 889
f 322 889 890
f 891 861 892
f 893 892 894
f 322 890 894
f 895 864 896
f 897 896 891
f 324 899 898
f 324 898 900
f 324 900 901
f 324 901 902
f 324 902 903
f 324 903 904
f 324 904 905
f 324 905 906
f 324 906 907
f 324 907 908
f 324 908 909
f 910 865 909
f 911 899 912
f 913 912 895
f 46 915 914
f 46 914 916
f 46 916 917
f 46 917 918
f 919 407 918
f 46 921 920
f 46 920 922
f 46 922 915
f 46 910 923
f 46 923 921
f 924 326 893
f 328 925 911
f 926 47 919
f 325 927 875
f 928 326 924
f 328 929 925
f 930 47 926
f 325 931 927
f 932 326 928
f 328 933 929
f 934 47 930
f 325 935 931
f 936 326 932
f 328 937 933
f 938 47 934
f 325 939 935
f 940 326 936
f 328 941 937
f 942 47 938
f 325 943 939
f 944 326 940
f 328 945 941
f 946 47 942
f 325 947 943
f 948 326 944
f 328 949 945
f 950 47 946
f 325 951 947
f 952 326 948
f 328 953 949
f 954 47 950
f 325 955 951
f 956 326 952
f 328 957 953
f 958 954 959
f 957 328 959
f 960 956 955
f 961 881 377
f 962 960 963
f 964 963 961
f 965 897 966
f 967 966 968
f 969 968 970
f 971 970 962
f 972 913 973
f 974 973 975
f 976 975 977
f 978 977 979
f 980 979 965
f 981 958 982
f 983 982 984
f 985 984 972
f 986 845 981
f 987 980 988
f 989 988 990
f 991 990 967
f 992 978 993
f 994 993 995
f 996 995 987
f 997 998 999
f 1000 985 998
f 1001 999 974
f 1002 983 1003
f 1004 1005 1000
f 1006 1003 1005
f 1007 1008 969
f 1009 991 1010
f 1011 1010 1008
f 1012 992 1007
f 1013 1011 994
f 1014 1015 976
f 1016 1017 1015
f 1018 1001 1017
f 1019 1002 1014
f 1020 1016 1006
f 1021 964 836
f 838 1022 1021
f 329 1024 1023
f 329 1023 1025
f 1026 1027 1022
f 329 1027 1028
f 329 1028 1024
f 329 1025 1029
f 329 1029 1030
f 329 1030 1031
f 329 1031 1032
f 329 1032 1033
f 1034 971 1033
f 332 1036 1035
f 1037 1012 1038
f 1039 1038 1040
f 332 1041 1040
f 332 1043 1042
f 332 1042 1044
f 332 1044 1045
f 332 1045 1041
f 332 1034 1046
f 332 1046 1036
f 332 1035 1047
f 332 1047 1048
f 332 1048 1043
f 1049 1019 1050
f 842 1050 1037
f 337 1052 1051
f 337 1051 1053
f 337 1053 1054
f 337 1054 1055
f 337 1055 1056
f 337 1056 1057
f 337 1057 1058
f 337 1058 1059
f 337 1059 1060
f 337 1060 1061
f 1062 986 1061
f 1063 1052 1064
f 851 1064 1049
f 318 1066 1065
f 1067 847 1065
f 318 1069 1068
f 318 1068 1070
f 318 1070 1071
f 318 1071 1066
f 318 1062 1072
f 318 1072 1073
f 318 1073 1069
f 1074 319 1067
f 315 1075 1026
f 1076 317 1039
f 320 1077 1063
f 1078 319 1074
f 315 1079 1075
f 1080 317 1076
f 320 1081 1077
f 1082 319 1078
f 315 1083 1079
f 1084 317 1080
f 320 1085 1081
f 1086 319 1082
f 315 1087 1083
f 1088 317 1084
f 320 1089 1085
f 1090 319 1086
f 315 1091 1087
f 1092 317 1088
f 320 1093 1089
f 1094 319 1090
f 315 1095 1091
f 1096 317 1092
f 320 1097 1093
f 1098 319 1094
f 315 1099 1095
f 1100 317 1096
f 320 1101 1097
f 1102 319 1098
f 315 1103 1099
f 1104 317 1100
f 320 1105 1101
f 1106 319 1102
f 315 1107 1103
f 1108 317 1104
f 320 1109 1105
f 849 1106 1110
f 1109 320 1110
f 844 1108 1107
f 1111 1112 989
f 1113 996 1114
f 1018 1114 1112
f 1115 997 1111
f 1020 1116 1113
f 1117 1013 1116
f 1118 1115 1009
f 1117 1004 1118
f 1 349 351
f 349 2 350
f 351 350 3
f 2 4 350
f 352 350 4
f 4 5 352
f 353 352 5
f 6 7 355
f 354 355 7
f 7 356 354
f 356 7 8
f 8 357 356
f 357 8 9
f 9 358 357
f 358 9 10
f 5 11 353
f 359 353 11
f 11 12 359
f 360 359 12
f 12 6 360
f 355 360 6
f 10 361 358
f 361 10 13
f 13 362 361
f 362 13 14
f 14 363 362
f 363 15 364
f 362 364 3
f 16 365 367
f 365 17 366
f 367 366 3
f 17 368 366
f 368 18 369
f 366 369 3
f 18 370 369
f 370 19 371
f 369 371 3
f 19 372 371
f 372 1 351
f 371 351 3
f 20 373 374
f 373 16 367
f 374 367 3
f 15 375 364
f 375 21 376
f 364 376 3
f 21 377 376
f 377 22 378
f 376 378 3
f 22 379 378
f 379 20 374
f 378 374 3
f 23 380 382
f 380 24 381
f 382 381 1
f 24 25 381
f 383 381 25
f 25 26 383
f 384 383 26
f 26 27 384
f 385 384 27
f 27 28 385
f 386 385 28
f 28 29 386
f 387 386 29
f 29 30 387
f 388 387 30
f 30 389 388
f 389 30 31
f 31 390 389
f 390 31 32
f 32 391 390
f 391 32 33
f 33 392 391
f 392 33 34
f 34 393 392
f 393 34 35
f 36 394 395
f 394 36 37
f 37 396 394
f 396 37 38
f 38 397 396
f 397 38 39
f 39 398 397
f 398 39 40
f 40 399 398
f 399 40 41
f 41 400 399
f 400 41 42
f 42 349 400
f 349 42 2
f 35 401 393
f 401 35 43
f 43 402 401
f 402 43 44
f 44 403 402
f 403 36 395
f 402 395 1
f 45 404 406
f 404 46 405
f 406 405 1
f 46 407 405
f 407 47 408
f 405 408 1
f 47 409 408
f 409 23 382
f 408 382 1
f 19 410 372
f 410 48 411
f 372 411 1
f 48 412 411
f 412 45 406
f 411 406 1
f 2 414 4
f 414 2 413
f 49 50 414
f 415 414 50
f 416 4 415
f 4 416 5
f 42 418 2
f 418 42 417
f 51 49 418
f 413 418 49
f 35 420 43
f 420 35 419
f 52 53 420
f 421 420 53
f 422 43 421
f 43 422 44
f 54 55 424
f 423 424 55
f 55 419 423
f 419 55 52
f 34 424 35
f 424 34 425
f 50 56 416
f 426 416 56
f 427 5 426
f 5 427 11
f 41 429 42
f 429 41 428
f 57 51 429
f 417 429 51
f 58 403 44
f 403 58 430
f 53 59 422
f 431 422 59
f 432 44 431
f 44 432 58
f 33 434 34
f 434 33 433
f 60 54 434
f 425 434 54
f 56 61 427
f 435 427 61
f 436 11 435
f 11 436 12
f 40 438 41
f 438 40 437
f 62 57 438
f 428 438 57
f 63 430 58
f 430 63 439
f 59 64 432
f 440 432 64
f 441 58 440
f 58 441 63
f 32 443 33
f 443 32 442
f 65 60 443
f 433 443 60
f 61 66 436
f 444 436 66
f 445 12 444
f 12 445 6
f 39 447 40
f 447 39 446
f 67 62 447
f 437 447 62
f 68 439 63
f 439 68 448
f 64 69 441
f 449 441 69
f 450 63 449
f 63 450 68
f 31 452 32
f 452 31 451
f 70 65 452
f 442 452 65
f 66 71 445
f 453 445 71
f 454 6 453
f 6 454 7
f 38 456 39
f 456 38 455
f 72 67 456
f 446 456 67
f 73 448 68
f 448 73 457
f 69 74 450
f 458 450 74
f 459 68 458
f 68 459 73
f 30 461 31
f 461 30 460
f 75 70 461
f 451 461 70
f 71 76 454
f 462 454 76
f 463 7 462
f 7 463 8
f 37 465 38
f 465 37 464
f 77 72 465
f 455 465 72
f 78 457 73
f 457 78 466
f 74 79 459
f 467 459 79
f 468 73 467
f 73 468 78
f 29 470 30
f 470 29 469
f 80 75 470
f 460 470 75
f 76 81 463
f 471 463 81
f 472 8 471
f 8 472 9
f 36 474 37
f 474 36 473
f 82 77 474
f 464 474 77
f 83 466 78
f 466 83 475
f 79 84 468
f 476 468 84
f 477 78 476
f 78 477 83
f 28 479 29
f 479 28 478
f 85 80 479
f 469 479 80
f 81 86 472
f 480 472 86
f 481 9 480
f 9 481 10
f 83 87 475
f 482 475 87
f 483 88 482
f 36 482 88
f 88 485 36
f 485 88 484
f 89 82 485
f 473 485 82
f 84 90 477
f 486 477 90
f 487 83 486
f 83 487 87
f 27 489 28
f 489 27 488
f 91 85 489
f 478 489 85
f 86 92 481
f 490 481 92
f 491 10 490
f 10 491 13
f 492 93 483
f 88 483 93
f 93 494 88
f 494 93 493
f 94 89 494
f 484 494 89
f 95 492 87
f 492 95 495
f 90 96 487
f 496 487 96
f 497 87 496
f 87 497 95
f 26 499 27
f 499 26 498
f 97 91 499
f 488 499 91
f 92 98 491
f 500 491 98
f 501 13 500
f 13 501 14
f 502 93 503
f 93 502 100
f 95 503 495
f 503 95 99
f 100 505 93
f 505 100 504
f 101 94 505
f 493 505 94
f 96 102 497
f 506 497 102
f 507 95 506
f 95 507 99
f 25 509 26
f 509 25 508
f 103 97 509
f 498 509 97
f 104 363 14
f 363 104 510
f 98 105 501
f 511 501 105
f 512 14 511
f 14 512 104
f 513 100 502
f 100 513 106
f 106 515 100
f 515 106 514
f 107 101 515
f 504 515 101
f 108 109 517
f 516 517 109
f 110 108 518
f 517 518 108
f 109 106 516
f 513 516 106
f 111 520 99
f 520 111 519
f 112 521 520
f 521 112 113
f 113 522 521
f 522 110 518
f 521 518 99
f 102 114 507
f 523 507 114
f 524 99 523
f 99 524 111
f 24 526 25
f 526 24 525
f 115 103 526
f 508 526 103
f 116 510 104
f 510 116 527
f 105 117 512
f 528 512 117
f 529 104 528
f 104 529 116
f 109 531 106
f 531 109 530
f 118 107 531
f 514 531 107
f 119 519 111
f 519 119 532
f 114 120 524
f 533 524 120
f 534 111 533
f 111 534 119
f 121 122 536
f 535 536 122
f 122 123 535
f 537 535 123
f 123 124 537
f 538 537 124
f 23 539 380
f 539 125 540
f 380 540 24
f 125 126 540
f 541 540 126
f 126 121 541
f 536 541 121
f 542 127 538
f 24 538 127
f 127 544 24
f 544 127 543
f 128 115 544
f 525 544 115
f 129 527 116
f 527 129 545
f 117 130 529
f 546 529 130
f 547 116 546
f 116 547 129
f 108 549 109
f 549 108 548
f 131 118 549
f 530 549 118
f 132 551 119
f 551 132 550
f 133 532 551
f 532 133 112
f 120 134 534
f 552 534 134
f 553 119 552
f 119 553 132
f 554 135 542
f 127 542 135
f 135 556 127
f 556 135 555
f 136 128 556
f 543 556 128
f 137 545 129
f 545 137 557
f 130 138 547
f 558 547 138
f 559 129 558
f 129 559 137
f 110 561 108
f 561 110 560
f 139 131 561
f 548 561 131
f 140 562 132
f 563 132 562
f 141 142 563
f 564 563 142
f 142 133 564
f 550 564 133
f 134 143 553
f 565 553 143
f 566 132 565
f 132 566 140
f 567 145 568
f 135 568 145
f 124 144 554
f 568 554 144
f 145 570 135
f 570 145 569
f 146 136 570
f 555 570 136
f 147 572 137
f 572 147 571
f 148 573 572
f 573 148 149
f 149 574 573
f 574 15 557
f 573 557 137
f 138 150 559
f 575 559 150
f 576 137 575
f 137 576 147
f 577 152 578
f 110 578 152
f 153 151 579
f 578 579 151
f 113 154 522
f 580 522 154
f 154 153 580
f 579 580 153
f 152 582 110
f 582 152 581
f 155 139 582
f 560 582 139
f 156 583 140
f 562 140 583
f 143 157 566
f 584 566 157
f 585 140 584
f 140 585 156
f 586 159 587
f 145 587 159
f 144 158 567
f 587 567 158
f 159 589 145
f 589 159 588
f 160 146 589
f 569 589 146
f 161 571 147
f 571 161 590
f 150 162 576
f 591 576 162
f 592 147 591
f 147 592 161
f 593 163 577
f 152 577 163
f 163 595 152
f 595 163 594
f 164 155 595
f 581 595 155
f 165 597 156
f 597 165 596
f 166 598 597
f 598 141 583
f 597 583 156
f 157 167 585
f 599 585 167
f 600 156 599
f 156 600 165
f 601 168 586
f 159 586 168
f 168 603 159
f 603 168 602
f 169 160 603
f 588 603 160
f 170 604 605
f 604 170 171
f 172 590 606
f 590 172 148
f 171 606 604
f 606 171 172
f 173 608 161
f 608 173 607
f 174 609 608
f 609 174 175
f 175 605 609
f 605 175 170
f 162 176 592
f 610 592 176
f 611 161 610
f 161 611 173
f 612 177 593
f 163 593 177
f 177 614 163
f 614 177 613
f 178 164 614
f 594 614 164
f 179 596 165
f 596 179 615
f 167 180 600
f 616 600 180
f 617 165 616
f 165 617 179
f 618 181 601
f 168 601 181
f 181 620 168
f 620 181 619
f 182 169 620
f 602 620 169
f 183 607 621
f 607 183 174
f 151 183 622
f 621 622 183
f 184 622 173
f 622 184 623
f 176 185 611
f 624 611 185
f 625 173 624
f 173 625 184
f 623 184 612
f 177 612 184
f 184 627 177
f 627 184 626
f 186 178 627
f 613 627 178
f 187 615 179
f 615 187 628
f 180 188 617
f 629 617 188
f 630 179 629
f 179 630 187
f 631 187 618
f 181 618 187
f 187 633 181
f 633 187 632
f 189 182 633
f 619 633 182
f 185 186 625
f 626 625 186
f 158 166 631
f 628 631 166
f 188 189 630
f 632 630 189
f 151 634 183
f 635 183 634
f 190 191 635
f 636 635 191
f 637 183 636
f 183 637 174
f 192 193 639
f 638 639 193
f 193 634 638
f 634 193 190
f 153 639 151
f 639 153 640
f 194 598 166
f 598 194 641
f 158 643 166
f 643 158 642
f 195 196 643
f 644 643 196
f 645 166 644
f 166 645 194
f 144 647 158
f 647 144 646
f 197 195 647
f 642 647 195
f 191 198 637
f 648 637 198
f 649 174 648
f 174 649 175
f 154 651 153
f 651 154 650
f 199 192 651
f 640 651 192
f 200 641 194
f 641 200 652
f 196 201 645
f 653 645 201
f 654 194 653
f 194 654 200
f 124 656 144
f 656 124 655
f 202 197 656
f 646 656 197
f 198 203 649
f 657 649 203
f 658 175 657
f 175 658 170
f 113 660 154
f 660 113 659
f 204 199 660
f 650 660 199
f 205 652 200
f 652 205 661
f 201 206 654
f 662 654 206
f 663 200 662
f 200 663 205
f 123 665 124
f 665 123 664
f 207 202 665
f 655 665 202
f 203 208 658
f 666 658 208
f 667 170 666
f 170 667 171
f 112 669 113
f 669 112 668
f 209 204 669
f 659 669 204
f 210 661 205
f 661 210 670
f 206 211 663
f 671 663 211
f 672 205 671
f 205 672 210
f 122 674 123
f 674 122 673
f 212 207 674
f 664 674 207
f 208 213 667
f 675 667 213
f 676 171 675
f 171 676 172
f 133 678 112
f 678 133 677
f 214 209 678
f 668 678 209
f 215 670 210
f 670 215 679
f 211 216 672
f 680 672 216
f 681 210 680
f 210 681 215
f 121 683 122
f 683 121 682
f 217 212 683
f 673 683 212
f 213 218 676
f 684 676 218
f 685 172 684
f 172 685 148
f 142 687 133
f 687 142 686
f 219 214 687
f 677 687 214
f 220 679 215
f 679 220 688
f 216 221 681
f 689 681 221
f 690 215 689
f 215 690 220
f 126 692 121
f 692 126 691
f 222 217 692
f 682 692 217
f 218 223 685
f 693 685 223
f 694 148 693
f 148 694 149
f 141 696 142
f 696 141 695
f 224 219 696
f 686 696 219
f 225 688 220
f 688 225 697
f 221 226 690
f 698 690 226
f 699 220 698
f 220 699 225
f 125 701 126
f 701 125 700
f 227 222 701
f 691 701 222
f 228 574 149
f 574 228 702
f 223 229 694
f 703 694 229
f 704 149 703
f 149 704 228
f 225 230 697
f 705 697 230
f 706 231 705
f 141 705 231
f 231 708 141
f 708 231 707
f 232 224 708
f 695 708 224
f 226 233 699
f 709 699 233
f 710 225 709
f 225 710 230
f 711 234 539
f 125 539 234
f 234 713 125
f 713 234 712
f 235 227 713
f 700 713 227
f 236 702 228
f 702 236 714
f 229 237 704
f 715 704 237
f 716 228 715
f 228 716 236
f 717 238 706
f 231 706 238
f 238 719 231
f 719 238 718
f 239 232 719
f 707 719 232
f 240 717 230
f 717 240 720
f 233 241 710
f 721 710 241
f 722 230 721
f 230 722 240
f 723 242 711
f 234 711 242
f 242 725 234
f 725 242 724
f 243 235 725
f 712 725 235
f 244 714 236
f 714 244 726
f 237 245 716
f 727 716 245
f 728 236 727
f 236 728 244
f 729 238 730
f 238 729 247
f 240 730 720
f 730 240 246
f 247 732 238
f 732 247 731
f 248 239 732
f 718 732 239
f 241 249 722
f 733 722 249
f 734 240 733
f 240 734 246
f 735 250 723
f 242 723 250
f 250 737 242
f 737 250 736
f 251 243 737
f 724 737 243
f 252 726 244
f 726 252 738
f 245 253 728
f 739 728 253
f 740 244 739
f 244 740 252
f 741 247 729
f 247 741 254
f 254 743 247
f 743 254 742
f 255 248 743
f 731 743 248
f 256 257 745
f 744 745 257
f 258 746 246
f 747 246 746
f 259 260 747
f 748 747 260
f 260 256 748
f 745 748 256
f 257 254 744
f 741 744 254
f 249 261 734
f 749 734 261
f 750 246 749
f 246 750 258
f 751 262 735
f 250 735 262
f 262 753 250
f 753 262 752
f 263 251 753
f 736 753 251
f 264 738 252
f 738 264 754
f 253 265 740
f 755 740 265
f 756 252 755
f 252 756 264
f 257 758 254
f 758 257 757
f 266 255 758
f 742 758 255
f 267 759 258
f 746 258 759
f 261 268 750
f 760 750 268
f 761 258 760
f 258 761 267
f 762 269 751
f 262 751 269
f 269 764 262
f 764 269 763
f 270 263 764
f 752 764 263
f 271 754 264
f 754 271 765
f 265 272 756
f 766 756 272
f 767 264 766
f 264 767 271
f 256 769 257
f 769 256 768
f 273 266 769
f 757 769 266
f 274 770 267
f 759 267 770
f 268 275 761
f 771 761 275
f 772 267 771
f 267 772 274
f 773 276 762
f 269 762 276
f 276 775 269
f 775 276 774
f 277 270 775
f 763 775 270
f 278 776 271
f 765 271 776
f 272 279 767
f 777 767 279
f 778 271 777
f 271 778 278
f 260 780 256
f 780 260 779
f 280 273 780
f 768 780 273
f 281 781 274
f 770 274 781
f 275 282 772
f 782 772 282
f 783 274 782
f 274 783 281
f 784 276 773
f 276 784 283
f 283 786 276
f 786 283 785
f 284 277 786
f 774 786 277
f 285 787 278
f 776 278 787
f 279 286 778
f 788 778 286
f 789 278 788
f 278 789 285
f 259 791 260
f 791 259 790
f 287 280 791
f 779 791 280
f 288 792 281
f 781 281 792
f 282 289 783
f 793 783 289
f 794 281 793
f 281 794 288
f 795 283 784
f 283 795 290
f 290 797 283
f 797 290 796
f 291 284 797
f 785 797 284
f 292 798 285
f 787 285 798
f 286 293 789
f 799 789 293
f 800 285 799
f 285 800 292
f 801 259 802
f 259 801 294
f 288 803 792
f 803 288 295
f 295 804 803
f 804 295 296
f 296 805 804
f 805 23 802
f 804 802 259
f 294 807 259
f 807 294 806
f 297 287 807
f 790 807 287
f 289 298 794
f 808 794 298
f 809 288 808
f 288 809 295
f 810 290 795
f 290 810 299
f 299 812 290
f 812 299 811
f 300 291 812
f 796 812 291
f 301 813 292
f 798 292 813
f 293 302 800
f 814 800 302
f 815 292 814
f 292 815 301
f 816 294 801
f 294 816 303
f 303 818 294
f 818 303 817
f 304 297 818
f 806 818 297
f 298 305 809
f 819 809 305
f 820 295 819
f 295 820 296
f 821 299 810
f 299 821 306
f 306 823 299
f 823 306 822
f 307 300 823
f 811 823 300
f 308 824 301
f 813 301 824
f 302 309 815
f 825 815 309
f 826 301 825
f 301 826 308
f 824 308 827
f 303 827 308
f 23 828 816
f 828 15 827
f 816 827 303
f 308 830 303
f 830 308 829
f 310 304 830
f 817 830 304
f 311 805 296
f 805 311 831
f 305 312 820
f 832 820 312
f 833 296 832
f 296 833 311
f 831 306 821
f 306 831 311
f 311 835 306
f 835 311 834
f 313 307 835
f 822 835 307
f 309 310 826
f 829 826 310
f 312 313 833
f 834 833 313
f 314 836 837
f 836 21 375
f 837 375 15
f 315 838 839
f 838 314 837
f 839 837 15
f 23 840 828
f 840 316 841
f 828 841 15
f 316 842 841
f 842 317 843
f 841 843 15
f 317 844 843
f 844 315 839
f 843 839 15
f 47 845 409
f 845 318 846
f 409 846 23
f 318 847 846
f 847 319 848
f 846 848 23
f 319 849 848
f 849 320 850
f 848 850 23
f 320 851 850
f 851 316 840
f 850 840 23
f 20 852 373
f 852 17 365
f 373 365 16
f 321 853 854
f 853 18 368
f 854 368 17
f 20 855 852
f 855 321 854
f 852 854 17
f 322 856 857
f 856 19 370
f 857 370 18
f 321 858 853
f 858 322 857
f 853 857 18
f 323 859 860
f 859 48 410
f 860 410 19
f 322 861 856
f 861 323 860
f 856 860 19
f 324 862 863
f 862 45 412
f 863 412 48
f 323 864 859
f 864 324 863
f 859 863 48
f 324 865 862
f 865 46 404
f 862 404 45
f 22 866 379
f 866 321 855
f 379 855 20
f 86 81 868
f 867 868 81
f 92 86 869
f 868 869 86
f 81 76 867
f 870 867 76
f 76 871 870
f 871 76 71
f 71 872 871
f 872 71 66
f 50 873 874
f 873 322 858
f 874 858 321
f 325 875 877
f 875 105 876
f 877 876 321
f 105 98 876
f 878 876 98
f 98 92 878
f 869 878 92
f 66 879 872
f 879 66 61
f 61 880 879
f 880 61 56
f 56 874 880
f 874 56 50
f 22 881 866
f 881 325 877
f 866 877 321
f 67 882 883
f 882 67 72
f 50 49 873
f 884 873 49
f 49 51 884
f 885 884 51
f 51 57 885
f 886 885 57
f 57 62 886
f 887 886 62
f 62 67 887
f 883 887 67
f 72 888 882
f 888 72 77
f 77 889 888
f 889 77 82
f 82 890 889
f 890 82 89
f 326 891 892
f 891 323 861
f 892 861 322
f 94 893 894
f 893 326 892
f 894 892 322
f 89 894 890
f 894 89 94
f 327 895 896
f 895 324 864
f 896 864 323
f 326 897 891
f 897 327 896
f 891 896 323
f 102 96 899
f 898 899 96
f 96 90 898
f 900 898 90
f 90 84 900
f 901 900 84
f 84 79 901
f 902 901 79
f 79 74 902
f 903 902 74
f 74 904 903
f 904 74 69
f 69 905 904
f 905 69 64
f 64 906 905
f 906 64 59
f 59 907 906
f 907 59 53
f 53 908 907
f 908 53 52
f 52 909 908
f 909 52 55
f 55 910 909
f 910 46 865
f 909 865 324
f 328 911 912
f 911 102 899
f 912 899 324
f 327 913 895
f 913 328 912
f 895 912 324
f 75 80 915
f 914 915 80
f 80 916 914
f 916 80 85
f 85 917 916
f 917 85 91
f 91 918 917
f 918 91 97
f 97 919 918
f 919 47 407
f 918 407 46
f 60 65 921
f 920 921 65
f 65 70 920
f 922 920 70
f 70 75 922
f 915 922 75
f 55 54 910
f 923 910 54
f 54 60 923
f 921 923 60
f 101 893 94
f 893 101 924
f 925 114 911
f 102 911 114
f 103 919 97
f 919 103 926
f 927 117 875
f 105 875 117
f 107 924 101
f 924 107 928
f 929 120 925
f 114 925 120
f 115 926 103
f 926 115 930
f 931 130 927
f 117 927 130
f 118 928 107
f 928 118 932
f 933 134 929
f 120 929 134
f 128 930 115
f 930 128 934
f 935 138 931
f 130 931 138
f 131 932 118
f 932 131 936
f 937 143 933
f 134 933 143
f 136 934 128
f 934 136 938
f 939 150 935
f 138 935 150
f 139 936 131
f 936 139 940
f 941 157 937
f 143 937 157
f 146 942 136
f 938 136 942
f 943 150 939
f 150 943 162
f 155 940 139
f 940 155 944
f 945 167 941
f 157 941 167
f 160 946 146
f 942 146 946
f 947 162 943
f 162 947 176
f 164 948 155
f 944 155 948
f 949 167 945
f 167 949 180
f 169 950 160
f 946 160 950
f 951 176 947
f 176 951 185
f 178 952 164
f 948 164 952
f 953 180 949
f 180 953 188
f 182 954 169
f 950 169 954
f 955 185 951
f 185 955 186
f 186 956 178
f 952 178 956
f 957 188 953
f 188 957 189
f 328 958 959
f 958 47 954
f 959 954 182
f 189 959 182
f 959 189 957
f 325 960 955
f 960 326 956
f 955 956 186
f 21 961 377
f 961 325 881
f 377 881 22
f 329 962 963
f 962 326 960
f 963 960 325
f 21 964 961
f 964 329 963
f 961 963 325
f 330 965 966
f 965 327 897
f 966 897 326
f 331 967 968
f 967 330 966
f 968 966 326
f 332 969 970
f 969 331 968
f 970 968 326
f 329 971 962
f 971 332 970
f 962 970 326
f 333 972 973
f 972 328 913
f 973 913 327
f 334 974 975
f 974 333 973
f 975 973 327
f 335 976 977
f 976 334 975
f 977 975 327
f 336 978 979
f 978 335 977
f 979 977 327
f 330 980 965
f 980 336 979
f 965 979 327
f 337 981 982
f 981 47 958
f 982 958 328
f 338 983 984
f 983 337 982
f 984 982 328
f 333 985 972
f 985 338 984
f 972 984 328
f 337 986 981
f 986 318 845
f 981 845 47
f 339 987 988
f 987 336 980
f 988 980 330
f 340 989 990
f 989 339 988
f 990 988 330
f 331 991 967
f 991 340 990
f 967 990 330
f 341 992 993
f 992 335 978
f 993 978 336
f 342 994 995
f 994 341 993
f 995 993 336
f 339 996 987
f 996 342 995
f 987 995 336
f 343 997 999
f 997 344 998
f 999 998 333
f 344 1000 998
f 1000 338 985
f 998 985 333
f 334 1001 974
f 1001 343 999
f 974 999 333
f 345 1002 1003
f 1002 337 983
f 1003 983 338
f 344 1004 1000
f 1004 346 1005
f 1000 1005 338
f 346 1006 1005
f 1006 345 1003
f 1005 1003 338
f 332 1007 969
f 1007 341 1008
f 969 1008 331
f 347 1009 1010
f 1009 340 991
f 1010 991 331
f 341 1011 1008
f 1011 347 1010
f 1008 1010 331
f 332 1012 1007
f 1012 335 992
f 1007 992 341
f 342 1013 994
f 1013 347 1011
f 994 1011 341
f 335 1014 976
f 1014 345 1015
f 976 1015 334
f 345 1016 1015
f 1016 348 1017
f 1015 1017 334
f 348 1018 1017
f 1018 343 1001
f 1017 1001 334
f 335 1019 1014
f 1019 337 1002
f 1014 1002 345
f 346 1020 1006
f 1020 348 1016
f 1006 1016 345
f 314 1021 836
f 1021 329 964
f 836 964 21
f 314 838 1021
f 838 315 1022
f 1021 1022 329
f 229 223 1024
f 1023 1024 223
f 223 218 1023
f 1025 1023 218
f 315 1026 1022
f 1026 245 1027
f 1022 1027 329
f 245 237 1027
f 1028 1027 237
f 237 229 1028
f 1024 1028 229
f 218 213 1025
f 1029 1025 213
f 213 208 1029
f 1030 1029 208
f 208 1031 1030
f 1031 208 203
f 203 1032 1031
f 1032 203 198
f 198 1033 1032
f 1033 198 191
f 191 1034 1033
f 1034 332 971
f 1033 971 329
f 193 192 1036
f 1035 1036 192
f 317 1037 1038
f 1037 335 1012
f 1038 1012 332
f 239 1039 1040
f 1039 317 1038
f 1040 1038 332
f 232 1040 1041
f 1040 232 239
f 209 1042 1043
f 1042 209 214
f 214 1044 1042
f 1044 214 219
f 219 1045 1044
f 1045 219 224
f 224 1041 1045
f 1041 224 232
f 191 190 1034
f 1046 1034 190
f 190 193 1046
f 1036 1046 193
f 192 199 1035
f 1047 1035 199
f 199 204 1047
f 1048 1047 204
f 204 1043 1048
f 1043 204 209
f 316 1049 1050
f 1049 337 1019
f 1050 1019 335
f 317 842 1037
f 842 316 1050
f 1037 1050 335
f 249 241 1052
f 1051 1052 241
f 241 233 1051
f 1053 1051 233
f 233 226 1053
f 1054 1053 226
f 226 221 1054
f 1055 1054 221
f 221 216 1055
f 1056 1055 216
f 216 211 1056
f 1057 1056 211
f 211 1058 1057
f 1058 211 206
f 206 1059 1058
f 1059 206 201
f 201 1060 1059
f 1060 201 196
f 196 1061 1060
f 1061 196 195
f 195 1062 1061
f 1062 318 986
f 1061 986 337
f 320 1063 1064
f 1063 249 1052
f 1064 1052 337
f 316 851 1049
f 851 320 1064
f 1049 1064 337
f 227 1065 1066
f 1065 227 235
f 235 1067 1065
f 1067 319 847
f 1065 847 318
f 207 212 1069
f 1068 1069 212
f 212 1070 1068
f 1070 212 217
f 217 1071 1070
f 1071 217 222
f 222 1066 1071
f 1066 222 227
f 195 197 1062
f 1072 1062 197
f 197 202 1072
f 1073 1072 202
f 202 207 1073
f 1069 1073 207
f 243 1067 235
f 1067 243 1074
f 1075 253 1026
f 245 1026 253
f 248 1039 239
f 1039 248 1076
f 1077 261 1063
f 249 1063 261
f 251 1074 243
f 1074 251 1078
f 1079 265 1075
f 253 1075 265
f 255 1076 248
f 1076 255 1080
f 1081 268 1077
f 261 1077 268
f 263 1078 251
f 1078 263 1082
f 1083 272 1079
f 265 1079 272
f 266 1080 255
f 1080 266 1084
f 1085 275 1081
f 268 1081 275
f 270 1082 263
f 1082 270 1086
f 1087 279 1083
f 272 1083 279
f 273 1084 266
f 1084 273 1088
f 1089 282 1085
f 275 1085 282
f 277 1086 270
f 1086 277 1090
f 1091 286 1087
f 279 1087 286
f 280 1088 273
f 1088 280 1092
f 1093 289 1089
f 282 1089 289
f 284 1094 277
f 1090 277 1094
f 1095 286 1091
f 286 1095 293
f 287 1096 280
f 1092 280 1096
f 1097 289 1093
f 289 1097 298
f 291 1098 284
f 1094 284 1098
f 1099 293 1095
f 293 1099 302
f 297 1100 287
f 1096 287 1100
f 1101 298 1097
f 298 1101 305
f 300 1102 291
f 1098 291 1102
f 1103 302 1099
f 302 1103 309
f 304 1104 297
f 1100 297 1104
f 1105 305 1101
f 305 1105 312
f 307 1106 300
f 1102 300 1106
f 1107 309 1103
f 309 1107 310
f 310 1108 304
f 1104 304 1108
f 1109 312 1105
f 312 1109 313
f 320 849 1110
f 849 319 1106
f 1110 1106 307
f 313 1110 307
f 1110 313 1109
f 315 844 1107
f 844 317 1108
f 1107 1108 310
f 340 1111 989
f 1111 343 1112
f 989 1112 339
f 348 1113 1114
f 1113 342 996
f 1114 996 339
f 343 1018 1112
f 1018 348 1114
f 1112 1114 339
f 340 1115 1111
f 1115 344 997
f 1111 997 343
f 348 1020 1113
f 1020 346 1116
f 1113 1116 342
f 346 1117 1116
f 1117 347 1013
f 1116 1013 342
f 347 1118 1009
f 1118 344 1115
f 1009 1115 340
f 347 1117 1118
f 1117 346 1004
f 1118 1004 344

